<?xml version="1.0" encoding="UTF-8"?>
<!DOCTYPE svg PUBLIC "-//W3C//DTD SVG 1.1//EN" "http://www.w3.org/Graphics/SVG/1.1/DTD/svg11.dtd">
<svg xmlns="http://www.w3.org/2000/svg" version="1.1" width="1440px" height="882px" style="shape-rendering:geometricPrecision; text-rendering:geometricPrecision; image-rendering:optimizeQuality; fill-rule:evenodd; clip-rule:evenodd" xmlns:xlink="http://www.w3.org/1999/xlink">
<g><path style="opacity:1" fill="#fefefe" d="M -0.5,-0.5 C 479.5,-0.5 959.5,-0.5 1439.5,-0.5C 1439.5,293.5 1439.5,587.5 1439.5,881.5C 959.5,881.5 479.5,881.5 -0.5,881.5C -0.5,587.5 -0.5,293.5 -0.5,-0.5 Z"/></g>
<g><path style="opacity:1" fill="#101010" d="M 691.5,164.5 C 692.5,165.833 693.5,165.833 694.5,164.5C 697.064,164.979 699.564,165.645 702,166.5C 702.497,168.81 702.663,171.143 702.5,173.5C 700.857,173.52 699.524,172.853 698.5,171.5C 697.534,173.396 697.201,175.396 697.5,177.5C 701.1,175.466 703.433,176.466 704.5,180.5C 702.73,181.82 702.397,183.32 703.5,185C 707.187,187.285 711.187,188.452 715.5,188.5C 717.978,186.436 717.978,184.436 715.5,182.5C 716.995,182.011 718.329,181.345 719.5,180.5C 722.144,178.588 722.81,176.255 721.5,173.5C 720.833,173.167 720.167,172.833 719.5,172.5C 720.625,171.348 720.625,170.348 719.5,169.5C 717.742,169.123 716.075,168.456 714.5,167.5C 712.105,168.523 711.105,167.523 711.5,164.5C 714.354,163.974 717.021,162.974 719.5,161.5C 722.421,161.283 725.087,161.949 727.5,163.5C 728.239,163.369 728.906,163.536 729.5,164C 727.657,164.159 726.991,164.659 727.5,165.5C 728.475,167.193 729.808,168.693 731.5,170C 730.451,170.492 729.451,170.326 728.5,169.5C 727.816,171.496 727.816,173.162 728.5,174.5C 727.513,179.151 725.846,183.651 723.5,188C 724.818,189.63 726.151,189.797 727.5,188.5C 730.782,187.461 733.948,186.128 737,184.5C 737.507,183.004 737.007,181.837 735.5,181C 736.071,179.795 736.738,178.628 737.5,177.5C 740.44,178.859 742.106,177.859 742.5,174.5C 742.167,173.5 741.833,172.5 741.5,171.5C 740.476,172.853 739.143,173.52 737.5,173.5C 737.279,170.721 737.612,168.054 738.5,165.5C 740.861,165.326 743.194,164.993 745.5,164.5C 746.5,165.833 747.5,165.833 748.5,164.5C 753.19,162.709 757.857,160.709 762.5,158.5C 763.262,160.781 762.262,162.114 759.5,162.5C 756.922,164.589 753.922,165.923 750.5,166.5C 748.255,166.541 747.588,167.375 748.5,169C 751.039,169.796 753.372,169.629 755.5,168.5C 760.908,169.211 766.241,169.378 771.5,169C 770.284,170.74 768.618,171.74 766.5,172C 762.23,173.075 757.897,173.575 753.5,173.5C 751.636,172.207 749.636,172.207 747.5,173.5C 749.641,174.952 751.975,175.952 754.5,176.5C 756.819,175.833 759.153,175.666 761.5,176C 758.456,176.359 758.122,177.026 760.5,178C 767.311,178.376 773.144,180.876 778,185.5C 778.515,187.939 778.015,188.105 776.5,186C 773.207,185.174 769.874,184.674 766.5,184.5C 765.54,183.485 764.373,183.485 763,184.5C 760.995,183.217 758.828,182.217 756.5,181.5C 755.199,182.478 754.032,182.145 753,180.5C 752.5,180.833 752,181.167 751.5,181.5C 755.518,184.524 759.518,187.524 763.5,190.5C 767.137,193.325 770.803,196.158 774.5,199C 777.379,200.836 778.879,203.336 779,206.5C 778.167,205.667 777.333,204.833 776.5,204C 771.031,202.685 766.031,200.519 761.5,197.5C 757.227,194.566 753.227,191.233 749.5,187.5C 749.167,188 748.833,188.5 748.5,189C 752.735,194.668 757.068,200.168 761.5,205.5C 764.321,210.473 767.155,215.473 770,220.5C 771.15,222.754 771.484,225.087 771,227.5C 764.96,222.256 759.46,217.256 754.5,212.5C 752.468,206.761 750.134,201.094 747.5,195.5C 746.483,194.107 745.483,193.773 744.5,194.5C 746.043,198.461 747.376,202.461 748.5,206.5C 749.701,211.646 751.035,216.646 752.5,221.5C 755.197,227.808 756.031,234.475 755,241.5C 754.251,236.673 752.418,232.34 749.5,228.5C 747.308,225.587 746.308,222.253 746.5,218.5C 745.5,218.5 744.5,218.5 743.5,218.5C 743.768,216.901 743.434,215.568 742.5,214.5C 742.126,208.427 741.293,202.427 740,196.5C 739.667,196.833 739.333,197.167 739,197.5C 738.176,206.676 738.343,215.676 739.5,224.5C 739.737,225.791 739.404,226.791 738.5,227.5C 738.267,225.938 737.6,224.605 736.5,223.5C 734.299,219.245 732.966,214.911 732.5,210.5C 733.127,207.298 733.794,204.131 734.5,201C 732.609,200.691 731.275,201.525 730.5,203.5C 729.725,205.843 729.058,208.177 728.5,210.5C 725.227,211.829 723.227,214.329 722.5,218C 722.903,219.473 723.57,220.806 724.5,222C 728.674,222.735 731.674,224.902 733.5,228.5C 733.719,229.675 733.386,230.675 732.5,231.5C 731.304,231.154 731.304,230.654 732.5,230C 728.532,229.036 725.365,226.869 723,223.5C 723.327,228.514 725.994,231.847 731,233.5C 732.895,233.385 734.562,232.718 736,231.5C 736.749,232.635 736.583,233.635 735.5,234.5C 733.556,235.189 731.556,235.689 729.5,236C 732.053,237.656 734.719,237.823 737.5,236.5C 739.22,237.308 740.887,238.308 742.5,239.5C 742.279,240.735 741.612,241.735 740.5,242.5C 740.833,242.833 741.167,243.167 741.5,243.5C 742.852,242.476 744.185,241.476 745.5,240.5C 744.667,243.357 743.334,246.023 741.5,248.5C 740.15,247.05 738.484,246.383 736.5,246.5C 736.321,244.394 735.321,242.728 733.5,241.5C 727.453,239.084 723.453,234.751 721.5,228.5C 720.261,231.321 720.595,233.987 722.5,236.5C 726.162,240.318 730.162,243.651 734.5,246.5C 734.5,247.167 734.167,247.5 733.5,247.5C 729.91,245.496 726.243,243.496 722.5,241.5C 721.702,241.957 721.369,242.624 721.5,243.5C 720.432,244.434 719.099,244.768 717.5,244.5C 718.403,239.345 717.403,239.178 714.5,244C 708.055,243.598 705.555,246.431 707,252.5C 707.708,253.381 708.542,254.047 709.5,254.5C 708.458,255.791 707.292,255.791 706,254.5C 704.748,251.986 704.248,249.32 704.5,246.5C 708.845,243.152 713.178,239.818 717.5,236.5C 719.159,233.905 719.493,231.238 718.5,228.5C 716.539,232.258 714.205,235.758 711.5,239C 709.608,239.973 707.608,240.64 705.5,241C 704.418,242.33 703.751,243.83 703.5,245.5C 702.5,246.167 701.5,246.833 700.5,247.5C 699.1,246.9 698.1,245.9 697.5,244.5C 696.391,244.443 695.391,244.11 694.5,243.5C 694.351,242.448 694.517,241.448 695,240.5C 696.171,242.616 697.671,243.282 699.5,242.5C 698.975,241.808 698.308,241.308 697.5,241C 698.756,240.583 699.423,239.75 699.5,238.5C 700.5,237.833 701.5,237.167 702.5,236.5C 705.281,237.823 707.947,237.656 710.5,236C 708.444,235.689 706.444,235.189 704.5,234.5C 703.417,233.635 703.251,232.635 704,231.5C 709.855,234.394 714.188,232.728 717,226.5C 717.749,225.365 717.583,224.365 716.5,223.5C 714.178,227.303 711.178,228.47 707.5,227C 707.645,226.228 707.978,225.561 708.5,225C 719.055,221.872 720.055,217.039 711.5,210.5C 707.181,197.316 705.514,197.482 706.5,211C 705.894,214.199 705.227,217.366 704.5,220.5C 703.069,223.701 701.403,226.701 699.5,229.5C 699.5,228.167 699.5,226.833 699.5,225.5C 699.328,224.508 699.662,223.842 700.5,223.5C 701.776,216.982 701.776,210.315 700.5,203.5C 703.147,200.786 703.147,198.12 700.5,195.5C 698.67,200.299 697.67,205.299 697.5,210.5C 696.959,215.121 695.625,219.454 693.5,223.5C 690.371,227.425 688.038,231.759 686.5,236.5C 685.778,236.918 685.278,237.584 685,238.5C 684.51,237.207 684.343,235.873 684.5,234.5C 684.738,229.64 685.738,224.973 687.5,220.5C 688.434,219.432 688.768,218.099 688.5,216.5C 691.017,209.448 693.35,202.282 695.5,195C 695.167,194.167 694.833,193.333 694.5,192.5C 692.306,195.554 690.639,198.888 689.5,202.5C 688.675,203.386 687.675,203.719 686.5,203.5C 686.5,204.5 686.5,205.5 686.5,206.5C 685.837,208.804 685.17,211.137 684.5,213.5C 683.311,214.429 681.978,214.762 680.5,214.5C 680.649,215.552 680.483,216.552 680,217.5C 676.333,220.833 672.667,224.167 669,227.5C 668.333,225.833 668.333,224.167 669,222.5C 671.591,216.981 674.425,211.648 677.5,206.5C 681.091,201.732 684.925,197.065 689,192.5C 689.788,190.835 690.122,189.169 690,187.5C 687.62,189.045 685.786,191.045 684.5,193.5C 680.948,195.204 677.781,197.538 675,200.5C 674.586,200.043 674.086,199.709 673.5,199.5C 669.952,201.353 666.285,203.019 662.5,204.5C 661.479,203.998 661.312,203.332 662,202.5C 667.04,197.956 672.206,193.622 677.5,189.5C 681.343,186.497 685.343,183.664 689.5,181C 687.5,180.333 685.5,180.333 683.5,181C 682.944,181.383 682.611,181.883 682.5,182.5C 676.382,183.43 670.048,184.596 663.5,186C 662.574,187.58 661.574,188.08 660.5,187.5C 665.747,180.751 672.747,177.417 681.5,177.5C 685.066,176.756 688.399,175.422 691.5,173.5C 689.701,172.212 688.035,172.212 686.5,173.5C 681.464,173.412 676.464,172.912 671.5,172C 670.167,171 668.833,170 667.5,169C 673.108,169.298 678.774,169.131 684.5,168.5C 687.178,169.909 689.844,169.743 692.5,168C 691.473,167.487 690.473,166.987 689.5,166.5C 684.138,165.987 679.804,163.654 676.5,159.5C 676.833,159.167 677.167,158.833 677.5,158.5C 681.91,161.082 686.577,163.082 691.5,164.5 Z"/></g>
<g><path style="opacity:1" fill="#7f7f7f" d="M 694.5,164.5 C 693.5,165.833 692.5,165.833 691.5,164.5C 690.764,163.21 689.431,161.71 687.5,160C 687.833,159.833 688.167,159.667 688.5,159.5C 690.571,161.185 692.571,162.852 694.5,164.5 Z"/></g>
<g><path style="opacity:1" fill="#a3a3a3" d="M 727.5,163.5 C 725.087,161.949 722.421,161.283 719.5,161.5C 722.593,158.823 725.593,158.99 728.5,162C 727.944,162.383 727.611,162.883 727.5,163.5 Z"/></g>
<g><path style="opacity:1" fill="#848484" d="M 748.5,164.5 C 747.5,165.833 746.5,165.833 745.5,164.5C 747.789,162.552 750.122,160.552 752.5,158.5C 752.044,160.827 750.377,162.661 747.5,164C 747.728,164.399 748.062,164.565 748.5,164.5 Z"/></g>
<g><path style="opacity:1" fill="#cccccc" d="M 759.5,162.5 C 759.5,163.5 759.5,164.5 759.5,165.5C 761.512,164.986 763.512,164.82 765.5,165C 762.013,166.622 758.346,167.455 754.5,167.5C 752.901,167.768 751.568,167.434 750.5,166.5C 753.922,165.923 756.922,164.589 759.5,162.5 Z"/></g>
<g><path style="opacity:1" fill="#999999" d="M 689.5,166.5 C 690.473,166.987 691.473,167.487 692.5,168C 689.844,169.743 687.178,169.909 684.5,168.5C 683.391,167.71 682.058,167.21 680.5,167C 683.686,167.114 686.686,166.947 689.5,166.5 Z"/></g>
<g><path style="opacity:1" fill="#7d7d7d" d="M 750.5,166.5 C 751.568,167.434 752.901,167.768 754.5,167.5C 754.5,168.167 754.833,168.5 755.5,168.5C 753.372,169.629 751.039,169.796 748.5,169C 747.588,167.375 748.255,166.541 750.5,166.5 Z"/></g>
<g><path style="opacity:1" fill="#434343" d="M 719.5,169.5 C 720.625,170.348 720.625,171.348 719.5,172.5C 718.399,173.598 717.066,173.765 715.5,173C 716.167,172.667 716.833,172.333 717.5,172C 714.167,171.667 710.833,171.333 707.5,171C 711.688,170.824 715.688,170.324 719.5,169.5 Z"/></g>
<g><path style="opacity:1" fill="#e1e1e1" d="M 738.5,165.5 C 737.612,168.054 737.279,170.721 737.5,173.5C 739.143,173.52 740.476,172.853 741.5,171.5C 741.833,172.5 742.167,173.5 742.5,174.5C 742.106,177.859 740.44,178.859 737.5,177.5C 736.738,178.628 736.071,179.795 735.5,181C 737.007,181.837 737.507,183.004 737,184.5C 733.948,186.128 730.782,187.461 727.5,188.5C 725.535,188.052 725.202,187.052 726.5,185.5C 727.609,186.59 728.609,186.59 729.5,185.5C 726.723,182.642 727.057,181.476 730.5,182C 729.499,179.935 728.832,177.435 728.5,174.5C 727.816,173.162 727.816,171.496 728.5,169.5C 729.451,170.326 730.451,170.492 731.5,170C 729.808,168.693 728.475,167.193 727.5,165.5C 729.167,165.5 730.833,165.5 732.5,165.5C 732.281,164.325 732.614,163.325 733.5,162.5C 734.94,163.952 736.606,164.952 738.5,165.5 Z"/></g>
<g><path style="opacity:1" fill="#525252" d="M 753.5,173.5 C 754.263,174.268 755.263,174.768 756.5,175C 755.584,175.278 754.918,175.778 754.5,176.5C 751.975,175.952 749.641,174.952 747.5,173.5C 749.636,172.207 751.636,172.207 753.5,173.5 Z"/></g>
<g><path style="opacity:1" fill="#707070" d="M 681.5,177.5 C 680.737,176.732 679.737,176.232 678.5,176C 681.379,175.454 684.046,174.621 686.5,173.5C 688.035,172.212 689.701,172.212 691.5,173.5C 688.399,175.422 685.066,176.756 681.5,177.5 Z"/></g>
<g><path style="opacity:1" fill="#707070" d="M 721.5,173.5 C 722.81,176.255 722.144,178.588 719.5,180.5C 719.586,179.504 719.252,178.671 718.5,178C 719.448,177.517 720.448,177.351 721.5,177.5C 721.5,176.167 721.5,174.833 721.5,173.5 Z"/></g>
<g><path style="opacity:1" fill="#757575" d="M 728.5,174.5 C 728.832,177.435 729.499,179.935 730.5,182C 727.057,181.476 726.723,182.642 729.5,185.5C 728.609,186.59 727.609,186.59 726.5,185.5C 725.202,187.052 725.535,188.052 727.5,188.5C 726.151,189.797 724.818,189.63 723.5,188C 725.846,183.651 727.513,179.151 728.5,174.5 Z"/></g>
<g><path style="opacity:1" fill="#a7a7a7" d="M 766.5,184.5 C 765.234,185.09 763.901,185.59 762.5,186C 764.822,187.924 767.489,189.257 770.5,190C 768.005,189.588 765.671,189.755 763.5,190.5C 759.518,187.524 755.518,184.524 751.5,181.5C 752,181.167 752.5,180.833 753,180.5C 754.032,182.145 755.199,182.478 756.5,181.5C 758.828,182.217 760.995,183.217 763,184.5C 764.373,183.485 765.54,183.485 766.5,184.5 Z"/></g>
<g><path style="opacity:1" fill="#979797" d="M 677.5,189.5 C 675.724,189.206 673.724,189.04 671.5,189C 675.577,187.4 679.244,185.234 682.5,182.5C 682.611,181.883 682.944,181.383 683.5,181C 685.5,180.333 687.5,180.333 689.5,181C 685.343,183.664 681.343,186.497 677.5,189.5 Z"/></g>
<g><path style="opacity:1" fill="#868686" d="M 715.5,182.5 C 717.978,184.436 717.978,186.436 715.5,188.5C 715.297,186.956 714.63,185.622 713.5,184.5C 713.855,183.478 714.522,182.811 715.5,182.5 Z"/></g>
<g><path style="opacity:1" fill="#a1a1a1" d="M 761.5,197.5 C 760.448,197.351 759.448,197.517 758.5,198C 761.88,203.047 766.214,207.047 771.5,210C 767.654,209.651 764.487,207.818 762,204.5C 761.601,204.728 761.435,205.062 761.5,205.5C 757.068,200.168 752.735,194.668 748.5,189C 748.833,188.5 749.167,188 749.5,187.5C 753.227,191.233 757.227,194.566 761.5,197.5 Z"/></g>
<g><path style="opacity:1" fill="#a6a6a6" d="M 677.5,206.5 C 677.158,205.662 676.492,205.328 675.5,205.5C 678.5,201.5 681.5,197.5 684.5,193.5C 685.786,191.045 687.62,189.045 690,187.5C 690.122,189.169 689.788,190.835 689,192.5C 684.925,197.065 681.091,201.732 677.5,206.5 Z"/></g>
<g><path style="opacity:1" fill="#9e9e9e" d="M 736.5,223.5 C 733.599,221.353 732.099,218.353 732,214.5C 731.751,215.624 731.251,216.624 730.5,217.5C 729.832,215.031 729.165,212.698 728.5,210.5C 729.058,208.177 729.725,205.843 730.5,203.5C 731.275,201.525 732.609,200.691 734.5,201C 733.794,204.131 733.127,207.298 732.5,210.5C 732.966,214.911 734.299,219.245 736.5,223.5 Z"/></g>
<g><path style="opacity:1" fill="#b7b7b7" d="M 754.5,212.5 C 754.167,212.5 753.833,212.5 753.5,212.5C 752.21,210.208 750.543,208.208 748.5,206.5C 747.376,202.461 746.043,198.461 744.5,194.5C 745.483,193.773 746.483,194.107 747.5,195.5C 750.134,201.094 752.468,206.761 754.5,212.5 Z"/></g>
<g><path style="opacity:1" fill="#9e9e9e" d="M 711.5,210.5 C 710.717,212.343 710.05,214.343 709.5,216.5C 707.539,217.578 705.872,218.911 704.5,220.5C 705.227,217.366 705.894,214.199 706.5,211C 705.514,197.482 707.181,197.316 711.5,210.5 Z"/></g>
<g><path style="opacity:1" fill="#2f2f2f" d="M 675.5,205.5 C 674.438,207.757 672.772,208.923 670.5,209C 671.789,207.198 673.456,206.031 675.5,205.5 Z"/></g>
<g><path style="opacity:1" fill="#969696" d="M 688.5,216.5 C 687.833,215.5 687.167,214.5 686.5,213.5C 687.688,211.278 688.688,208.945 689.5,206.5C 688.575,205.438 687.575,205.438 686.5,206.5C 686.5,205.5 686.5,204.5 686.5,203.5C 687.675,203.719 688.675,203.386 689.5,202.5C 690.639,198.888 692.306,195.554 694.5,192.5C 694.833,193.333 695.167,194.167 695.5,195C 693.35,202.282 691.017,209.448 688.5,216.5 Z"/></g>
<g><path style="opacity:1" fill="#818181" d="M 700.5,223.5 C 699.084,219.196 698.084,214.863 697.5,210.5C 697.67,205.299 698.67,200.299 700.5,195.5C 703.147,198.12 703.147,200.786 700.5,203.5C 701.776,210.315 701.776,216.982 700.5,223.5 Z"/></g>
<g><path style="opacity:1" fill="#7e7e7e" d="M 748.5,206.5 C 750.543,208.208 752.21,210.208 753.5,212.5C 754.061,215.462 755.061,218.295 756.5,221C 756.333,221.5 756.167,222 756,222.5C 755,220.833 754,219.167 753,217.5C 752.51,218.793 752.343,220.127 752.5,221.5C 751.035,216.646 749.701,211.646 748.5,206.5 Z"/></g>
<g><path style="opacity:1" fill="#858585" d="M 742.5,214.5 C 741.823,217.861 740.823,221.194 739.5,224.5C 738.343,215.676 738.176,206.676 739,197.5C 739.333,197.167 739.667,196.833 740,196.5C 741.293,202.427 742.126,208.427 742.5,214.5 Z"/></g>
<g><path style="opacity:1" fill="#4f4f4f" d="M 686.5,213.5 C 687.167,214.5 687.833,215.5 688.5,216.5C 688.768,218.099 688.434,219.432 687.5,220.5C 687.631,219.624 687.298,218.957 686.5,218.5C 685.667,219.5 684.833,220.5 684,221.5C 683.833,221.167 683.667,220.833 683.5,220.5C 684.788,218.261 685.788,215.928 686.5,213.5 Z"/></g>
<g><path style="opacity:1" fill="#cecece" d="M 697.5,210.5 C 698.084,214.863 699.084,219.196 700.5,223.5C 699.662,223.842 699.328,224.508 699.5,225.5C 698.233,226.087 697.233,226.087 696.5,225.5C 697.544,223.232 697.711,220.899 697,218.5C 696.794,220.936 695.627,222.602 693.5,223.5C 695.625,219.454 696.959,215.121 697.5,210.5 Z"/></g>
<g><path style="opacity:1" fill="#d7d7d7" d="M 711.5,210.5 C 720.055,217.039 719.055,221.872 708.5,225C 707.978,225.561 707.645,226.228 707.5,227C 711.178,228.47 714.178,227.303 716.5,223.5C 717.583,224.365 717.749,225.365 717,226.5C 714.188,232.728 709.855,234.394 704,231.5C 703.251,232.635 703.417,233.635 704.5,234.5C 706.444,235.189 708.444,235.689 710.5,236C 707.947,237.656 705.281,237.823 702.5,236.5C 702.05,233.872 701.05,231.539 699.5,229.5C 701.403,226.701 703.069,223.701 704.5,220.5C 705.872,218.911 707.539,217.578 709.5,216.5C 710.05,214.343 710.717,212.343 711.5,210.5 Z"/></g>
<g><path style="opacity:1" fill="#c3c3c3" d="M 743.5,218.5 C 744.5,218.5 745.5,218.5 746.5,218.5C 746.308,222.253 747.308,225.587 749.5,228.5C 746.943,227.812 744.609,226.646 742.5,225C 743.167,224.333 743.833,223.667 744.5,223C 743.62,221.644 743.286,220.144 743.5,218.5 Z"/></g>
<g><path style="opacity:1" fill="#7e7e7e" d="M 739.5,224.5 C 740.793,226.364 740.793,228.364 739.5,230.5C 738.614,229.675 738.281,228.675 738.5,227.5C 739.404,226.791 739.737,225.791 739.5,224.5 Z"/></g>
<g><path style="opacity:1" fill="#c7c7c7" d="M 733.5,228.5 C 734.822,228.33 735.989,228.663 737,229.5C 737.497,231.81 737.663,234.143 737.5,236.5C 734.719,237.823 732.053,237.656 729.5,236C 731.556,235.689 733.556,235.189 735.5,234.5C 736.583,233.635 736.749,232.635 736,231.5C 734.562,232.718 732.895,233.385 731,233.5C 725.994,231.847 723.327,228.514 723,223.5C 725.365,226.869 728.532,229.036 732.5,230C 731.304,230.654 731.304,231.154 732.5,231.5C 733.386,230.675 733.719,229.675 733.5,228.5 Z"/></g>
<g><path style="opacity:1" fill="#c5c5c5" d="M 736.5,246.5 C 736.167,246.5 735.833,246.5 735.5,246.5C 735.167,246.5 734.833,246.5 734.5,246.5C 730.162,243.651 726.162,240.318 722.5,236.5C 720.595,233.987 720.261,231.321 721.5,228.5C 723.453,234.751 727.453,239.084 733.5,241.5C 735.321,242.728 736.321,244.394 736.5,246.5 Z"/></g>
<g><path style="opacity:1" fill="#808080" d="M 699.5,238.5 C 699.423,239.75 698.756,240.583 697.5,241C 698.308,241.308 698.975,241.808 699.5,242.5C 697.671,243.282 696.171,242.616 695,240.5C 694.517,241.448 694.351,242.448 694.5,243.5C 693.371,241.372 693.204,239.039 694,236.5C 694.414,236.043 694.914,235.709 695.5,235.5C 696.167,236.833 696.833,238.167 697.5,239.5C 698.183,239.137 698.85,238.804 699.5,238.5 Z"/></g>
<g><path style="opacity:1" fill="#c2c2c2" d="M 704.5,246.5 C 704.5,245.833 704.167,245.5 703.5,245.5C 703.751,243.83 704.418,242.33 705.5,241C 707.608,240.64 709.608,239.973 711.5,239C 714.205,235.758 716.539,232.258 718.5,228.5C 719.493,231.238 719.159,233.905 717.5,236.5C 713.178,239.818 708.845,243.152 704.5,246.5 Z"/></g>
<g><path style="opacity:1" fill="#767676" d="M 745.5,240.5 C 744.185,241.476 742.852,242.476 741.5,243.5C 741.167,243.167 740.833,242.833 740.5,242.5C 741.612,241.735 742.279,240.735 742.5,239.5C 744.986,238.05 744.653,236.884 741.5,236C 742.793,235.51 744.127,235.343 745.5,235.5C 745.5,237.167 745.5,238.833 745.5,240.5 Z"/></g>
<g><path style="opacity:1" fill="#a6a6a6" d="M 684.5,234.5 C 684.343,235.873 684.51,237.207 685,238.5C 685.278,237.584 685.778,236.918 686.5,236.5C 686.239,245.477 685.239,245.643 683.5,237C 683.528,235.93 683.861,235.097 684.5,234.5 Z"/></g>
<g><path style="opacity:1" fill="#3c3c3c" d="M 721.5,243.5 C 722.939,245.36 724.605,247.027 726.5,248.5C 727.5,249.167 728.5,249.833 729.5,250.5C 728.262,251.412 726.928,251.579 725.5,251C 723.641,249.442 722.141,247.609 721,245.5C 720.536,246.094 720.369,246.761 720.5,247.5C 720.167,247.5 719.833,247.5 719.5,247.5C 719.631,246.624 719.298,245.957 718.5,245.5C 716.771,247.879 715.104,250.212 713.5,252.5C 712.5,252.5 711.5,252.5 710.5,252.5C 709.634,250.856 709.134,249.189 709,247.5C 709.333,247.167 709.667,246.833 710,246.5C 711.067,248.283 712.567,248.783 714.5,248C 715.636,246.855 716.636,245.688 717.5,244.5C 719.099,244.768 720.432,244.434 721.5,243.5 Z"/></g>
<g><path style="opacity:1" fill="#d3d3d3" d="M 717.5,244.5 C 716.636,245.688 715.636,246.855 714.5,248C 712.567,248.783 711.067,248.283 710,246.5C 709.667,246.833 709.333,247.167 709,247.5C 709.134,249.189 709.634,250.856 710.5,252.5C 710.167,253.167 709.833,253.833 709.5,254.5C 708.542,254.047 707.708,253.381 707,252.5C 705.555,246.431 708.055,243.598 714.5,244C 717.403,239.178 718.403,239.345 717.5,244.5 Z"/></g>
<g><path style="opacity:1" fill="#6c6c6c" d="M 697.5,244.5 C 698.1,245.9 699.1,246.9 700.5,247.5C 700.483,249.028 699.816,249.528 698.5,249C 697.62,247.644 697.286,246.144 697.5,244.5 Z"/></g>
<g><path style="opacity:1" fill="#121212" d="M 719.5,247.5 C 719.833,247.5 720.167,247.5 720.5,247.5C 721.167,248.5 721.833,249.5 722.5,250.5C 720.82,254.588 720.153,258.921 720.5,263.5C 719.833,260.833 719.167,258.167 718.5,255.5C 717.652,254.375 716.652,254.375 715.5,255.5C 716.308,252.55 717.642,249.883 719.5,247.5 Z"/></g>
<g><path style="opacity:1" fill="#4e4e4e" d="M 734.5,246.5 C 734.833,246.5 735.167,246.5 735.5,246.5C 735.663,248.857 735.497,251.19 735,253.5C 733.89,255.037 732.39,255.703 730.5,255.5C 732.984,253.455 733.984,250.788 733.5,247.5C 734.167,247.5 734.5,247.167 734.5,246.5 Z"/></g>
<g><path style="opacity:1" fill="#bababa" d="M 719.5,247.5 C 717.642,249.883 716.308,252.55 715.5,255.5C 714.094,255.027 713.427,254.027 713.5,252.5C 715.104,250.212 716.771,247.879 718.5,245.5C 719.298,245.957 719.631,246.624 719.5,247.5 Z"/></g>
<g><path style="opacity:1" fill="#cdcdcd" d="M 733.5,247.5 C 733.984,250.788 732.984,253.455 730.5,255.5C 729.735,254.34 728.735,253.34 727.5,252.5C 726.712,253.77 725.712,254.77 724.5,255.5C 724.204,253.597 723.537,251.93 722.5,250.5C 721.833,249.5 721.167,248.5 720.5,247.5C 720.369,246.761 720.536,246.094 721,245.5C 722.141,247.609 723.641,249.442 725.5,251C 726.928,251.579 728.262,251.412 729.5,250.5C 731.852,249.457 732.019,248.124 730,246.5C 729.29,247.973 728.124,248.64 726.5,248.5C 724.605,247.027 722.939,245.36 721.5,243.5C 721.369,242.624 721.702,241.957 722.5,241.5C 726.243,243.496 729.91,245.496 733.5,247.5 Z"/></g>
<g><path style="opacity:1" fill="#6c6c6c" d="M 729.5,250.5 C 728.5,249.833 727.5,249.167 726.5,248.5C 728.124,248.64 729.29,247.973 730,246.5C 732.019,248.124 731.852,249.457 729.5,250.5 Z"/></g>
<g><path style="opacity:1" fill="#757575" d="M 722.5,250.5 C 723.537,251.93 724.204,253.597 724.5,255.5C 723.5,255.5 722.5,255.5 721.5,255.5C 721.806,258.385 721.473,261.052 720.5,263.5C 720.153,258.921 720.82,254.588 722.5,250.5 Z"/></g>
<g><path style="opacity:1" fill="#828282" d="M 718.5,255.5 C 719.167,258.167 719.833,260.833 720.5,263.5C 720.82,266.898 720.487,270.232 719.5,273.5C 718.504,267.537 718.171,261.537 718.5,255.5 Z"/></g>
<g><path style="opacity:1" fill="#1e1e1e" d="M 759.5,279.5 C 760.5,279.5 761.5,279.5 762.5,279.5C 762.5,280.5 762.5,281.5 762.5,282.5C 761.5,282.5 760.5,282.5 759.5,282.5C 759.5,281.5 759.5,280.5 759.5,279.5 Z"/></g>
<g><path style="opacity:1" fill="#222222" d="M 718.5,279.5 C 719.5,279.5 720.5,279.5 721.5,279.5C 721.5,280.5 721.5,281.5 721.5,282.5C 720.5,282.5 719.5,282.5 718.5,282.5C 718.5,281.5 718.5,280.5 718.5,279.5 Z"/></g>
<g><path style="opacity:1" fill="#212121" d="M 669.5,286.5 C 669.185,290.371 669.518,294.038 670.5,297.5C 670.918,298.222 671.584,298.722 672.5,299C 670.167,299.667 667.833,299.667 665.5,299C 666.791,295.545 666.791,292.045 665.5,288.5C 662.25,300.207 655.75,302.541 646,295.5C 642.64,286.881 645.473,281.881 654.5,280.5C 659.272,280.437 662.606,282.604 664.5,287C 666.197,287.384 667.863,287.218 669.5,286.5 Z"/></g>
<g><path style="opacity:1" fill="#f0f0f0" d="M 652.5,281.5 C 657.821,281.496 660.487,284.163 660.5,289.5C 660.727,294.06 658.727,297.06 654.5,298.5C 650.424,297.196 648.424,294.363 648.5,290C 648.425,286.342 649.758,283.508 652.5,281.5 Z"/></g>
<g><path style="opacity:1" fill="#303030" d="M 752.5,282.5 C 753.926,283.802 755.259,285.302 756.5,287C 755.28,288.525 754.613,290.359 754.5,292.5C 754.613,294.641 755.28,296.475 756.5,298C 755.01,299.772 753.343,299.939 751.5,298.5C 750.803,294.623 750.136,290.79 749.5,287C 751.141,285.871 752.141,284.371 752.5,282.5 Z"/></g>
<g><path style="opacity:1" fill="#121212" d="M 671.5,286.5 C 672.5,286.5 673.5,286.5 674.5,286.5C 674.715,288.179 674.048,289.179 672.5,289.5C 672.082,288.778 671.416,288.278 670.5,288C 671.056,287.617 671.389,287.117 671.5,286.5 Z"/></g>
<g><path style="opacity:1" fill="#1f1f1f" d="M 691.5,286.5 C 693.92,286.292 696.253,286.626 698.5,287.5C 699.2,291.041 699.867,294.541 700.5,298C 700.167,298.333 699.833,298.667 699.5,299C 696.332,298.997 693.165,298.83 690,298.5C 689.333,297.167 689.333,295.833 690,294.5C 692.458,293.36 694.625,291.86 696.5,290C 696.387,288.72 695.72,287.887 694.5,287.5C 693.335,288.491 692.168,289.491 691,290.5C 690.5,290.167 690,289.833 689.5,289.5C 690.193,288.482 690.859,287.482 691.5,286.5 Z"/></g>
<g><path style="opacity:1" fill="#1b1b1b" d="M 739.5,286.5 C 741.92,286.292 744.253,286.626 746.5,287.5C 747.324,290.785 747.824,294.118 748,297.5C 748.654,296.304 749.154,296.304 749.5,297.5C 749.167,297.833 748.833,298.167 748.5,298.5C 745.003,298.664 741.503,298.664 738,298.5C 737.333,297.167 737.333,295.833 738,294.5C 740.458,293.36 742.625,291.86 744.5,290C 744.387,288.72 743.72,287.887 742.5,287.5C 741.335,288.491 740.168,289.491 739,290.5C 738.5,290.167 738,289.833 737.5,289.5C 738.193,288.482 738.859,287.482 739.5,286.5 Z"/></g>
<g><path style="opacity:1" fill="#202020" d="M 769.5,286.5 C 778.95,286.946 780.95,291.112 775.5,299C 767.471,300.473 764.471,297.306 766.5,289.5C 767.548,288.452 768.548,287.452 769.5,286.5 Z"/></g>
<g><path style="opacity:1" fill="#eeeeee" d="M 770.5,287.5 C 772.39,287.297 773.89,287.963 775,289.5C 775.667,291.833 775.667,294.167 775,296.5C 773.333,299.167 771.667,299.167 770,296.5C 769.264,293.408 769.431,290.408 770.5,287.5 Z"/></g>
<g><path style="opacity:1" fill="#0f0f0f" d="M 815.5,289.5 C 834.476,293.278 847.309,304.612 854,323.5C 855.339,328.178 856.339,332.844 857,337.5C 843.747,326.26 832.747,313.26 824,298.5C 820.934,295.604 818.101,292.604 815.5,289.5 Z"/></g>
<g><path style="opacity:1" fill="#707070" d="M 669.5,286.5 C 670.167,286.5 670.833,286.5 671.5,286.5C 671.389,287.117 671.056,287.617 670.5,288C 671.416,288.278 672.082,288.778 672.5,289.5C 670.631,291.635 669.964,294.302 670.5,297.5C 669.518,294.038 669.185,290.371 669.5,286.5 Z"/></g>
<g><path style="opacity:1" fill="#101010" d="M 586.5,333.5 C 583.931,334.396 581.931,336.062 580.5,338.5C 581.235,327.603 584.902,317.603 591.5,308.5C 599.513,298.999 609.513,292.832 621.5,290C 613.477,299.213 606.311,309.046 600,319.5C 595.297,324.035 590.797,328.702 586.5,333.5 Z"/></g>
<g><path style="opacity:1" fill="#f2f2f2" d="M 693.5,293.5 C 695.176,294.183 695.843,295.517 695.5,297.5C 694.5,297.5 693.5,297.5 692.5,297.5C 692.433,296.041 692.766,294.708 693.5,293.5 Z"/></g>
<g><path style="opacity:1" fill="#dfdfdf" d="M 743.5,292.5 C 745.273,295.676 744.273,297.343 740.5,297.5C 740.31,295.041 741.31,293.374 743.5,292.5 Z"/></g>
<g><path style="opacity:1" fill="#1c1c1c" d="M 781.5,286.5 C 784.809,286.858 788.143,287.191 791.5,287.5C 791.935,291.612 792.935,295.445 794.5,299C 792.167,299.667 789.833,299.667 787.5,299C 788.704,297.647 789.371,295.981 789.5,294C 789.333,292.5 789.167,291 789,289.5C 787.887,288.289 786.72,288.289 785.5,289.5C 785.167,291 784.833,292.5 784.5,294C 784.629,295.981 785.296,297.647 786.5,299C 784.167,299.667 781.833,299.667 779.5,299C 780.72,297.475 781.387,295.641 781.5,293.5C 781.387,291.359 780.72,289.525 779.5,288C 780.416,287.722 781.082,287.222 781.5,286.5 Z"/></g>
<g><path style="opacity:1" fill="#202020" d="M 703.5,286.5 C 705.864,287.529 708.197,287.529 710.5,286.5C 712.029,286.529 713.196,287.196 714,288.5C 714.498,291.817 714.665,295.15 714.5,298.5C 715.833,298.5 717.167,298.5 718.5,298.5C 719.029,294.649 718.362,291.149 716.5,288C 718.025,286.991 719.692,286.491 721.5,286.5C 721.5,290.5 721.5,294.5 721.5,298.5C 722.675,298.719 723.675,298.386 724.5,297.5C 727.048,294.241 729.714,291.074 732.5,288C 730.527,287.505 728.527,287.338 726.5,287.5C 726.719,288.675 726.386,289.675 725.5,290.5C 724.571,289.311 724.238,287.978 724.5,286.5C 728.226,286.177 731.893,286.511 735.5,287.5C 733.025,291.142 730.358,294.642 727.5,298C 730.432,298.311 733.098,298.478 735.5,298.5C 724.181,299.666 712.848,299.832 701.5,299C 702.72,297.475 703.387,295.641 703.5,293.5C 703.387,291.359 702.72,289.525 701.5,288C 702.416,287.722 703.082,287.222 703.5,286.5 Z"/></g>
<g><path style="opacity:1" fill="#f7f7f7" d="M 707.5,288.5 C 708.5,288.5 709.5,288.5 710.5,288.5C 710.5,291.833 710.5,295.167 710.5,298.5C 709.167,298.5 707.833,298.5 706.5,298.5C 706.253,295.061 706.586,291.728 707.5,288.5 Z"/></g>
<g><path style="opacity:1" fill="#1a1a1a" d="M 759.5,286.5 C 760.5,286.5 761.5,286.5 762.5,286.5C 761.945,290.997 762.611,295.164 764.5,299C 762.167,299.667 759.833,299.667 757.5,299C 758.72,297.475 759.387,295.641 759.5,293.5C 758.992,290.962 758.992,288.628 759.5,286.5 Z"/></g>
<g><path style="opacity:1" fill="#1d1d1d" d="M 677.5,286.5 C 681.22,286.564 684.886,287.064 688.5,288C 687.046,290.244 685.712,292.577 684.5,295C 682.423,295.192 680.423,295.692 678.5,296.5C 681.366,297.208 684.2,297.875 687,298.5C 688.14,301.528 687.306,303.695 684.5,305C 681.833,305.667 679.167,305.667 676.5,305C 675.572,304.612 674.905,303.945 674.5,303C 675.621,300.157 676.621,297.323 677.5,294.5C 675.025,291.887 675.025,289.22 677.5,286.5 Z"/></g>
<g><path style="opacity:1" fill="#e8e8e8" d="M 678.5,299.5 C 681.321,299.539 683.988,300.205 686.5,301.5C 686.291,302.086 685.957,302.586 685.5,303C 683.167,303.667 680.833,303.667 678.5,303C 677.316,301.855 677.316,300.688 678.5,299.5 Z"/></g>
<g><path style="opacity:1" fill="#d8d8d8" d="M 679.5,287.5 C 683.264,288.385 684.264,290.552 682.5,294C 681.216,294.684 680.049,294.517 679,293.5C 678.322,291.402 678.489,289.402 679.5,287.5 Z"/></g>
<g><path style="opacity:1" fill="#eaeaea" d="M 591.5,308.5 C 584.902,317.603 581.235,327.603 580.5,338.5C 581.931,336.062 583.931,334.396 586.5,333.5C 587.048,335.532 588.381,336.532 590.5,336.5C 581.042,342.797 573.875,351.13 569,361.5C 568.333,359.833 568.333,358.167 569,356.5C 571.95,348.367 574.116,340.034 575.5,331.5C 576.924,329.485 577.59,327.152 577.5,324.5C 578.303,318.061 581.303,312.894 586.5,309C 586.272,308.601 585.938,308.435 585.5,308.5C 585.281,307.325 585.614,306.325 586.5,305.5C 587.695,307.297 589.362,308.297 591.5,308.5 Z"/></g>
<g><path style="opacity:1" fill="#0d0d0d" d="M 874.5,351.5 C 873.833,358.5 873.167,365.5 872.5,372.5C 869.749,368.243 866.416,364.41 862.5,361C 852.918,354.629 844.752,346.795 838,337.5C 834.972,332.077 832.972,326.411 832,320.5C 837.893,328.393 845.06,334.893 853.5,340C 857.036,343.704 860.702,347.204 864.5,350.5C 865.714,353.93 867.214,357.264 869,360.5C 868.394,355.973 867.227,351.639 865.5,347.5C 863.55,335.031 860.05,323.031 855,311.5C 853.167,309.667 851.333,307.833 849.5,306C 862.533,311.052 870.7,320.552 874,334.5C 874.499,340.157 874.666,345.824 874.5,351.5 Z"/></g>
<g><path style="opacity:1" fill="#0f0f0f" d="M 585.5,308.5 C 585.938,308.435 586.272,308.601 586.5,309C 581.303,312.894 578.303,318.061 577.5,324.5C 576.076,326.515 575.41,328.848 575.5,331.5C 574.116,340.034 571.95,348.367 569,356.5C 568.333,358.167 568.333,359.833 569,361.5C 573.875,351.13 581.042,342.797 590.5,336.5C 596.889,332.61 601.722,327.276 605,320.5C 603.573,332.687 598.407,343.02 589.5,351.5C 579.166,358.335 570.666,367.001 564,377.5C 563.829,369.989 563.329,362.655 562.5,355.5C 560.349,338.678 565.349,324.511 577.5,313C 580.059,311.223 582.726,309.723 585.5,308.5 Z"/></g>
<g><path style="opacity:1" fill="#858585" d="M 577.5,324.5 C 577.59,327.152 576.924,329.485 575.5,331.5C 575.41,328.848 576.076,326.515 577.5,324.5 Z"/></g>
<g><path style="opacity:1" fill="#0c0c0c" d="M 878.5,396.5 C 878.181,398.75 878.681,400.75 880,402.5C 880.796,399.961 880.629,397.628 879.5,395.5C 879.106,380.445 879.772,365.445 881.5,350.5C 880.971,344.711 880.138,339.044 879,333.5C 891.878,352.162 895.211,372.495 889,394.5C 885.322,403.202 882.655,412.202 881,421.5C 879.333,417.167 877.667,412.833 876,408.5C 867.908,396.747 860.241,384.747 853,372.5C 850.698,366.595 849.031,360.595 848,354.5C 849.252,356.001 850.252,357.668 851,359.5C 858.054,366.554 865.054,373.554 872,380.5C 875.443,385.332 877.61,390.665 878.5,396.5 Z"/></g>
<g><path style="opacity:1" fill="#0d0d0d" d="M 558.5,377.5 C 558.647,385.187 558.314,392.854 557.5,400.5C 558.243,406.805 558.909,406.472 559.5,399.5C 560.924,397.485 561.59,395.152 561.5,392.5C 563.09,388.258 565.09,384.258 567.5,380.5C 574.889,372.78 582.222,365.114 589.5,357.5C 587.906,365.45 585.406,373.116 582,380.5C 576.333,389.167 570.667,397.833 565,406.5C 561.885,411.844 559.552,417.511 558,423.5C 554.331,411.489 550.664,399.489 547,387.5C 543.554,368.953 547.22,351.953 558,336.5C 557.003,341.344 556.503,346.344 556.5,351.5C 556.903,360.193 557.569,368.86 558.5,377.5 Z"/></g>
<g><path style="opacity:1" fill="#a3a3a3" d="M 865.5,347.5 C 867.227,351.639 868.394,355.973 869,360.5C 867.214,357.264 865.714,353.93 864.5,350.5C 865.404,349.791 865.737,348.791 865.5,347.5 Z"/></g>
<g><path style="opacity:1" fill="#e5e5e5" d="M 589.5,351.5 C 589.124,353.647 589.124,355.647 589.5,357.5C 582.222,365.114 574.889,372.78 567.5,380.5C 566.25,380.423 565.417,379.756 565,378.5C 564.586,378.957 564.086,379.291 563.5,379.5C 562.502,371.528 562.169,363.528 562.5,355.5C 563.329,362.655 563.829,369.989 564,377.5C 570.666,367.001 579.166,358.335 589.5,351.5 Z"/></g>
<g><path style="opacity:1" fill="#838383" d="M 504.5,364.5 C 504.158,363.662 503.492,363.328 502.5,363.5C 503.016,361.8 504.016,360.467 505.5,359.5C 506.634,361.439 506.3,363.105 504.5,364.5 Z"/></g>
<g><path style="opacity:1" fill="#4b4b4b" d="M 487.5,369.5 C 486.167,370.167 484.833,370.833 483.5,371.5C 481.834,369.813 480.5,367.813 479.5,365.5C 477.994,364.253 476.494,364.253 475,365.5C 474.964,361.935 475.964,358.602 478,355.5C 479.526,359.894 481.36,364.227 483.5,368.5C 484.689,369.429 486.022,369.762 487.5,369.5 Z"/></g>
<g><path style="opacity:1" fill="#171717" d="M 502.5,363.5 C 503.492,363.328 504.158,363.662 504.5,364.5C 503.968,366.63 503.135,368.63 502,370.5C 500.384,369.199 498.884,369.199 497.5,370.5C 493.675,370.885 490.009,371.885 486.5,373.5C 485.416,373.315 484.416,372.982 483.5,372.5C 483.5,372.167 483.5,371.833 483.5,371.5C 484.833,370.833 486.167,370.167 487.5,369.5C 492.474,367.507 497.474,365.507 502.5,363.5 Z"/></g>
<g><path style="opacity:1" fill="#575757" d="M 874.5,351.5 C 874.666,359.507 874.5,367.507 874,375.5C 873.487,374.473 872.987,373.473 872.5,372.5C 873.167,365.5 873.833,358.5 874.5,351.5 Z"/></g>
<g><path style="opacity:1" fill="#f7f7f7" d="M 975.5,386.5 C 972.982,387.264 970.649,388.264 968.5,389.5C 967.391,390.29 966.058,390.79 964.5,391C 959.833,391.667 955.167,391.667 950.5,391C 948.313,389.975 946.646,388.475 945.5,386.5C 944.272,382.816 944.272,379.15 945.5,375.5C 949.254,372.403 953.254,369.737 957.5,367.5C 957.918,366.778 958.584,366.278 959.5,366C 965.119,364.701 970.786,364.368 976.5,365C 986.046,372.577 985.712,379.744 975.5,386.5 Z"/></g>
<g><path style="opacity:1" fill="#0c0c0c" d="M 659.5,367.5 C 684.912,365.794 701.412,377.127 709,401.5C 712.365,421.588 706.532,438.421 691.5,452C 687.294,454.602 682.961,456.936 678.5,459C 684.919,471.91 695.252,479.743 709.5,482.5C 688.519,482.347 670.852,474.514 656.5,459C 632.492,448.835 621.992,430.669 625,404.5C 629.146,385.191 640.646,372.858 659.5,367.5 Z"/></g>
<g><path style="opacity:1" fill="#0b0b0b" d="M 772.5,367.5 C 781.851,366.465 790.685,368.131 799,372.5C 802.121,372.208 803.621,370.541 803.5,367.5C 804.5,367.5 805.5,367.5 806.5,367.5C 806.5,377.5 806.5,387.5 806.5,397.5C 805.5,397.5 804.5,397.5 803.5,397.5C 801.437,379.251 791.437,371.418 773.5,374C 765.06,378.454 763.226,384.954 768,393.5C 778.3,401.124 789.133,407.957 800.5,414C 812.247,422.945 814.747,434.112 808,447.5C 799.986,457.05 789.82,460.55 777.5,458C 772.311,456.578 767.144,455.078 762,453.5C 759.363,454.101 758.196,455.767 758.5,458.5C 757.5,458.5 756.5,458.5 755.5,458.5C 755.5,448.5 755.5,438.5 755.5,428.5C 756.5,428.5 757.5,428.5 758.5,428.5C 761.08,448.255 772.08,456.088 791.5,452C 803.718,442.767 803.384,433.767 790.5,425C 778.496,419.09 767.663,411.59 758,402.5C 750.702,385.767 755.535,374.1 772.5,367.5 Z"/></g>
<g><path style="opacity:1" fill="#1a1a1a" d="M 461.5,369.5 C 462.568,370.434 463.901,370.768 465.5,370.5C 467.838,372.04 470.505,372.706 473.5,372.5C 476.311,373.475 479.311,374.142 482.5,374.5C 485.907,376.074 489.573,377.074 493.5,377.5C 495.265,378.461 497.265,378.795 499.5,378.5C 499.5,379.5 499.5,380.5 499.5,381.5C 498.732,382.263 498.232,383.263 498,384.5C 485.599,379.848 472.766,376.515 459.5,374.5C 457.744,373.448 457.077,371.781 457.5,369.5C 458.833,369.5 460.167,369.5 461.5,369.5 Z"/></g>
<g><path style="opacity:1" fill="#717171" d="M 465.5,370.5 C 468.428,370.565 471.095,371.232 473.5,372.5C 470.505,372.706 467.838,372.04 465.5,370.5 Z"/></g>
<g><path style="opacity:1" fill="#fcfcfc" d="M 661.5,372.5 C 675.829,371.244 685.663,377.244 691,390.5C 694.77,404.345 695.437,418.345 693,432.5C 687.549,451.472 675.383,458.305 656.5,453C 647.337,446.183 642.17,437.016 641,425.5C 639.869,413.696 640.535,402.03 643,390.5C 646.467,381.53 652.634,375.53 661.5,372.5 Z"/></g>
<g><path style="opacity:1" fill="#848484" d="M 497.5,370.5 C 494.561,371.97 491.561,373.47 488.5,375C 490.315,375.757 491.981,376.59 493.5,377.5C 489.573,377.074 485.907,376.074 482.5,374.5C 483.338,374.158 483.672,373.492 483.5,372.5C 484.416,372.982 485.416,373.315 486.5,373.5C 490.009,371.885 493.675,370.885 497.5,370.5 Z"/></g>
<g><path style="opacity:1" fill="#838383" d="M 461.5,369.5 C 460.167,369.5 458.833,369.5 457.5,369.5C 457.077,371.781 457.744,373.448 459.5,374.5C 459.179,376.048 458.179,376.715 456.5,376.5C 456.5,373.833 456.5,371.167 456.5,368.5C 458.415,368.216 460.081,368.549 461.5,369.5 Z"/></g>
<g><path style="opacity:1" fill="#424242" d="M 945.5,368.5 C 944.854,370.156 944.187,371.823 943.5,373.5C 943.747,374.713 944.414,375.38 945.5,375.5C 944.272,379.15 944.272,382.816 945.5,386.5C 944.521,385.235 943.521,383.901 942.5,382.5C 941.817,382.863 941.15,383.196 940.5,383.5C 941.18,379.881 941.68,376.214 942,372.5C 942.66,370.676 943.827,369.343 945.5,368.5 Z"/></g>
<g><path style="opacity:1" fill="#c2c2c2" d="M 984.5,370.5 C 986.959,371.874 987.959,374.04 987.5,377C 987.793,380.98 986.46,384.146 983.5,386.5C 985.6,381.269 985.933,375.936 984.5,370.5 Z"/></g>
<g><path style="opacity:1" fill="#797979" d="M 499.5,381.5 C 499.5,380.5 499.5,379.5 499.5,378.5C 497.265,378.795 495.265,378.461 493.5,377.5C 496.596,378.093 498.929,377.093 500.5,374.5C 501.606,377.066 501.273,379.4 499.5,381.5 Z"/></g>
<g><path style="opacity:1" fill="#1d1d1d" d="M 984.5,370.5 C 985.933,375.936 985.6,381.269 983.5,386.5C 981.413,387.585 980.08,389.251 979.5,391.5C 977.847,391.66 976.514,392.326 975.5,393.5C 972.603,394.129 969.936,395.129 967.5,396.5C 959.228,397.978 951.728,395.978 945,390.5C 942.516,392.118 941.016,394.452 940.5,397.5C 939.883,397.611 939.383,397.944 939,398.5C 938.502,395.518 938.335,392.518 938.5,389.5C 938.259,387.102 938.926,385.102 940.5,383.5C 941.15,383.196 941.817,382.863 942.5,382.5C 943.521,383.901 944.521,385.235 945.5,386.5C 946.646,388.475 948.313,389.975 950.5,391C 955.167,391.667 959.833,391.667 964.5,391C 966.058,390.79 967.391,390.29 968.5,389.5C 971.577,389.821 973.91,388.821 975.5,386.5C 985.712,379.744 986.046,372.577 976.5,365C 970.786,364.368 965.119,364.701 959.5,366C 958.584,366.278 957.918,366.778 957.5,367.5C 952.197,368.124 948.197,370.791 945.5,375.5C 944.414,375.38 943.747,374.713 943.5,373.5C 944.187,371.823 944.854,370.156 945.5,368.5C 949.673,361.665 955.839,358.665 964,359.5C 972.98,359.403 979.813,363.07 984.5,370.5 Z"/></g>
<g><path style="opacity:1" fill="#b3b3b3" d="M 957.5,367.5 C 953.254,369.737 949.254,372.403 945.5,375.5C 948.197,370.791 952.197,368.124 957.5,367.5 Z"/></g>
<g><path style="opacity:1" fill="#626262" d="M 975.5,386.5 C 973.91,388.821 971.577,389.821 968.5,389.5C 970.649,388.264 972.982,387.264 975.5,386.5 Z"/></g>
<g><path style="opacity:1" fill="#868686" d="M 983.5,386.5 C 982.92,388.749 981.587,390.415 979.5,391.5C 980.08,389.251 981.413,387.585 983.5,386.5 Z"/></g>
<g><path style="opacity:1" fill="#0e0e0e" d="M 873.5,471.5 C 872.833,466.167 872.167,460.833 871.5,455.5C 869.302,446.098 866.802,436.765 864,427.5C 862.176,418.875 860.676,410.208 859.5,401.5C 859.205,399.265 859.539,397.265 860.5,395.5C 865.383,405.599 870.55,415.599 876,425.5C 877.562,429.014 878.395,432.681 878.5,436.5C 878.895,443.158 878.228,449.658 876.5,456C 877.483,456.591 878.15,456.257 878.5,455C 879.233,452.165 879.9,449.332 880.5,446.5C 881.749,442.267 882.582,437.934 883,433.5C 887.2,422.565 891.2,411.565 895,400.5C 896.092,394.218 896.758,387.884 897,381.5C 903.755,403.468 902.088,424.801 892,445.5C 885.578,454.02 879.412,462.687 873.5,471.5 Z"/></g>
<g><path style="opacity:1" fill="#0e0e0e" d="M 558.5,451.5 C 559.143,454.198 559.976,456.865 561,459.5C 560.862,452.856 560.695,446.189 560.5,439.5C 562.552,426.724 567.385,415.057 575,404.5C 576.487,400.884 577.82,397.217 579,393.5C 579.529,398.854 579.362,404.187 578.5,409.5C 577.087,414.63 576.087,419.963 575.5,425.5C 572.418,436.411 569.751,447.411 567.5,458.5C 566.833,463.833 566.167,469.167 565.5,474.5C 559.921,466.352 554.087,458.352 548,450.5C 537.194,429.723 534.861,408.057 541,385.5C 541.122,392.305 542.122,398.972 544,405.5C 547.807,415.923 551.807,426.256 556,436.5C 557.051,441.474 557.885,446.474 558.5,451.5 Z"/></g>
<g><path style="opacity:1" fill="#727272" d="M 860.5,395.5 C 859.539,397.265 859.205,399.265 859.5,401.5C 858.359,398.36 858.192,395.027 859,391.5C 859.791,392.745 860.291,394.078 860.5,395.5 Z"/></g>
<g><path style="opacity:1" fill="#c5c5c5" d="M 558.5,377.5 C 559.167,382.833 559.833,388.167 560.5,393.5C 559.85,395.435 559.517,397.435 559.5,399.5C 558.909,406.472 558.243,406.805 557.5,400.5C 558.314,392.854 558.647,385.187 558.5,377.5 Z"/></g>
<g><path style="opacity:1" fill="#7c7c7c" d="M 975.5,393.5 C 973.383,395.655 970.716,396.655 967.5,396.5C 969.936,395.129 972.603,394.129 975.5,393.5 Z"/></g>
<g><path style="opacity:1" fill="#9b9b9b" d="M 879.5,395.5 C 880.629,397.628 880.796,399.961 880,402.5C 878.681,400.75 878.181,398.75 878.5,396.5C 879.167,396.5 879.5,396.167 879.5,395.5 Z"/></g>
<g><path style="opacity:1" fill="#686868" d="M 561.5,392.5 C 561.59,395.152 560.924,397.485 559.5,399.5C 559.517,397.435 559.85,395.435 560.5,393.5C 560.5,392.833 560.833,392.5 561.5,392.5 Z"/></g>
<g><path style="opacity:1" fill="#7c7c7c" d="M 938.5,389.5 C 938.335,392.518 938.502,395.518 939,398.5C 939.383,397.944 939.883,397.611 940.5,397.5C 940.813,400.247 940.48,402.914 939.5,405.5C 937.384,400.147 937.051,394.814 938.5,389.5 Z"/></g>
<g><path style="opacity:1" fill="#9d9d9d" d="M 446.5,416.5 C 445.265,414.983 445.265,413.316 446.5,411.5C 451.267,409.818 453.101,411.485 452,416.5C 450.057,417.807 448.223,417.807 446.5,416.5 Z"/></g>
<g><path style="opacity:1" fill="#0e0e0e" d="M 446.5,416.5 C 446.167,413.5 447.5,412.167 450.5,412.5C 450.5,413.833 450.5,415.167 450.5,416.5C 449.167,416.5 447.833,416.5 446.5,416.5 Z"/></g>
<g><path style="opacity:1" fill="#9d9d9d" d="M 496.5,416.5 C 485.819,415.812 475.152,414.812 464.5,413.5C 462.97,413.64 461.97,414.307 461.5,415.5C 460.596,414.791 460.263,413.791 460.5,412.5C 472.176,413.143 483.842,413.977 495.5,415C 496.056,415.383 496.389,415.883 496.5,416.5 Z"/></g>
<g><path style="opacity:1" fill="#1b1b1b" d="M 496.5,416.5 C 502.544,418.923 504.544,423.256 502.5,429.5C 501.311,430.429 499.978,430.762 498.5,430.5C 498.151,427.537 499.151,425.204 501.5,423.5C 501.253,422.287 500.586,421.62 499.5,421.5C 498.737,420.732 497.737,420.232 496.5,420C 488.331,419.539 480.164,419.039 472,418.5C 469.245,418.525 466.578,418.859 464,419.5C 463.722,418.584 463.222,417.918 462.5,417.5C 461.662,417.158 461.328,416.492 461.5,415.5C 461.97,414.307 462.97,413.64 464.5,413.5C 475.152,414.812 485.819,415.812 496.5,416.5 Z"/></g>
<g><path style="opacity:1" fill="#b6b6b6" d="M 578.5,409.5 C 578.773,415.216 577.773,420.549 575.5,425.5C 576.087,419.963 577.087,414.63 578.5,409.5 Z"/></g>
<g><path style="opacity:1" fill="#a0a0a0" d="M 462.5,417.5 C 463.222,417.918 463.722,418.584 464,419.5C 466.578,418.859 469.245,418.525 472,418.5C 480.164,419.039 488.331,419.539 496.5,420C 497.737,420.232 498.737,420.732 499.5,421.5C 490.169,420.878 480.836,420.211 471.5,419.5C 468.546,419.291 465.879,419.958 463.5,421.5C 462.571,420.311 462.238,418.978 462.5,417.5 Z"/></g>
<g><path style="opacity:1" fill="#bbbbbb" d="M 976.5,431.5 C 977.568,430.566 978.901,430.232 980.5,430.5C 980.784,428.585 980.451,426.919 979.5,425.5C 979.565,425.062 979.399,424.728 979,424.5C 978.25,425.126 977.416,425.626 976.5,426C 970.467,426.302 964.467,426.802 958.5,427.5C 958.167,427.5 957.833,427.5 957.5,427.5C 957.918,426.778 958.584,426.278 959.5,426C 965.498,425.409 971.498,424.909 977.5,424.5C 977.265,421.188 978.265,420.355 980.5,422C 981.367,425.105 981.701,428.272 981.5,431.5C 979.833,431.5 978.167,431.5 976.5,431.5 Z"/></g>
<g><path style="opacity:1" fill="#151515" d="M 979.5,425.5 C 979.5,426.833 979.5,428.167 979.5,429.5C 973.611,429.45 967.944,430.116 962.5,431.5C 959.369,430.908 957.036,431.908 955.5,434.5C 954.833,435.833 954.167,437.167 953.5,438.5C 953.167,437.833 952.833,437.167 952.5,436.5C 952.153,431.86 954.153,428.86 958.5,427.5C 964.467,426.802 970.467,426.302 976.5,426C 977.416,425.626 978.25,425.126 979,424.5C 979.399,424.728 979.565,425.062 979.5,425.5 Z"/></g>
<g><path style="opacity:1" fill="#646464" d="M 957.5,427.5 C 957.833,427.5 958.167,427.5 958.5,427.5C 954.153,428.86 952.153,431.86 952.5,436.5C 950.212,431.431 951.878,428.431 957.5,427.5 Z"/></g>
<g><path style="opacity:1" fill="#747474" d="M 979.5,425.5 C 980.451,426.919 980.784,428.585 980.5,430.5C 978.901,430.232 977.568,430.566 976.5,431.5C 971.833,431.5 967.167,431.5 962.5,431.5C 967.944,430.116 973.611,429.45 979.5,429.5C 979.5,428.167 979.5,426.833 979.5,425.5 Z"/></g>
<g><path style="opacity:1" fill="#9d9d9d" d="M 878.5,436.5 C 879.167,439.833 879.833,443.167 880.5,446.5C 879.9,449.332 879.233,452.165 878.5,455C 878.15,456.257 877.483,456.591 876.5,456C 878.228,449.658 878.895,443.158 878.5,436.5 Z"/></g>
<g><path style="opacity:1" fill="#808080" d="M 955.5,434.5 C 955.472,436.582 956.139,438.416 957.5,440C 962.066,441.309 966.733,441.809 971.5,441.5C 965.66,442.351 959.66,443.018 953.5,443.5C 953.629,445.216 953.962,446.883 954.5,448.5C 952.72,447.01 952.054,445.01 952.5,442.5C 953.873,442.657 955.207,442.49 956.5,442C 955.29,440.961 954.29,439.794 953.5,438.5C 954.167,437.167 954.833,435.833 955.5,434.5 Z"/></g>
<g><path style="opacity:1" fill="#0d0d0d" d="M 864.5,487.5 C 862.364,492.409 860.531,497.409 859,502.5C 861.426,499.309 863.593,495.975 865.5,492.5C 872.654,481.168 881.154,470.834 891,461.5C 895.881,454.851 899.214,447.518 901,439.5C 901.909,446.959 901.409,454.292 899.5,461.5C 898.076,463.515 897.41,465.848 897.5,468.5C 892.061,480.138 884.394,490.305 874.5,499C 864.912,505.711 855.412,512.544 846,519.5C 849.39,509.873 851.724,499.873 853,489.5C 853.836,475.781 855.169,462.114 857,448.5C 857.837,444.286 859.17,440.286 861,436.5C 861.945,446.224 863.278,455.891 865,465.5C 865.726,472.869 865.559,480.202 864.5,487.5 Z"/></g>
<g><path style="opacity:1" fill="#161616" d="M 979.5,440.5 C 981.256,441.552 981.923,443.219 981.5,445.5C 973.589,445.079 965.923,445.745 958.5,447.5C 957.295,449.138 955.962,449.471 954.5,448.5C 953.962,446.883 953.629,445.216 953.5,443.5C 959.66,443.018 965.66,442.351 971.5,441.5C 974.385,441.806 977.052,441.473 979.5,440.5 Z"/></g>
<g><path style="opacity:1" fill="#0f0f0f" d="M 726.5,444.5 C 734.494,443.329 737.994,446.663 737,454.5C 733.042,459.436 728.709,459.769 724,455.5C 721.584,451.078 722.417,447.411 726.5,444.5 Z"/></g>
<g><path style="opacity:1" fill="#0d0d0d" d="M 577.5,439.5 C 578.558,440.6 579.392,441.934 580,443.5C 581.333,450.164 582.666,456.831 584,463.5C 584.475,477.915 585.808,492.248 588,506.5C 590.021,511.504 591.687,516.504 593,521.5C 578.809,512.314 565.476,501.98 553,490.5C 542.31,477.412 537.31,462.412 538,445.5C 543.849,460.032 552.849,472.366 565,482.5C 570,489.833 575,497.167 580,504.5C 577.441,498.482 575.441,492.149 574,485.5C 573.833,482.333 573.667,479.167 573.5,476C 574.997,463.853 576.33,451.687 577.5,439.5 Z"/></g>
<g><path style="opacity:1" fill="#7b7b7b" d="M 958.5,447.5 C 965.923,445.745 973.589,445.079 981.5,445.5C 981.923,443.219 981.256,441.552 979.5,440.5C 979.811,439.522 980.478,438.855 981.5,438.5C 982.48,441.086 982.813,443.753 982.5,446.5C 974.483,446.501 966.483,446.834 958.5,447.5 Z"/></g>
<g><path style="opacity:1" fill="#858585" d="M 486.5,450.5 C 485.5,450.5 484.5,450.5 483.5,450.5C 484.246,446.69 485.246,446.69 486.5,450.5 Z"/></g>
<g><path style="opacity:1" fill="#1d1d1d" d="M 483.5,450.5 C 484.5,450.5 485.5,450.5 486.5,450.5C 488.345,451.995 488.678,453.662 487.5,455.5C 485.678,455.831 484.011,456.498 482.5,457.5C 481.903,456.861 481.07,456.528 480,456.5C 473.945,457.013 468.111,458.013 462.5,459.5C 461.778,459.918 461.278,460.584 461,461.5C 460.503,459.19 460.337,456.857 460.5,454.5C 461.791,454.737 462.791,454.404 463.5,453.5C 470.448,453.468 477.114,452.468 483.5,450.5 Z"/></g>
<g><path style="opacity:1" fill="#898989" d="M 560.5,439.5 C 560.695,446.189 560.862,452.856 561,459.5C 559.976,456.865 559.143,454.198 558.5,451.5C 559.167,447.5 559.833,443.5 560.5,439.5 Z"/></g>
<g><path style="opacity:1" fill="#656565" d="M 487.5,455.5 C 487.082,456.222 486.416,456.722 485.5,457C 486.71,458.039 487.71,459.206 488.5,460.5C 487.833,461.833 487.167,463.167 486.5,464.5C 486.813,461.163 485.48,458.829 482.5,457.5C 484.011,456.498 485.678,455.831 487.5,455.5 Z"/></g>
<g><path style="opacity:1" fill="#737373" d="M 871.5,455.5 C 872.167,460.833 872.833,466.167 873.5,471.5C 873.217,472.289 872.717,472.956 872,473.5C 871.501,467.509 871.334,461.509 871.5,455.5 Z"/></g>
<g><path style="opacity:1" fill="#b4b4b4" d="M 567.5,458.5 C 567.666,464.509 567.499,470.509 567,476.5C 566.283,475.956 565.783,475.289 565.5,474.5C 566.167,469.167 566.833,463.833 567.5,458.5 Z"/></g>
<g><path style="opacity:1" fill="#c8c8c8" d="M 463.5,453.5 C 462.791,454.404 461.791,454.737 460.5,454.5C 460.337,456.857 460.503,459.19 461,461.5C 461.278,460.584 461.778,459.918 462.5,459.5C 462.66,461.199 462.494,462.866 462,464.5C 461.333,465.833 460.667,465.833 460,464.5C 458.517,461.298 458.183,457.964 459,454.5C 460.356,453.62 461.856,453.286 463.5,453.5 Z"/></g>
<g><path style="opacity:1" fill="#969696" d="M 899.5,461.5 C 899.59,464.152 898.924,466.485 897.5,468.5C 897.41,465.848 898.076,463.515 899.5,461.5 Z"/></g>
<g><path style="opacity:1" fill="#b7b7b7" d="M 485.5,465.5 C 481.607,467.876 477.273,468.876 472.5,468.5C 476.59,466.925 480.923,465.925 485.5,465.5 Z"/></g>
<g><path style="opacity:1" fill="#1a1a1a" d="M 488.5,460.5 C 491.19,462.259 491.856,464.593 490.5,467.5C 486.868,470.841 482.535,472.508 477.5,472.5C 474.482,472.335 471.482,472.502 468.5,473C 466.671,473.273 465.171,474.107 464,475.5C 463.506,473.866 463.34,472.199 463.5,470.5C 466.727,470.324 469.727,469.657 472.5,468.5C 477.273,468.876 481.607,467.876 485.5,465.5C 486.167,465.5 486.5,465.167 486.5,464.5C 487.167,463.167 487.833,461.833 488.5,460.5 Z"/></g>
<g><path style="opacity:1" fill="#7d7d7d" d="M 472.5,468.5 C 469.727,469.657 466.727,470.324 463.5,470.5C 463.34,472.199 463.506,473.866 464,475.5C 465.171,474.107 466.671,473.273 468.5,473C 471.482,472.502 474.482,472.335 477.5,472.5C 473.946,473.249 470.28,474.082 466.5,475C 464.61,478.446 463.11,478.279 462,474.5C 461.506,472.866 461.34,471.199 461.5,469.5C 465.119,468.756 468.785,468.423 472.5,468.5 Z"/></g>
<g><path style="opacity:1" fill="#151515" d="M 950.5,474.5 C 950.5,475.167 950.5,475.833 950.5,476.5C 956.44,479.045 962.773,480.379 969.5,480.5C 971.369,480.493 973.036,480.16 974.5,479.5C 974.938,478.494 975.604,478.494 976.5,479.5C 976.5,481.167 976.5,482.833 976.5,484.5C 974.5,484.5 972.5,484.5 970.5,484.5C 963.43,482.886 956.43,482.553 949.5,483.5C 948.903,483.265 948.57,482.765 948.5,482C 949.016,479.331 949.683,476.831 950.5,474.5 Z"/></g>
<g><path style="opacity:1" fill="#777777" d="M 950.5,476.5 C 958.416,478.152 966.416,479.152 974.5,479.5C 973.036,480.16 971.369,480.493 969.5,480.5C 962.773,480.379 956.44,479.045 950.5,476.5 Z"/></g>
<g><path style="opacity:1" fill="#0e0e0e" d="M 833.5,531.5 C 830.899,534.604 828.066,537.604 825,540.5C 824.312,541.332 824.479,541.998 825.5,542.5C 829.213,539.116 832.879,535.783 836.5,532.5C 847.285,525.267 858.618,518.767 870.5,513C 878.479,507.357 884.645,500.191 889,491.5C 886.981,503.207 881.981,513.54 874,522.5C 869.232,527.769 864.066,532.435 858.5,536.5C 853.527,538.987 848.527,541.487 843.5,544C 832.36,546.398 821.36,548.731 810.5,551C 817.378,543.746 822.045,535.246 824.5,525.5C 828.837,507.161 836.67,490.495 848,475.5C 845.151,487.258 843.151,499.258 842,511.5C 840.518,518.791 837.685,525.458 833.5,531.5 Z"/></g>
<g><path style="opacity:1" fill="#878787" d="M 950.5,474.5 C 949.683,476.831 949.016,479.331 948.5,482C 948.57,482.765 948.903,483.265 949.5,483.5C 949.631,484.376 949.298,485.043 948.5,485.5C 947.504,481.446 947.838,477.446 949.5,473.5C 950.107,473.624 950.44,473.957 950.5,474.5 Z"/></g>
<g><path style="opacity:1" fill="#0e0e0e" d="M 603.5,534.5 C 606.165,538.161 609.498,541.161 613.5,543.5C 613.833,543.167 614.167,542.833 614.5,542.5C 610.369,538.888 606.703,534.888 603.5,530.5C 599.977,523.594 597.643,516.261 596.5,508.5C 596.354,504.613 595.687,500.946 594.5,497.5C 593.762,490.229 592.262,483.229 590,476.5C 602.498,493.299 611.165,511.966 616,532.5C 618.984,539.805 623.15,546.305 628.5,552C 589.283,551.246 562.949,532.579 549.5,496C 553.507,502.38 559.173,508.38 566.5,514C 578.888,520.858 591.221,527.691 603.5,534.5 Z"/></g>
<g><path style="opacity:1" fill="#6c6c6c" d="M 976.5,479.5 C 977.461,481.265 977.795,483.265 977.5,485.5C 972.846,485.395 972.346,486.729 976,489.5C 976.789,491.712 976.622,493.712 975.5,495.5C 975.819,493.25 975.319,491.25 974,489.5C 973.768,490.737 973.268,491.737 972.5,492.5C 972.713,489.549 972.046,486.882 970.5,484.5C 972.5,484.5 974.5,484.5 976.5,484.5C 976.5,482.833 976.5,481.167 976.5,479.5 Z"/></g>
<g><path style="opacity:1" fill="#171717" d="M 948.5,492.5 C 951.845,494.217 955.511,494.884 959.5,494.5C 963.514,494.666 967.514,494.499 971.5,494C 972.056,493.617 972.389,493.117 972.5,492.5C 973.268,491.737 973.768,490.737 974,489.5C 975.319,491.25 975.819,493.25 975.5,495.5C 974.373,496.122 973.373,496.955 972.5,498C 968.179,498.499 963.846,498.666 959.5,498.5C 958.833,498.5 958.167,498.5 957.5,498.5C 954.038,497.518 950.371,497.185 946.5,497.5C 946.5,495.833 946.5,494.167 946.5,492.5C 946.638,488.714 947.305,488.714 948.5,492.5 Z"/></g>
<g><path style="opacity:1" fill="#555555" d="M 948.5,492.5 C 952.387,492.646 956.054,493.313 959.5,494.5C 955.511,494.884 951.845,494.217 948.5,492.5 Z"/></g>
<g><path style="opacity:1" fill="#c2c2c2" d="M 864.5,487.5 C 864.216,489.415 864.549,491.081 865.5,492.5C 863.593,495.975 861.426,499.309 859,502.5C 860.531,497.409 862.364,492.409 864.5,487.5 Z"/></g>
<g><path style="opacity:1" fill="#747474" d="M 946.5,492.5 C 946.5,494.167 946.5,495.833 946.5,497.5C 950.371,497.185 954.038,497.518 957.5,498.5C 953.327,497.956 949.494,498.623 946,500.5C 945.199,497.633 945.366,494.966 946.5,492.5 Z"/></g>
<g><path style="opacity:1" fill="#525252" d="M 975.5,495.5 C 975.489,497.017 974.823,498.184 973.5,499C 968.648,499.815 963.981,499.648 959.5,498.5C 963.846,498.666 968.179,498.499 972.5,498C 973.373,496.955 974.373,496.122 975.5,495.5 Z"/></g>
<g><path style="opacity:1" fill="#1e1e1e" d="M 499.5,505.5 C 496.452,507.53 493.119,509.196 489.5,510.5C 486.784,510.678 484.117,511.178 481.5,512C 479.68,512.2 478.347,513.034 477.5,514.5C 474.796,516.787 472.796,515.954 471.5,512C 471.905,511.055 472.572,510.388 473.5,510C 481.654,508.502 489.488,506.002 497,502.5C 498.749,502.748 499.582,503.748 499.5,505.5 Z"/></g>
<g><path style="opacity:1" fill="#939393" d="M 594.5,497.5 C 595.687,500.946 596.354,504.613 596.5,508.5C 594.783,505.155 594.116,501.489 594.5,497.5 Z"/></g>
<g><path style="opacity:1" fill="#959595" d="M 499.5,505.5 C 501.3,506.895 501.634,508.561 500.5,510.5C 496.866,509.489 493.199,509.489 489.5,510.5C 493.119,509.196 496.452,507.53 499.5,505.5 Z"/></g>
<g><path style="opacity:1" fill="#b3b3b3" d="M 489.5,510.5 C 489.38,511.586 488.713,512.253 487.5,512.5C 484.148,513.169 480.815,513.836 477.5,514.5C 478.347,513.034 479.68,512.2 481.5,512C 484.117,511.178 486.784,510.678 489.5,510.5 Z"/></g>
<g><path style="opacity:1" fill="#272727" d="M 461.5,514.5 C 462.301,516.042 462.634,517.708 462.5,519.5C 460.708,519.634 459.042,519.301 457.5,518.5C 456.515,515.563 457.849,514.229 461.5,514.5 Z"/></g>
<g><path style="opacity:1" fill="#b8b8b8" d="M 461.5,514.5 C 464.492,515.132 465.159,516.799 463.5,519.5C 462.5,519.833 461.5,520.167 460.5,520.5C 458.97,520.36 457.97,519.693 457.5,518.5C 459.042,519.301 460.708,519.634 462.5,519.5C 462.634,517.708 462.301,516.042 461.5,514.5 Z"/></g>
<g><path style="opacity:1" fill="#101010" d="M 820.5,521.5 C 816.634,529.896 812.467,538.229 808,546.5C 804.897,550.114 801.397,553.114 797.5,555.5C 793.634,556.548 789.967,558.048 786.5,560C 791.565,560.258 796.565,559.758 801.5,558.5C 809.028,557.926 816.361,556.926 823.5,555.5C 837.588,555.641 849.754,550.974 860,541.5C 860.399,541.728 860.565,542.062 860.5,542.5C 843.716,567.727 820.716,576.394 791.5,568.5C 789.485,567.076 787.152,566.41 784.5,566.5C 777.735,565.142 771.069,563.476 764.5,561.5C 772.933,559.616 780.6,556.116 787.5,551C 798.667,538.5 810.5,526.667 823,515.5C 822.549,517.52 821.716,519.52 820.5,521.5 Z"/></g>
<g><path style="opacity:1" fill="#0e0e0e" d="M 666.5,559.5 C 668.019,560.41 669.685,561.243 671.5,562C 670.584,562.278 669.918,562.778 669.5,563.5C 657.653,566.903 645.653,569.737 633.5,572C 618.654,573.623 605.32,569.956 593.5,561C 587.946,555.949 582.946,550.449 578.5,544.5C 578.833,544.167 579.167,543.833 579.5,543.5C 584.703,549.769 591.369,553.436 599.5,554.5C 601.954,555.621 604.621,556.454 607.5,557C 615.848,557.378 624.181,557.878 632.5,558.5C 634.167,558.5 635.833,558.5 637.5,558.5C 642.486,560.904 647.819,561.738 653.5,561C 649.338,559.781 645.338,558.281 641.5,556.5C 636.898,553.733 633.064,550.066 630,545.5C 625.248,536.509 620.915,527.509 617,518.5C 629.186,528.353 640.352,539.187 650.5,551C 655.126,555.147 660.459,557.98 666.5,559.5 Z"/></g>
<g><path style="opacity:1" fill="#ececec" d="M 820.5,521.5 C 820.525,524.179 821.858,525.512 824.5,525.5C 822.045,535.246 817.378,543.746 810.5,551C 821.36,548.731 832.36,546.398 843.5,544C 848.527,541.487 853.527,538.987 858.5,536.5C 859.335,537.943 860.668,538.943 862.5,539.5C 862.058,540.739 861.391,541.739 860.5,542.5C 860.565,542.062 860.399,541.728 860,541.5C 849.754,550.974 837.588,555.641 823.5,555.5C 816.117,555.673 808.783,556.34 801.5,557.5C 799.801,557.66 798.134,557.494 796.5,557C 797.056,556.617 797.389,556.117 797.5,555.5C 801.397,553.114 804.897,550.114 808,546.5C 812.467,538.229 816.634,529.896 820.5,521.5 Z"/></g>
<g><path style="opacity:1" fill="#6d6d6d" d="M 938.5,526.5 C 933.499,525.671 931.332,527.671 932,532.5C 932.383,531.944 932.883,531.611 933.5,531.5C 933.657,532.873 933.49,534.207 933,535.5C 930.67,533.336 930.003,530.669 931,527.5C 933.357,525.354 935.857,525.021 938.5,526.5 Z"/></g>
<g><path style="opacity:1" fill="#1f1f1f" d="M 938.5,526.5 C 944.751,528.648 951.085,530.648 957.5,532.5C 958.672,532.081 959.672,531.415 960.5,530.5C 961.662,533.494 963.329,536.16 965.5,538.5C 963.56,539.528 961.56,539.528 959.5,538.5C 957.468,539.551 956.135,541.217 955.5,543.5C 954.453,542.078 954.453,540.578 955.5,539C 955.241,537.739 954.574,536.739 953.5,536C 946.944,532.854 940.277,531.354 933.5,531.5C 932.883,531.611 932.383,531.944 932,532.5C 931.332,527.671 933.499,525.671 938.5,526.5 Z"/></g>
<g><path style="opacity:1" fill="#cecece" d="M 603.5,530.5 C 606.703,534.888 610.369,538.888 614.5,542.5C 614.167,542.833 613.833,543.167 613.5,543.5C 609.498,541.161 606.165,538.161 603.5,534.5C 604.405,533.298 604.405,531.964 603.5,530.5 Z"/></g>
<g><path style="opacity:1" fill="#c0c0c0" d="M 833.5,531.5 C 834.209,532.404 835.209,532.737 836.5,532.5C 832.879,535.783 829.213,539.116 825.5,542.5C 824.479,541.998 824.312,541.332 825,540.5C 828.066,537.604 830.899,534.604 833.5,531.5 Z"/></g>
<g><path style="opacity:1" fill="#1d1d1d" d="M 514.5,540.5 C 514.5,541.167 514.167,541.5 513.5,541.5C 504.523,541.503 498.19,545.503 494.5,553.5C 493.71,554.609 493.21,555.942 493,557.5C 491.921,554.937 491.421,552.271 491.5,549.5C 494.065,541.951 499.398,538.285 507.5,538.5C 510.078,538.442 512.411,539.109 514.5,540.5 Z"/></g>
<g><path style="opacity:1" fill="#efefef" d="M 513.5,541.5 C 516.389,543.277 517.722,545.944 517.5,549.5C 514.751,554.585 510.751,558.252 505.5,560.5C 502.421,560.74 499.421,560.407 496.5,559.5C 494.914,557.827 494.247,555.827 494.5,553.5C 498.19,545.503 504.523,541.503 513.5,541.5 Z"/></g>
<g><path style="opacity:1" fill="#515151" d="M 514.5,540.5 C 517.189,541.189 518.856,542.856 519.5,545.5C 518.833,546.833 518.167,548.167 517.5,549.5C 517.722,545.944 516.389,543.277 513.5,541.5C 514.167,541.5 514.5,541.167 514.5,540.5 Z"/></g>
<g><path style="opacity:1" fill="#202020" d="M 519.5,545.5 C 521.762,548.181 522.096,551.181 520.5,554.5C 518.196,557.141 515.862,559.808 513.5,562.5C 510.246,563.479 506.913,564.146 503.5,564.5C 501.117,564.639 499.117,563.972 497.5,562.5C 500.167,561.833 502.833,561.167 505.5,560.5C 510.751,558.252 514.751,554.585 517.5,549.5C 518.167,548.167 518.833,546.833 519.5,545.5 Z"/></g>
<g><path style="opacity:1" fill="#adadad" d="M 599.5,554.5 C 610.684,555.482 621.684,556.816 632.5,558.5C 624.181,557.878 615.848,557.378 607.5,557C 604.621,556.454 601.954,555.621 599.5,554.5 Z"/></g>
<g><path style="opacity:1" fill="#626262" d="M 823.5,555.5 C 816.361,556.926 809.028,557.926 801.5,558.5C 801.5,558.167 801.5,557.833 801.5,557.5C 808.783,556.34 816.117,555.673 823.5,555.5 Z"/></g>
<g><path style="opacity:1" fill="#6c6c6c" d="M 491.5,549.5 C 491.421,552.271 491.921,554.937 493,557.5C 493.21,555.942 493.71,554.609 494.5,553.5C 494.247,555.827 494.914,557.827 496.5,559.5C 499.421,560.407 502.421,560.74 505.5,560.5C 502.833,561.167 500.167,561.833 497.5,562.5C 495.349,560.85 493.349,559.017 491.5,557C 490.284,554.347 490.284,551.847 491.5,549.5 Z"/></g>
<g><path style="opacity:1" fill="#979797" d="M 520.5,554.5 C 519.569,558.429 517.236,561.095 513.5,562.5C 515.862,559.808 518.196,557.141 520.5,554.5 Z"/></g>
<g><path style="opacity:1" fill="#bebebe" d="M 641.5,556.5 C 645.338,558.281 649.338,559.781 653.5,561C 647.819,561.738 642.486,560.904 637.5,558.5C 639.199,558.66 640.866,558.494 642.5,558C 641.944,557.617 641.611,557.117 641.5,556.5 Z"/></g>
<g><path style="opacity:1" fill="#bcbcbc" d="M 797.5,555.5 C 797.389,556.117 797.056,556.617 796.5,557C 798.134,557.494 799.801,557.66 801.5,557.5C 801.5,557.833 801.5,558.167 801.5,558.5C 796.565,559.758 791.565,560.258 786.5,560C 789.967,558.048 793.634,556.548 797.5,555.5 Z"/></g>
<g><path style="opacity:1" fill="#909090" d="M 917.5,562.5 C 915.629,562.141 914.129,561.141 913,559.5C 912.34,561.324 911.173,562.657 909.5,563.5C 910.423,560.66 912.09,558.326 914.5,556.5C 915.206,558.704 916.206,560.704 917.5,562.5 Z"/></g>
<g><path style="opacity:1" fill="#151515" d="M 917.5,562.5 C 921.833,565.669 926.5,568.336 931.5,570.5C 932.209,571.404 933.209,571.737 934.5,571.5C 934.923,573.781 934.256,575.448 932.5,576.5C 926.003,573.086 919.67,569.419 913.5,565.5C 912.167,564.833 910.833,564.167 909.5,563.5C 911.173,562.657 912.34,561.324 913,559.5C 914.129,561.141 915.629,562.141 917.5,562.5 Z"/></g>
<g><path style="opacity:1" fill="#868686" d="M 746.5,562.5 C 738.381,562.114 730.381,562.781 722.5,564.5C 724.277,563.4 726.277,562.566 728.5,562C 734.681,561.181 740.681,561.347 746.5,562.5 Z"/></g>
<g><path style="opacity:1" fill="#868686" d="M 666.5,559.5 C 669.85,559.506 672.85,560.506 675.5,562.5C 673.604,563.466 671.604,563.799 669.5,563.5C 669.918,562.778 670.584,562.278 671.5,562C 669.685,561.243 668.019,560.41 666.5,559.5 Z"/></g>
<g><path style="opacity:1" fill="#353535" d="M 711.5,563.5 C 702.8,563.289 694.133,563.623 685.5,564.5C 685.611,563.883 685.944,563.383 686.5,563C 695.01,562.177 703.344,562.343 711.5,563.5 Z"/></g>
<g><path style="opacity:1" fill="#0e0e0e" d="M 746.5,562.5 C 758.266,564.046 769.266,567.879 779.5,574C 784.111,575.812 788.777,577.312 793.5,578.5C 794.263,579.268 795.263,579.768 796.5,580C 803.5,580.667 810.5,580.667 817.5,580C 818.416,579.722 819.082,579.222 819.5,578.5C 823.156,577.002 826.822,575.836 830.5,575C 823.794,581.68 816.127,586.846 807.5,590.5C 797.411,592.087 787.411,591.754 777.5,589.5C 766.502,585.157 756.502,578.991 747.5,571C 744.929,569.546 742.262,568.38 739.5,567.5C 736.038,566.518 732.371,566.185 728.5,566.5C 728.263,567.791 728.596,568.791 729.5,569.5C 743.459,576.745 755.959,586.078 767,597.5C 766.454,600.093 764.954,602.26 762.5,604C 757.383,601.231 753.049,597.231 749.5,592C 744.5,587.667 739.5,583.333 734.5,579C 729.852,575.762 725.018,572.929 720,570.5C 703.336,578.485 689.67,590.151 679,605.5C 676.815,604.072 674.815,602.405 673,600.5C 672.333,599.5 672.333,598.5 673,597.5C 684.588,585.726 697.422,575.726 711.5,567.5C 709.696,566.838 707.696,566.505 705.5,566.5C 702.473,566.287 699.807,566.953 697.5,568.5C 690.21,572.82 683.21,577.653 676.5,583C 671.484,585.607 666.484,588.107 661.5,590.5C 652.236,592.662 642.903,592.996 633.5,591.5C 623.816,588.676 615.483,583.51 608.5,576C 609.5,575.333 610.5,575.333 611.5,576C 612.471,577.481 613.804,578.315 615.5,578.5C 617.102,580.074 619.102,580.741 621.5,580.5C 630.789,582.02 640.122,581.52 649.5,579C 657.681,574.743 666.014,570.743 674.5,567C 678.121,565.862 681.788,565.028 685.5,564.5C 694.133,563.623 702.8,563.289 711.5,563.5C 714.322,563.678 716.989,564.345 719.5,565.5C 720.726,565.48 721.726,565.147 722.5,564.5C 730.381,562.781 738.381,562.114 746.5,562.5 Z"/></g>
<g><path style="opacity:1" fill="#737373" d="M 909.5,563.5 C 910.833,564.167 912.167,564.833 913.5,565.5C 911.738,565.357 910.071,565.691 908.5,566.5C 907.335,565.14 907.668,564.14 909.5,563.5 Z"/></g>
<g><path style="opacity:1" fill="#888888" d="M 711.5,567.5 C 706.797,567.437 702.13,567.771 697.5,568.5C 699.807,566.953 702.473,566.287 705.5,566.5C 707.696,566.505 709.696,566.838 711.5,567.5 Z"/></g>
<g><path style="opacity:1" fill="#636363" d="M 739.5,567.5 C 735.671,566.931 732.337,567.598 729.5,569.5C 728.596,568.791 728.263,567.791 728.5,566.5C 732.371,566.185 736.038,566.518 739.5,567.5 Z"/></g>
<g><path style="opacity:1" fill="#717171" d="M 784.5,566.5 C 787.152,566.41 789.485,567.076 791.5,568.5C 788.848,568.59 786.515,567.924 784.5,566.5 Z"/></g>
<g><path style="opacity:1" fill="#565656" d="M 932.5,576.5 C 934.256,575.448 934.923,573.781 934.5,571.5C 933.209,571.737 932.209,571.404 931.5,570.5C 933.39,570.703 934.89,570.037 936,568.5C 936.495,571.531 936.329,574.531 935.5,577.5C 934.209,577.737 933.209,577.404 932.5,576.5 Z"/></g>
<g><path style="opacity:1" fill="#b1b1b1" d="M 564.5,578.5 C 563.1,579.1 562.1,580.1 561.5,581.5C 561.617,579.516 560.95,577.85 559.5,576.5C 561.931,575.214 563.597,575.881 564.5,578.5 Z"/></g>
<g><path style="opacity:1" fill="#9e9e9e" d="M 615.5,578.5 C 617.898,578.259 619.898,578.926 621.5,580.5C 619.102,580.741 617.102,580.074 615.5,578.5 Z"/></g>
<g><path style="opacity:1" fill="#9f9f9f" d="M 793.5,578.5 C 802.174,579.799 810.84,579.799 819.5,578.5C 819.082,579.222 818.416,579.722 817.5,580C 810.5,580.667 803.5,580.667 796.5,580C 795.263,579.768 794.263,579.268 793.5,578.5 Z"/></g>
<g><path style="opacity:1" fill="#141414" d="M 947.5,579.5 C 948.833,580.833 948.833,582.167 947.5,583.5C 946.5,583.5 945.5,583.5 944.5,583.5C 944.5,582.167 944.5,580.833 944.5,579.5C 945.5,579.5 946.5,579.5 947.5,579.5 Z"/></g>
<g><path style="opacity:1" fill="#5f5f5f" d="M 947.5,579.5 C 946.5,579.5 945.5,579.5 944.5,579.5C 944.5,580.833 944.5,582.167 944.5,583.5C 945.5,583.5 946.5,583.5 947.5,583.5C 943.014,585.177 941.681,583.677 943.5,579C 945.066,578.235 946.399,578.402 947.5,579.5 Z"/></g>
<g><path style="opacity:1" fill="#191919" d="M 544.5,580.5 C 544.167,581.167 543.833,581.833 543.5,582.5C 537.064,584.435 532.731,588.602 530.5,595C 530.613,597.399 531.613,599.232 533.5,600.5C 534.85,601.65 534.684,602.317 533,602.5C 531.234,601.767 529.401,601.433 527.5,601.5C 523.39,593.18 525.39,586.68 533.5,582C 537.086,580.892 540.753,580.392 544.5,580.5 Z"/></g>
<g><path style="opacity:1" fill="#eeeeee" d="M 543.5,582.5 C 548.535,582.868 551.202,585.535 551.5,590.5C 548.833,593.833 545.833,596.833 542.5,599.5C 539.609,600.403 536.609,600.736 533.5,600.5C 531.613,599.232 530.613,597.399 530.5,595C 532.731,588.602 537.064,584.435 543.5,582.5 Z"/></g>
<g><path style="opacity:1" fill="#545454" d="M 544.5,580.5 C 548.938,580.933 551.938,583.267 553.5,587.5C 552.833,588.5 552.167,589.5 551.5,590.5C 551.202,585.535 548.535,582.868 543.5,582.5C 543.833,581.833 544.167,581.167 544.5,580.5 Z"/></g>
<g><path style="opacity:1" fill="#9c9c9c" d="M 888.5,590.5 C 887.833,589.5 887.167,588.5 886.5,587.5C 887.14,585.668 888.14,585.335 889.5,586.5C 888.754,587.736 888.421,589.07 888.5,590.5 Z"/></g>
<g><path style="opacity:1" fill="#191919" d="M 564.5,578.5 C 564.833,579.5 565.5,580.167 566.5,580.5C 566.953,581.458 567.619,582.292 568.5,583C 565.428,583.907 563.095,585.74 561.5,588.5C 558.785,590.548 556.452,592.882 554.5,595.5C 550.9,597.43 547.9,600.097 545.5,603.5C 544.5,603.833 543.833,604.5 543.5,605.5C 541.952,605.821 541.285,606.821 541.5,608.5C 539.571,608.769 537.905,608.269 536.5,607C 538.118,604.057 540.118,601.557 542.5,599.5C 545.833,596.833 548.833,593.833 551.5,590.5C 552.167,589.5 552.833,588.5 553.5,587.5C 556.431,585.909 559.098,583.909 561.5,581.5C 562.1,580.1 563.1,579.1 564.5,578.5 Z"/></g>
<g><path style="opacity:1" fill="#b0b0b0" d="M 566.5,580.5 C 568.729,581.055 570.395,582.389 571.5,584.5C 569.979,584.88 568.313,585.046 566.5,585C 565.211,586.802 563.544,587.969 561.5,588.5C 563.095,585.74 565.428,583.907 568.5,583C 567.619,582.292 566.953,581.458 566.5,580.5 Z"/></g>
<g><path style="opacity:1" fill="#1e1e1e" d="M 886.5,587.5 C 887.167,588.5 887.833,589.5 888.5,590.5C 891.567,594.204 895.234,597.204 899.5,599.5C 901.036,602.092 903.369,603.092 906.5,602.5C 906.5,603.5 906.5,604.5 906.5,605.5C 904.664,608.997 902.33,609.33 899.5,606.5C 898.833,605.833 898.167,605.167 897.5,604.5C 892.092,600.075 886.759,595.742 881.5,591.5C 883.167,590.167 884.833,588.833 886.5,587.5 Z"/></g>
<g><path style="opacity:1" fill="#777777" d="M 777.5,589.5 C 787.411,591.754 797.411,592.087 807.5,590.5C 803.104,592.033 798.437,592.7 793.5,592.5C 787.752,592.964 782.419,591.964 777.5,589.5 Z"/></g>
<g><path style="opacity:1" fill="#696969" d="M 661.5,590.5 C 659.852,591.927 657.852,592.76 655.5,593C 649.167,593.667 642.833,593.667 636.5,593C 635.263,592.768 634.263,592.268 633.5,591.5C 642.903,592.996 652.236,592.662 661.5,590.5 Z"/></g>
<g><path style="opacity:1" fill="#ebebeb" d="M 881.5,591.5 C 886.759,595.742 892.092,600.075 897.5,604.5C 898.359,610.814 895.692,613.481 889.5,612.5C 884.868,609.202 880.534,605.536 876.5,601.5C 877.096,599.602 877.096,597.935 876.5,596.5C 877.234,595.292 877.567,593.959 877.5,592.5C 878.959,592.567 880.292,592.234 881.5,591.5 Z"/></g>
<g><path style="opacity:1" fill="#a9a9a9" d="M 554.5,595.5 C 552.1,598.903 549.1,601.57 545.5,603.5C 547.9,600.097 550.9,597.43 554.5,595.5 Z"/></g>
<g><path style="opacity:1" fill="#818181" d="M 876.5,596.5 C 877.096,597.935 877.096,599.602 876.5,601.5C 875.778,600.449 874.778,599.782 873.5,599.5C 874.167,598.167 875.167,597.167 876.5,596.5 Z"/></g>
<g><path style="opacity:1" fill="#b6b6b6" d="M 899.5,599.5 C 901.094,599.92 902.594,600.586 904,601.5C 905.44,600.852 906.94,600.519 908.5,600.5C 908.598,602.553 907.931,604.22 906.5,605.5C 906.5,604.5 906.5,603.5 906.5,602.5C 903.369,603.092 901.036,602.092 899.5,599.5 Z"/></g>
<g><path style="opacity:1" fill="#666666" d="M 542.5,599.5 C 540.118,601.557 538.118,604.057 536.5,607C 537.905,608.269 539.571,608.769 541.5,608.5C 541.285,606.821 541.952,605.821 543.5,605.5C 542.193,606.802 542.193,608.135 543.5,609.5C 540.965,610.253 538.465,609.92 536,608.5C 535.289,606.633 535.789,605.133 537.5,604C 533.821,603.974 530.488,603.14 527.5,601.5C 529.401,601.433 531.234,601.767 533,602.5C 534.684,602.317 534.85,601.65 533.5,600.5C 536.609,600.736 539.609,600.403 542.5,599.5 Z"/></g>
<g><path style="opacity:1" fill="#727272" d="M 897.5,604.5 C 898.167,605.167 898.833,605.833 899.5,606.5C 899.664,609.187 899.497,611.854 899,614.5C 898.617,615.056 898.117,615.389 897.5,615.5C 898.218,613.863 898.384,612.197 898,610.5C 897.626,611.416 897.126,612.25 896.5,613C 893.961,613.796 891.628,613.629 889.5,612.5C 895.692,613.481 898.359,610.814 897.5,604.5 Z"/></g>
<g><path style="opacity:1" fill="#1a1a1a" d="M 873.5,599.5 C 874.778,599.782 875.778,600.449 876.5,601.5C 880.534,605.536 884.868,609.202 889.5,612.5C 891.628,613.629 893.961,613.796 896.5,613C 897.126,612.25 897.626,611.416 898,610.5C 898.384,612.197 898.218,613.863 897.5,615.5C 894.482,617.463 891.149,617.963 887.5,617C 881.683,612.682 876.016,608.182 870.5,603.5C 871.035,601.739 872.035,600.406 873.5,599.5 Z"/></g>
<g><path style="opacity:1" fill="#212121" d="M 582.5,613.5 C 595.662,612.646 599.996,618.313 595.5,630.5C 592.905,634.126 589.572,636.792 585.5,638.5C 584.127,638.657 582.793,638.49 581.5,638C 582.056,637.617 582.389,637.117 582.5,636.5C 589.932,633.044 592.432,627.377 590,619.5C 588.729,618.117 587.229,617.117 585.5,616.5C 584.391,615.71 583.058,615.21 581.5,615C 582.056,614.617 582.389,614.117 582.5,613.5 Z"/></g>
<g><path style="opacity:1" fill="#737373" d="M 582.5,613.5 C 582.389,614.117 582.056,614.617 581.5,615C 583.058,615.21 584.391,615.71 585.5,616.5C 582.38,616.156 579.547,616.823 577,618.5C 576.5,618.167 576,617.833 575.5,617.5C 577.4,615.384 579.733,614.051 582.5,613.5 Z"/></g>
<g><path style="opacity:1" fill="#3f3f3f" d="M 845.5,623.5 C 842.5,622.833 839.5,622.167 836.5,621.5C 839.011,620.606 841.511,619.606 844,618.5C 845.944,619.688 847.444,621.354 848.5,623.5C 847.386,624.776 846.386,624.776 845.5,623.5 Z"/></g>
<g><path style="opacity:1" fill="#7d7d7d" d="M 836.5,621.5 C 839.5,622.167 842.5,622.833 845.5,623.5C 842.102,623.18 838.768,623.513 835.5,624.5C 834.691,626.071 834.357,627.738 834.5,629.5C 833.71,628.391 833.21,627.058 833,625.5C 832.617,626.056 832.117,626.389 831.5,626.5C 832.167,623.833 833.833,622.167 836.5,621.5 Z"/></g>
<g><path style="opacity:1" fill="#1b1b1b" d="M 574.5,627.5 C 574.813,630.247 574.48,632.914 573.5,635.5C 570.828,633.575 569.828,630.908 570.5,627.5C 571.833,626.167 573.167,626.167 574.5,627.5 Z"/></g>
<g><path style="opacity:1" fill="#1e1e1e" d="M 834.5,629.5 C 834.611,630.117 834.944,630.617 835.5,631C 841.867,631.293 848.2,631.793 854.5,632.5C 855.379,634.228 856.046,636.061 856.5,638C 856.333,638.833 856.167,639.667 856,640.5C 855.768,639.263 855.268,638.263 854.5,637.5C 847.833,636.833 841.167,636.167 834.5,635.5C 831.924,633.112 830.924,630.112 831.5,626.5C 832.117,626.389 832.617,626.056 833,625.5C 833.21,627.058 833.71,628.391 834.5,629.5 Z"/></g>
<g><path style="opacity:1" fill="#bababa" d="M 831.5,626.5 C 830.924,630.112 831.924,633.112 834.5,635.5C 829.35,633.698 828.35,630.698 831.5,626.5 Z"/></g>
<g><path style="opacity:1" fill="#797979" d="M 834.5,629.5 C 840.452,630.248 846.452,630.748 852.5,631C 853.416,631.278 854.082,631.778 854.5,632.5C 848.2,631.793 841.867,631.293 835.5,631C 834.944,630.617 834.611,630.117 834.5,629.5 Z"/></g>
<g><path style="opacity:1" fill="#9e9e9e" d="M 641.5,637.5 C 637.269,635.515 632.936,635.182 628.5,636.5C 628.611,635.883 628.944,635.383 629.5,635C 633.261,634.262 636.928,634.595 640.5,636C 641.056,636.383 641.389,636.883 641.5,637.5 Z"/></g>
<g><path style="opacity:1" fill="#717171" d="M 570.5,627.5 C 569.828,630.908 570.828,633.575 573.5,635.5C 574.48,632.914 574.813,630.247 574.5,627.5C 575.317,629.969 575.817,632.635 576,635.5C 578.041,636.423 580.208,636.756 582.5,636.5C 582.389,637.117 582.056,637.617 581.5,638C 582.793,638.49 584.127,638.657 585.5,638.5C 580.494,640.252 575.828,639.419 571.5,636C 569.327,633.302 568.994,630.469 570.5,627.5 Z"/></g>
<g><path style="opacity:1" fill="#171717" d="M 641.5,637.5 C 643.61,638.95 644.943,640.95 645.5,643.5C 646.215,649.707 644.215,654.707 639.5,658.5C 638.833,658.5 638.5,658.167 638.5,657.5C 639.537,656.07 640.204,654.403 640.5,652.5C 640.665,649.482 640.498,646.482 640,643.5C 638.961,642.29 637.794,641.29 636.5,640.5C 635.791,639.596 634.791,639.263 633.5,639.5C 631.708,638.691 629.708,638.191 627.5,638C 628.056,637.617 628.389,637.117 628.5,636.5C 632.936,635.182 637.269,635.515 641.5,637.5 Z"/></g>
<g><path style="opacity:1" fill="#747474" d="M 628.5,636.5 C 628.389,637.117 628.056,637.617 627.5,638C 629.708,638.191 631.708,638.691 633.5,639.5C 629.861,639.11 626.695,640.11 624,642.5C 623.713,639.273 625.213,637.273 628.5,636.5 Z"/></g>
<g><path style="opacity:1" fill="#1e1e1e" d="M 803.5,663.5 C 802.662,663.158 802.328,662.492 802.5,661.5C 804.208,652.584 800.874,646.251 792.5,642.5C 791.5,641.833 790.5,641.167 789.5,640.5C 795.656,639.549 800.989,641.549 805.5,646.5C 808.526,652.623 807.86,658.289 803.5,663.5 Z"/></g>
<g><path style="opacity:1" fill="#515151" d="M 789.5,640.5 C 790.5,641.167 791.5,641.833 792.5,642.5C 785.833,641.833 782.833,644.833 783.5,651.5C 782.698,650.048 782.198,648.382 782,646.5C 781.617,647.056 781.117,647.389 780.5,647.5C 782.062,643.267 785.062,640.933 789.5,640.5 Z"/></g>
<g><path style="opacity:1" fill="#eeeeee" d="M 792.5,642.5 C 800.874,646.251 804.208,652.584 802.5,661.5C 800.112,664.076 797.112,665.076 793.5,664.5C 788.98,661.15 785.647,656.817 783.5,651.5C 782.833,644.833 785.833,641.833 792.5,642.5 Z"/></g>
<g><path style="opacity:1" fill="#5b5b5b" d="M 854.5,632.5 C 858.498,636.137 858.498,639.97 854.5,644C 851.442,645.015 848.442,646.181 845.5,647.5C 844.167,645.833 842.833,644.167 841.5,642.5C 842.576,641.344 843.576,641.511 844.5,643C 847.916,643.893 851.083,643.393 854,641.5C 854.49,640.207 854.657,638.873 854.5,637.5C 855.268,638.263 855.768,639.263 856,640.5C 856.167,639.667 856.333,638.833 856.5,638C 856.046,636.061 855.379,634.228 854.5,632.5 Z"/></g>
<g><path style="opacity:1" fill="#1f1f1f" d="M 783.5,651.5 C 785.647,656.817 788.98,661.15 793.5,664.5C 794.5,665.167 795.5,665.833 796.5,666.5C 788.479,667.365 782.979,663.698 780,655.5C 779.199,652.633 779.366,649.966 780.5,647.5C 781.117,647.389 781.617,647.056 782,646.5C 782.198,648.382 782.698,650.048 783.5,651.5 Z"/></g>
<g><path style="opacity:1" fill="#656565" d="M 695.5,649.5 C 694.761,649.369 694.094,649.536 693.5,650C 694.416,650.278 695.082,650.778 695.5,651.5C 690.184,649.324 685.684,650.324 682,654.5C 681.51,655.793 681.343,657.127 681.5,658.5C 679.798,654.946 680.798,652.113 684.5,650C 683.552,649.517 682.552,649.351 681.5,649.5C 683.462,647.983 685.795,647.316 688.5,647.5C 691.205,647.316 693.538,647.983 695.5,649.5 Z"/></g>
<g><path style="opacity:1" fill="#1d1d1d" d="M 620.5,649.5 C 624.262,649.306 625.929,651.14 625.5,655C 625.431,656.986 624.765,658.486 623.5,659.5C 621.762,657.421 620.429,655.088 619.5,652.5C 619.52,651.274 619.853,650.274 620.5,649.5 Z"/></g>
<g><path style="opacity:1" fill="#c3c3c3" d="M 636.5,640.5 C 637.794,641.29 638.961,642.29 640,643.5C 640.498,646.482 640.665,649.482 640.5,652.5C 637.612,653.078 634.612,653.078 631.5,652.5C 630.5,651.833 629.5,651.167 628.5,650.5C 632.154,650.942 635.821,651.276 639.5,651.5C 639.663,649.143 639.497,646.81 639,644.5C 637.519,643.529 636.685,642.196 636.5,640.5 Z"/></g>
<g><path style="opacity:1" fill="#212121" d="M 695.5,649.5 C 696.167,649.5 696.833,649.5 697.5,649.5C 699.292,650.309 701.292,650.809 703.5,651C 702.736,653.069 702.236,655.236 702,657.5C 701.004,655.34 699.504,653.673 697.5,652.5C 696.833,652.167 696.167,651.833 695.5,651.5C 695.082,650.778 694.416,650.278 693.5,650C 694.094,649.536 694.761,649.369 695.5,649.5 Z"/></g>
<g><path style="opacity:1" fill="#e1e1e1" d="M 631.5,652.5 C 633.148,653.927 635.148,654.76 637.5,655C 638.252,655.671 638.586,656.504 638.5,657.5C 635.66,660.143 632.327,660.976 628.5,660C 626.722,657.865 626.055,655.365 626.5,652.5C 628.167,652.5 629.833,652.5 631.5,652.5 Z"/></g>
<g><path style="opacity:1" fill="#5a5a5a" d="M 631.5,652.5 C 634.612,653.078 637.612,653.078 640.5,652.5C 640.204,654.403 639.537,656.07 638.5,657.5C 638.586,656.504 638.252,655.671 637.5,655C 635.148,654.76 633.148,653.927 631.5,652.5 Z"/></g>
<g><path style="opacity:1" fill="#191919" d="M 681.5,649.5 C 682.552,649.351 683.552,649.517 684.5,650C 680.798,652.113 679.798,654.946 681.5,658.5C 682.625,660.129 683.959,661.629 685.5,663C 690.926,666.129 696.093,669.629 701,673.5C 703.156,678.858 701.656,682.858 696.5,685.5C 695.833,685.5 695.5,685.167 695.5,684.5C 697.333,682.504 697.833,680.171 697,677.5C 691.618,673.888 686.118,670.388 680.5,667C 678.536,665.549 677.203,663.716 676.5,661.5C 676.368,658.43 676.701,655.43 677.5,652.5C 678.262,650.738 679.596,649.738 681.5,649.5 Z"/></g>
<g><path style="opacity:1" fill="#848484" d="M 697.5,652.5 C 699.504,653.673 701.004,655.34 702,657.5C 702.236,655.236 702.736,653.069 703.5,651C 701.292,650.809 699.292,650.309 697.5,649.5C 699.591,649.682 701.591,649.348 703.5,648.5C 704.68,652.59 704.346,656.59 702.5,660.5C 700.835,657.848 699.168,655.181 697.5,652.5 Z"/></g>
<g><path style="opacity:1" fill="#646464" d="M 677.5,652.5 C 676.701,655.43 676.368,658.43 676.5,661.5C 675.053,660.866 674.387,659.699 674.5,658C 674.613,655.601 675.613,653.768 677.5,652.5 Z"/></g>
<g><path style="opacity:1" fill="#555555" d="M 620.5,649.5 C 623.217,648.233 625.883,648.566 628.5,650.5C 629.5,651.167 630.5,651.833 631.5,652.5C 629.833,652.5 628.167,652.5 626.5,652.5C 626.055,655.365 626.722,657.865 628.5,660C 632.327,660.976 635.66,660.143 638.5,657.5C 638.5,658.167 638.833,658.5 639.5,658.5C 638.942,659.79 637.942,660.623 636.5,661C 633.183,661.498 629.85,661.665 626.5,661.5C 625.29,661.068 624.29,660.401 623.5,659.5C 624.765,658.486 625.431,656.986 625.5,655C 625.929,651.14 624.262,649.306 620.5,649.5 Z"/></g>
<g><path style="opacity:1" fill="#bfbfbf" d="M 645.5,643.5 C 646.641,646.64 646.808,649.973 646,653.5C 644.023,656.312 641.856,658.978 639.5,661.5C 635.016,662.811 630.683,662.811 626.5,661.5C 629.85,661.665 633.183,661.498 636.5,661C 637.942,660.623 638.942,659.79 639.5,658.5C 644.215,654.707 646.215,649.707 645.5,643.5 Z"/></g>
<g><path style="opacity:1" fill="#616161" d="M 802.5,661.5 C 802.328,662.492 802.662,663.158 803.5,663.5C 801.574,665.293 799.241,666.293 796.5,666.5C 795.5,665.833 794.5,665.167 793.5,664.5C 797.112,665.076 800.112,664.076 802.5,661.5 Z"/></g>
<g><path style="opacity:1" fill="#bfbfbf" d="M 683.5,683.5 C 680.383,681.857 678.55,679.191 678,675.5C 677.262,677.953 676.762,680.453 676.5,683C 676.608,684.681 677.275,685.848 678.5,686.5C 677.791,687.404 676.791,687.737 675.5,687.5C 675.174,683.116 675.508,678.783 676.5,674.5C 677.167,674.167 677.833,673.833 678.5,673.5C 680.198,676.896 681.865,680.229 683.5,683.5 Z"/></g>
<g><path style="opacity:1" fill="#393939" d="M 683.5,683.5 C 683.611,684.117 683.944,684.617 684.5,685C 688.221,685.678 691.888,685.511 695.5,684.5C 695.5,685.167 695.833,685.5 696.5,685.5C 691.149,688.102 685.649,688.102 680,685.5C 679.235,685.57 678.735,685.903 678.5,686.5C 677.275,685.848 676.608,684.681 676.5,683C 676.762,680.453 677.262,677.953 678,675.5C 678.55,679.191 680.383,681.857 683.5,683.5 Z"/></g>
</svg>
