<?xml version="1.0"?><svg version="1.2" baseProfile="tiny-ps" viewBox="0 0 300 300" xmlns="http://www.w3.org/2000/svg" xmlns:xlink="http://www.w3.org/1999/xlink"><title>qsco-project3</title><g><g fill="#fdfdfd" transform="matrix(.1 0 0 -.1 0 300)"><path d="M0 1500V0h3000v3000H0V1500z"/></g><g fill="#dedede" transform="matrix(.1 0 0 -.1 0 300)"><path d="M0 1500V0h3000v3000H0V1500zm2273 1009c54-27 123-93 149-143 17-32 48-120 48-136 0-14-128 124-168 180-25 36-57 77-71 93l-25 27h13c6 0 31-9 54-21zm-1565-61c-88-124-112-153-150-187l-38-33v16c0 8 10 41 21 72l22 57 41 45 41 44 50 29c27 16 53 29 57 29s-16-33-44-72zm1840-125c14-20 31-56 38-81l14-45v-241l-42 45c-24 26-76 75-116 109l-73 63-25 48c-13 27-24 51-24 53 0 3 42-28 93-69l92-74 24-38c13-21 27-45 31-53l9-14 6 6 6 6-24 79c-14 43-30 104-36 136s-19 78-30 103l-20 45 26-21c15-11 38-37 51-57zm-2062 20c-7-16-24-73-35-128-12-55-29-120-37-144l-15-44 10-10 9-9 18 38c10 21 37 56 59 79 63 62 165 147 165 138 0-4-13-30-29-58l-29-50-53-50c-29-27-77-73-105-102l-52-51-8 75-7 76 6 63 6 63 22 43c22 44 66 98 81 98h9l-15-27zm2215-249 21-59 5-70 5-70-15-55c-9-30-27-91-40-135l-24-80-21 49c-12 26-46 83-76 125-58 84-90 142-112 205l-14 41 84-87 84-87 15-48c8-26 18-61 21-76l7-28 10 7 11 6-7 50-7 50 7 170 7 170 9-9c5-5 19-36 30-69zM330 1823v-113h10c5 0 12 12 16 28 3 15 12 46 21 70l15 43 38 47c21 26 56 65 79 87l42 40-24-65-24-65-76-119c-42-66-77-125-77-133 0-36-19-3-50 90l-35 102v105l1 105 24 55 25 55 8-110c4-60 8-161 7-222zm907 123 51-24 41-42 40-42 21-54 20-55v-154l-28-60-29-60-43-38c-23-22-57-45-75-53-19-7-36-18-40-24l-6-10 32-46 31-46 46-29c25-16 41-29 36-29-25 0-137 51-186 84-29 20-74 51-100 69-25 18-65 43-88 57l-42 25-28 40c-15 22-35 62-44 88l-16 48v127l17 52 17 52 44 49c66 74 117 97 217 98l60 1 52-24zm780 9c19-8 44-15 54-15h18l10 18 10 17v-95l-1-95-12 36c-6 19-19 47-29 62l-17 27-40 20-39 20h-89l-30-25-30-25-5-26-5-27 10-29 10-29 57-38c31-20 86-54 122-74l67-37 30-35 31-35 7-35 6-36-17-44-17-45-25-20c-14-11-49-27-77-35l-51-16-89 23-88 22-14-19-14-19 1 100v99l14-43c25-82 65-117 149-133l38-7 35 10 35 10 24 25 24 26v68l-15 29-15 29-73 42c-39 23-96 57-125 75l-53 35-19 32-20 32v92l23 33 22 33 35 18 35 19h106l36-15zm772-250v-70l-13-60c-18-83-43-137-112-233l-59-83-6 58c-4 32-21 108-38 168-27 91-64 274-57 282 1 1 29-50 61-114l60-116-1-99v-98h8c7 0 13 20 37 130 7 30 26 88 43 129 37 92 58 158 59 191v25l9-20c5-11 9-51 9-90zm-2569 40c0-9 20-67 45-130l46-115 16-79c8-43 19-84 23-91l8-13 10 7 10 6-10 38-10 37 5 50c6 62 36 141 82 220l35 60-6-55c-4-30-22-116-41-190s-38-159-41-187l-7-53-56 73c-73 95-94 137-113 230l-16 76v131h10c6 0 10-7 10-15zm2316-567-6-56-24-56-25-56h12l12 1 50 77c28 42 79 108 114 147 35 38 77 90 92 115l29 45v-23c0-39-40-144-77-199-19-29-58-74-87-100-49-44-206-158-206-149 0 2 6 21 14 43 14 41 31 160 41 298 3 44 11 105 18 135l11 54 19-109 18-110-5-57zm-932 236c21-20 20-30-4-54l-20-20-19 9c-10 6-21 18-25 26l-6 16 10 20 11 19h19c10 0 26-7 34-16zM509 1303c6-54 15-142 21-196l10-99 18-53 18-54-88 61-89 61-63 63-63 64-22 43c-21 41-51 138-51 167v15l34-50c19-28 65-85 104-127 38-43 87-105 108-138l38-60h13c17 0 17 4-8 53l-22 42-5 69-5 68 13 84 12 84h16l11-97zm1871-263-18-115-20-45c-11-25-39-67-61-95l-41-50 11-3c5-2 26 9 45 25 80 63 123 90 248 157 22 12 64 44 95 71l55 50-33-61-32-61-61-61-60-60-59-32-58-31-88-19c-48-11-98-23-111-26l-23-7 32 47 31 47 45 132c25 73 52 145 60 162 16 33 57 95 59 92 1-1-6-54-16-117zm-1741 37c16-29 50-110 75-181l44-128 30-48 30-49-11 4c-7 2-52 11-101 20-50 10-110 26-135 37-84 36-189 135-237 223l-28 50 46-40 46-41 101-52c56-30 134-78 173-108l73-55 3 11 4 11-37 41c-21 22-48 64-60 92l-23 51-17 104c-9 58-19 109-22 114l-6 10 11-7c6-3 24-30 41-59zm1535-274-35-78-37-38-37-38-47-17-48-17v-12c0-16-7-16 81 2 41 8 126 19 189 25l115 11 54 25c30 13 56 23 58 20 2-2-18-23-44-46l-48-43-64-30-63-30h-82l-81-1-116 29-117 29 62 29 61 28 113 115c62 63 115 114 117 114 3 0-11-35-31-77zM919 747l116-114 47-19c27-10 48-21 48-25 0-7-200-57-262-65l-47-7-72 18-72 18-60 41c-33 23-66 51-74 63l-14 21 38-19 38-18 70-10c94-14 327-42 343-41 27 0 9 16-38 33l-50 18-34 33-33 33-36 73c-21 39-37 73-37 76 0 14 26-8 129-109zm811-173 45-7 111-48c165-72 234-83 330-54l49 14-25-20c-14-11-47-31-74-44l-50-24-51-6-52-7-63 16-63 16-51 31c-28 16-79 50-114 74l-63 45h-109v-9c0-4 28-25 63-46 68-42 171-120 201-154l19-21-17-19-17-19-82 82-82 83-64 43-65 43-55-29-56-29-97-96-97-96-16 17-16 18 48 45c70 65 100 89 171 132 34 21 62 41 62 45s-13 10-30 13l-29 6-40-14-40-14-73-54c-40-30-92-64-114-75l-42-21-59-10-59-9-49 9c-53 10-115 38-155 69l-25 20 49-16 48-17 62 5 61 5 60 26c33 13 101 42 150 63l90 38h90c50 0 113-2 140-3 28-2 73 1 100 7 28 5 61 8 75 6 14-1 45-6 70-10zm-657 1377c-18-5-48-20-67-34l-34-26-21-43-20-43-12-72-12-73 12-72 12-73 25-53 26-53 36-24c21-13 53-27 73-30l36-7 42 12 41 11 35 30 34 30 19 52 20 52 7 65 7 65-11 64-10 65-26 53-26 53-42 24c-23 14-58 27-77 30l-35 5-32-8z"/></g><g fill="#b1b1b1" transform="matrix(.1 0 0 -.1 0 300)"><path d="M0 1500V0h3000v3000H0V1500zm2283 1008c21-10 56-35 78-55l39-35 29-62c16-33 32-76 36-93l7-33h-10c-15 0-125 121-177 196-27 38-58 80-69 93l-21 23 25-7c14-4 42-16 63-27zm-1580-75c-67-99-142-186-176-205l-19-10 7 34c3 18 20 61 36 95l30 62 41 36c33 28 130 85 145 85 2 0-27-44-64-97zm1831-84 35-42 15-46c17-50 22-114 18-232l-2-76-63 61c-34 34-89 86-121 116l-58 54-18 36c-9 19-20 46-24 60l-7 25 23-26c13-14 50-46 83-71 70-53 130-116 140-147 3-12 11-21 16-21h10l-10 18c-5 9-23 76-41 147l-32 130-19 33c-11 18-19 35-19 38 0 12 42-20 74-57zm-2040-6-24-48-15-82c-9-45-22-101-30-124s-15-48-15-56v-15l39 58 40 59 71 54c38 29 80 65 91 80l21 26-7-25c-4-14-17-43-28-65l-20-39-119-118-120-118 4 152 3 153 22 40c20 38 89 115 103 115 4 0-4-21-16-47zm2209-241 21-57v-105l1-105-32-93c-18-52-33-104-33-115l-1-22-29 63c-16 34-54 98-84 141-56 79-116 193-116 221v15l80-80 81-80 19-40c10-22 22-57 25-77 4-21 10-38 14-38 3 0 6 105 6 234v233l13-19c8-10 23-45 35-76zm-2376-9c1-43 3-147 5-230 2-84 6-153 10-153 3 0 9 19 13 43 4 23 16 60 27 81l20 40 74 77 74 78v-14c0-32-45-123-109-224-38-58-76-124-85-146l-17-39-34 99c-20 55-40 128-46 162l-11 62 10 65 11 66 25 55c14 30 26 55 28 55s4-35 5-77zm922-148 48-24 41-46 41-47 18-51 18-52-1-75v-75l-22-49c-12-27-38-69-57-92l-35-43-55-26-55-27 7-12c16-29 78-99 99-113 13-8 41-21 62-29l37-13h-25c-14 0-56 10-93 23l-68 25-64 41c-35 23-69 48-76 56-6 8-38 28-71 46l-59 32-39 44-39 44-18 51-18 52 1 75v75l27 60c43 93 103 146 197 172l45 13 53-5 53-5 48-25zm764 14 61-21 18 22 18 22v-108l-1-109-18 53-18 53-24 26c-47 51-123 67-179 38-36-19-50-43-50-87v-34l28-27c15-14 68-49 117-77 50-29 105-63 124-77l33-26 14-33 14-33v-78l-23-34c-12-18-37-44-55-56l-33-22-46-7-45-7-75 21-75 21-13-6c-8-2-16-12-18-21-3-10-5 30-5 88v105l16-47 17-47 28-29 28-29 38-12c21-6 54-11 72-11h34l32 20c17 10 37 29 43 41l12 22-5 35-6 34-18 20c-10 11-60 45-112 76-52 30-112 71-133 90l-38 34-12 39-11 39 11 38 12 38 29 28c30 29 90 55 129 56 12 0 50-9 85-21zm776-254 1-90-15-63c-8-35-22-77-31-95-13-26-120-182-144-210l-6-7-1 62-1 63-31 103c-30 101-62 257-60 297l1 20 5-15c3-8 28-54 54-101l49-86 16-63 16-62-7-37c-3-20-8-44-11-53l-5-18h19l21 93c12 50 36 126 53 167 35 86 57 162 59 205l1 30 8-25c4-14 8-65 9-115zM277 1590c23-58 49-140 58-182 9-43 20-78 23-78h7l-3 74-4 74 16 53c9 30 36 90 62 134l45 80-5-65-5-65-36-140-36-140-2-52c0-29-2-53-3-53-6 0-134 180-148 207-9 18-23 60-31 95l-15 63v91c0 50 3 94 7 98l7 7 11-48c6-26 30-95 52-153zm2260-405-5-70-22-48c-12-27-20-51-17-53 3-3 30 32 60 78s87 119 126 163l72 80 24 50 24 50 1-22c1-77-40-184-105-272l-45-61-72-53c-40-29-94-68-119-85l-47-31 20 61 19 62 15 170c8 93 20 190 26 215l12 46 18-105 19-105-4-70zM500 1390c6-21 17-110 26-196 15-163 27-232 45-266 6-11 8-22 6-25-7-7-176 114-231 166-85 81-146 197-146 279v35l30-46c17-25 61-78 97-119 36-40 88-106 115-146 27-41 52-71 55-68s-4 27-15 54c-11 26-24 72-28 100l-7 53 19 110c10 60 19 109 21 109 1 0 7-18 13-40zm1108 28c18-18 15-43-8-63l-20-18-25 11-25 12v19c0 11 3 26 6 35l6 16h54l12-12zm791-288c-5-25-15-83-23-130l-13-85-22-46c-12-26-38-65-58-88-49-57-34-63 25-10l49 44 124 69 123 69 49 51 49 51-16-40c-26-62-84-142-140-191l-51-45-60-29-60-29-95-21c-52-11-97-20-102-20-4 0 8 26 27 58l33 57 38 115c20 63 46 133 57 155 23 46 69 117 73 113 1-2-2-23-7-48zm-1760-47 40-68 36-110c41-122 67-179 98-212l20-23h-10c-6 0-57 9-114 20l-104 21-51 24-51 25-64 59-64 59-32 53c-18 30-35 63-39 74l-8 20 55-50 55-50 93-49c51-26 125-72 164-102 40-30 76-54 81-54h9l-19 22c-10 12-27 31-37 42-10 12-29 44-43 73l-26 52-19 113c-26 158-27 157 30 61zm1543-275-37-83-40-40c-22-22-53-46-70-52-16-6-39-14-50-19l-20-7 18-4c9-3 40 0 67 6s100 15 162 21l113 10 50 16c28 9 66 26 85 38l35 21-21-27c-35-45-106-99-164-127l-55-26h-95l-95 1-115 28-115 29 55 20 55 21 130 128c72 70 133 128 137 128s-10-37-30-82zM944 722l59-62 74-37 75-37-84-23c-45-12-120-28-166-35l-82-12-56 12c-79 16-136 46-200 104-30 28-53 52-51 54 1 2 25-7 52-20 58-27 74-31 260-51 77-9 156-18 175-22l35-5-10 9c-5 5-31 17-57 27l-47 17-37 41-37 41-33 73c-19 40-34 76-34 80 0 9 90-75 164-154zm530-151 21-9 64 16 64 16 79-12 79-11 114-51 114-51 56-10 55-10 53 10c28 5 61 13 72 17l20 7-19-21c-11-12-44-34-75-50l-56-27h-90l-90 1-50 23c-27 12-88 50-134 83l-83 61-44 5c-23 2-51 2-60-2l-17-7 58-34c74-45 121-80 183-136l51-47-21-22-20-22-92 89c-50 49-112 104-138 121l-47 32h-43l-56-37-57-38-83-84-83-84-20 20-20 20 63 58c61 56 201 155 220 155h9l-6 10-6 10h-35c-48 0-87-19-169-80-38-29-95-64-125-79l-55-26-85 1-85 1-45 21c-25 11-61 33-80 48l-35 26 30-8c17-5 73-9 125-9h95l117 53 117 53 63 14 63 14 58-5c33-3 69-9 81-13zm-429 1365c-41-19-80-63-102-116l-18-45v-240l23-50c28-61 57-93 99-111l32-14h92l28 14c15 8 42 31 59 51l31 35 17 57 16 57-4 100-5 101-22 50c-27 61-45 82-93 106l-37 19h-43l-43-1-30-13z"/></g><g fill="#7e7e7e" transform="matrix(.1 0 0 -.1 0 300)"><path d="M0 1500V0h3000v3000H0V1500zm2264 1021 61-30 38-37 39-38 25-49c28-57 55-139 47-146-8-9-154 147-209 223-27 38-56 77-64 88-18 25-9 23 63-11zm-1506-18c-14-16-49-63-78-107l-52-79-61-58c-34-32-63-56-65-55-7 8 31 123 55 164 14 24 39 57 56 74 33 31 132 87 156 88h15l-26-27zm1732-108c46-34 87-97 106-162l16-54-4-114-3-115h-7c-4 0-15 11-23 24-9 13-58 60-110 105l-94 81-25 43c-14 23-28 56-32 72l-7 30 39-36c22-20 67-57 101-83l63-47 26-45c25-42 46-57 26-17-5 10-22 70-37 133-28 116-45 161-73 193l-15 17h10c5 0 25-11 43-25zm-1986-38-24-44-24-109c-14-60-29-122-35-137-18-47-13-44 24 10l35 52 68 55c38 30 81 69 95 86l27 32v-19c-1-55-70-151-169-234-33-27-73-68-89-89l-29-40-6 108-7 107 10 59 9 58 26 43c23 40 89 105 107 105 3 0-4-20-18-43zm2178-202c12-22 27-62 34-90l14-50v-167l-25-71c-13-40-31-96-38-126l-14-55-16 49-17 48-71 105c-70 103-109 178-123 237l-7 30 76-75c85-83 121-138 139-207l12-46 3 159c2 87 4 179 5 204 0 25-2 63-6 85l-7 40 10-15c5-8 19-33 31-55zm-2354-42c-1-38 3-142 7-233l8-165 12 50c6 28 19 65 29 83 18 35 166 195 173 188 2-2-6-32-17-66l-21-63-70-108c-38-60-79-130-90-156l-21-48-40 120-40 120-5 65-5 65 11 55c11 52 55 160 65 160 2 0 4-30 4-67zm918-161c23-12 60-40 82-63l41-41 22-46 23-47 1-95v-95l-21-46c-12-26-39-65-60-89l-38-42-48-24c-26-13-48-28-48-33 0-4 16-28 35-53l35-45 49-27c27-14 58-26 70-26h21v-21l-37 7c-93 17-201 65-273 122-25 20-47 39-50 42-3 4-26 16-51 28s-63 39-84 60l-38 37-26 55-26 55v180l24 53 24 52 54 50 54 50 47 15 47 15 65-4 65-3 41-21zm787 7 49-14 14 20 14 19-1-110v-109l-19 55-19 55-30 27-30 27-41 11-41 11-34-11-35-11-20-26-20-26v-59l28-27c15-15 73-53 129-85l102-58 36-39 35-39 1-33c2-61-3-82-26-118l-23-36-39-18c-21-10-59-20-84-23l-46-4-56 16c-30 9-65 16-76 16h-22l-5-15-6-15-9 6-9 5v93c0 51 3 96 7 100l7 7 21-58 20-57 40-28 40-28 50-6 50-5 35 19 35 19 14 36 13 36-19 37-19 36-119 73-119 72-26 33-25 33v112l22 31 23 32 42 21 43 22 50-4c28-2 72-10 98-18zm761-249 1-95-14-55c-22-87-43-128-120-234l-71-98v137l-25 77c-30 93-65 263-65 312v36l47-87c25-49 55-106 67-128l20-40v-187l27 108c15 60 40 138 54 174 33 78 54 154 56 195v30l11-25 10-25 2-95zM278 1599l40-95 16-79c9-43 18-80 19-82 2-1 3 32 3 75v77l17 50c10 28 40 91 68 140l50 90-7-70-6-70-35-135-35-135-7-72-6-72-62 83c-83 111-98 140-119 216l-17 65-1 95-1 95 9 20 8 20 13-60c8-33 31-103 53-156zm2258-354 7-100-26-63c-13-34-23-62-21-62s26 34 54 75 82 110 121 152l70 78 29 59 30 59v-81l-20-64-20-64-38-60-38-59-53-47c-43-39-171-134-218-161l-11-7 18 48c20 54 36 154 45 292 4 52 14 127 23 165l16 70 13-65c7-36 16-110 19-165zM508 1365c6-33 16-116 22-185 14-151 24-210 45-251 9-17 14-33 11-36-9-9-200 131-256 188l-55 56-27 50c-30 55-58 151-58 198l1 30 23-45 24-45 91-104c49-57 105-128 123-157 40-67 54-70 26-7l-21 47-5 63-5 64 19 110 18 110 7-13c3-7 11-40 17-73zm1097 59 16-17-3-26-3-26-29-10-28-10-19 24c-24 29-24 36 1 61 24 24 43 25 65 4zm801-266c-4-18-13-78-21-133l-15-100-30-60c-16-33-43-75-61-93-47-50-30-48 30 3l53 45 111 62 112 62 62 62 62 63-15-42c-23-65-70-131-139-195l-63-60-54-26-53-26-95-20c-52-12-104-23-115-27l-19-6 17 24c35 50 61 108 107 241l47 137 39 60c21 34 41 61 43 61s1-15-3-32zm-1767-66 40-67 34-105c44-133 58-165 97-218l31-44-18 6c-10 3-63 14-118 25-122 24-154 37-231 95l-59 44-37 49c-43 57-73 109-83 142l-7 24 53-54 54-54 110-59c61-32 135-78 166-102 30-24 59-44 63-44s-11 21-33 46l-40 46-20 53c-11 30-27 98-36 152s-19 108-22 122l-6 24 11-7c7-4 30-37 51-74zm1546-285-45-96-47-40c-25-23-49-41-54-41-16 0-62-21-57-26 3-3 45 2 94 10s130 19 179 25c111 13 152 24 200 57 58 39 53 21-11-44l-59-58-60-29-60-29-85-4-85-4-134 32-133 32 56 23c72 29 69 27 214 173 68 68 126 121 128 119 3-2-16-47-41-100zM920 754l105-103 51-25c29-14 58-26 66-26s18-3 21-7l7-6-113-30-112-30-105-1-105-1-68 32-68 32-50 52c-27 28-49 53-47 55 2 1 30-10 63-26l60-30 100-10c144-15 246-29 275-36l25-7-10 10c-5 6-27 16-47 22l-37 12-38 37-38 37-42 88c-24 48-43 90-43 94 0 10 36-22 150-133zm580-176c19 0 65 3 102 7l68 8 62-13 63-12 115-51 115-51 77-4 77-4 47 16c26 9 49 14 51 12 8-7-63-55-120-81l-57-26h-136l-50 17c-51 17-120 58-198 117l-46 36-36 7-35 6-22-9-22-10 41-21c49-25 190-130 223-165l24-27-18-20c-10-11-21-20-25-20s-45 37-91 83c-88 87-182 157-210 157-9 0-47-22-85-49l-70-48-70-76-71-76-23 24-22 24 57 53c66 61 134 111 188 139l38 20-6 9c-9 14-50 12-88-4-18-7-73-42-123-78l-92-65-57-18-57-17-72 4-71 5-45 23c-51 25-113 70-107 76 2 2 23-3 47-11l43-15h124l39 14c22 7 71 28 109 46 39 19 104 44 145 57l75 23 80-6c44-4 96-6 115-6zm-460 1350-45-23-27-45-28-45-11-60-11-60 5-76 6-77 17-43c10-24 27-56 38-72l20-27 41-20 41-20h69l40 19c49 22 68 43 95 105l22 48 5 73 6 74-12 63-13 63-26 48-25 48-33 20-33 20-48 5-48 5-45-23z"/></g><g fill="#444" transform="matrix(.1 0 0 -.1 0 300)"><path d="M0 1500V0h3000v3000H0V1500zm2288 1011 59-30 33-37c38-44 86-142 96-198l7-39-32 22c-39 28-135 139-189 218-22 32-49 67-61 77-11 11-21 23-21 27v9l24-10c13-5 51-22 84-39zm-1541-28c-24-32-62-85-85-119l-40-61-57-52c-32-28-60-50-63-47-8 9 29 129 54 171 13 22 36 53 52 68 30 29 148 96 169 97h13l-43-57zm1741-83c48-34 84-86 107-149l15-44v-272l-129 125-130 125-20 40c-11 22-23 54-26 70l-7 30 34-36c18-20 60-57 94-82 33-25 75-62 92-82 18-19 32-33 32-30 0 4-14 61-30 128l-31 122-29 43c-35 50-28 53 28 12zm-1972-27-25-38-15-60c-7-33-21-89-29-125s-18-74-22-85l-6-20 13 21c26 41 54 71 118 122 36 30 80 70 98 90l34 37-7-30c-3-16-16-50-27-75l-22-45-118-116c-65-64-118-122-118-129v-13l-6 6c-4 4-9 65-11 136l-5 130 17 58 17 58 57 58c32 31 63 57 70 57h11l-24-37zm2201-293 16-55v-180l-23-65c-12-36-30-94-40-130l-16-65-18 52-18 53-75 111c-78 116-107 174-119 233l-6 35 90-92 91-92 20-45 21-45v85c1 47 4 116 9 154l7 69-7 51c-4 28-10 60-14 71s10-5 30-35l36-55 16-55zm-2381 18c0-57 2-159 3-226l3-124 17 49c19 57 35 78 131 179l70 74v-20c0-39-42-129-110-236-39-60-78-130-88-156-9-27-19-48-22-48s-24 60-48 133l-43 132 1 76v75l16 55c13 44 59 139 67 139 1 0 2-46 3-102zm887-134 46-16 43-38 44-38 29-53 30-54v-210l-24-48-24-48-42-42-42-43-41-18-41-19 17-29c9-17 36-47 59-68l41-39 44-12c23-7 47-16 53-21l9-8h-24c-77 0-207 55-301 127-37 28-90 63-119 79l-52 28-34 40-34 39-20 54-20 54v148l20 54 20 54 35 41 35 41 62 30 61 31h123l47-16zm794 1c19-8 43-15 53-15h18l6 15c3 8 10 15 16 15h10v-210h-10c-5 0-13 12-16 28-4 15-15 43-24 62l-18 35-40 23-40 22h-94l-29-31-29-31v-47l29-33 29-33 98-55c54-30 112-69 130-85l32-30 12-43 13-42-11-39c-7-21-22-51-34-66l-21-28-41-18-41-19h-97l-65 17-65 18-9-18c-6-9-14-17-19-17h-10v212l12-4 11-4 13-45 13-44 21-23c25-27 64-47 107-55l31-6 33 9c18 5 43 19 56 32l23 21v74l-21 27-21 26-94 56c-110 64-149 96-169 135l-15 28v82l14 27c33 62 83 90 164 91l53 1 36-15zm777-270v-120l-23-65-23-64-76-109-77-109-6 74-6 73-25 85c-38 124-73 321-61 334 3 2 34-54 71-125l66-129 5-73 6-72 12 61c6 34 30 109 53 167l41 107 11 66 11 67 11-24 10-24v-120zm-2519-80c21-49 46-121 55-159l17-70 6 65 6 66 19 49c11 27 41 87 67 134l47 85-7-83-6-83-30-117c-49-183-51-194-47-245 2-26 1-47-2-46-6 0-74 94-131 179l-37 55-16 55-17 55-6 91-6 91 13 54 13 54 13-70 12-70 37-90zm2245-187c0-16 7-69 16-120l16-92-7-44c-4-24-13-61-20-83-8-21-13-39-11-39s22 28 45 63c23 34 69 91 102 127 63 68 103 128 126 188l14 37-5-80-4-80-25-55c-49-111-105-170-276-294l-94-68 7 19c4 10 16 50 26 90l19 71 11 138c11 142 13 158 32 232l11 43 8-13c5-7 9-25 9-40zm-2011-43c6-27 18-123 26-213l15-163 21-61c11-33 19-62 17-64-6-5-212 147-256 189-24 23-57 62-73 87l-29 44-20 64-20 64v101l30-59 29-60 77-84c43-47 95-112 117-145 21-33 36-51 32-40-20 57-27 96-28 150v60l18 103 18 104 7-14c4-7 12-35 19-63zm1108 25 12-25-13-20-13-20-22-3-23-4-19 18c-23 21-24 42-2 66l17 19 25-3 26-3 12-25zm788-280c-6-36-17-98-24-139-14-88-35-138-86-206l-38-50 34 31c44 40 110 84 179 119 30 15 81 46 113 67l59 40 31 45 32 44 3-11c3-7-13-46-33-87l-38-76-61-61-61-61-62-33-61-32-113-25c-61-14-117-25-122-25h-10l21 23c32 35 70 117 112 247l39 120 46 71c25 39 48 70 49 68 2-2-2-33-9-69zm-1751-60c19-36 50-113 70-173 40-122 54-152 92-196 15-18 24-34 22-37-3-2-59 7-126 20l-120 24-54 28-53 29-70 70-70 70-26 55c-15 30-30 66-33 80l-7 25 13-16c7-8 22-26 33-40 33-41 95-85 190-135 50-25 115-66 147-90 62-48 81-57 47-21-61 64-82 117-109 278-11 65-23 126-26 136l-6 18 25-30c15-16 42-59 61-95zm1540-247c-24-53-56-111-69-129l-24-32-53-27-53-27 40 6c22 3 99 13 170 21 170 19 227 37 283 88l22 20v-11c0-6-25-38-56-71l-56-61-75-37-76-37-86 1h-86l-124 31c-68 18-126 34-129 36-2 3 9 8 24 12 16 4 49 17 74 29l45 23 131 131c73 72 134 131 138 131 3 0-15-44-40-97zM900 775l127-124 54-26c30-13 61-25 70-25s19-3 23-7l6-7-132-33-133-34-95 3-96 3-66 33-66 32-51 56c-28 31-51 60-51 66v11l18-15c55-49 138-71 327-88 65-6 131-13 145-16l25-6-50 25-51 24-28 33c-23 28-116 199-116 215 0 14 23-5 140-120zm610-194c19 1 82 2 140 3h105l55-21c30-12 93-38 139-58l84-38 62-4 61-5 55 16c30 10 61 20 69 23l15 6-30-32-30-32-65-32-65-32-75 1-75 1-57 22-58 22-75 55c-42 29-84 58-95 64l-19 10h-95l58-35c81-49 144-97 190-144l40-41-24-25-23-25-101 98-101 98-47 28-47 27-33-17c-53-27-152-110-210-175l-54-61-23 20-24 19 6 16c9 24 147 137 216 178l62 37-26 6-26 7-42-19c-24-11-72-40-108-67-86-63-143-91-213-104l-59-11-41 7c-58 9-136 45-179 83-44 39-42 49 5 24l33-18h180l105 49c58 27 132 57 165 67l60 18 90-6c50-3 106-4 125-3zm1131 1183 1-19 5 13c3 7 2 16-1 19-3 4-6-2-5-13zm-1566 174-40-9-28-27c-16-15-38-45-50-67l-21-40-4-120-4-120 22-57 21-58 41-34 40-35 38-6 38-6 39 10 39 11 37 36 36 37 18 51 17 51v90l-1 90-16 57-17 57-26 31c-30 35-65 55-109 62l-30 5-40-9z"/></g><g fill="#050505" transform="matrix(.1 0 0 -.1 0 300)"><path d="M0 1500V0h3000v3000H0V1500zm2266 1026 71-34 28-28c15-16 40-49 56-74l30-45 21-68 20-68-6-6-7-7-70 70c-39 38-95 103-124 144-30 41-62 84-72 95s-24 28-32 38l-13 17h14c7 0 45-15 84-34zm-1466 16c0-5-10-17-21-28-12-10-52-64-90-120l-69-101-60-53c-34-29-63-50-66-47s4 38 15 78l21 73 36 53 36 52 46 29c95 60 152 84 152 64zm1689-136c42-32 87-93 107-147l16-44-1-144c-1-80-3-146-5-148s-13 12-25 31l-22 35-94 81-94 80-27 45c-14 25-32 65-40 90l-13 45h8c4 0 17-13 29-29 12-17 58-57 102-91 44-33 85-70 91-81 21-40 19-10-6 97l-26 109-29 43c-17 23-30 45-30 47 0 12 29 3 59-19zm-1962-28c-27-35-43-83-74-213l-19-80 64 60c36 33 91 86 123 118l59 58v-52l-25-52-24-52-48-50c-27-27-73-72-103-100-30-27-67-66-82-85l-27-35-3 95c-1 52-1 122 0 155l3 60 15 47 15 46 39 45 39 44 33 16c18 9 34 14 36 12s-7-19-21-37zm2146-190 36-62 17-74 16-74-4-72-5-71-31-95c-17-52-34-111-39-130l-9-35-22 60-21 60-80 119-79 118-22 69c-13 39-20 72-17 76 4 3 18-8 32-25 15-18 53-57 86-88l59-57 23-48 24-47 6 167 6 166-8 35c-5 19-12 43-16 53l-7 17h9c5 0 26-28 46-62zm-2331-15-14-57 11-105c6-58 11-131 11-161v-55l22 45 22 44 81 87c44 48 84 87 88 88l9 1-7-32c-15-70-49-142-107-230-54-83-91-151-113-213l-7-20-45 135-45 135v90l-1 90 17 55c18 55 75 160 87 160 3 0-1-26-9-57zm903-214 45-21 41-41c52-52 75-98 90-180l12-65-11-57c-7-32-22-77-34-102l-22-44-43-40c-24-21-59-47-78-56s-35-20-35-23c0-4 16-28 35-52l34-46 53-26c28-14 60-26 70-26h18v-20h-68l-71 24c-81 27-140 60-201 111-24 20-64 47-90 60l-46 23-41 45c-52 56-68 87-83 161l-12 60 6 45c3 25 13 67 22 93l15 47 46 51 46 51 38 20c21 10 56 23 76 29l38 9 53-5 53-4 44-21zm767 11 63-20 17 23 17 22 6-16c3-8 4-59 3-112l-3-97-10-1h-10l-6 28c-9 46-37 90-71 114l-32 23-52 1h-52l-26-24-26-24v-69l30-28c17-16 69-50 116-75 95-52 148-94 170-136l14-28v-84l-24-41-24-41-40-23-40-22h-137l-50 15-50 16-11-16c-6-8-16-15-23-15h-12l3 105 3 105 9 1h10l12-41c7-22 19-52 28-65l16-25 40-20 39-20h86l32 20 32 19 7 26 6 25-6 26c-9 36-45 66-144 121l-86 48-38 37-37 37-12 40-12 41 12 40 12 40 34 34 33 34 39 10c57 15 75 14 145-8zm778-147 12-58-4-105-5-105-23-60-23-60-74-105c-41-58-79-107-85-109l-10-3 6 48 7 49-27 100c-42 160-63 255-70 328l-7 67h11c5 0 13-11 16-25 4-14 32-71 63-126l57-101 4-62 5-61 28 85c15 47 41 123 58 170l31 85v105h19l11-57zm-2560-23v-49l26-68c14-37 40-108 57-157l32-90 6 45c8 53 40 136 77 197 15 26 34 64 44 87l16 40 7-18 8-18-17-110c-9-60-30-156-47-214l-29-105v-140h-7c-7 1-42 49-139 189-40 58-60 116-74 218l-11 81 11 69c6 37 13 76 16 86l5 17 10-5 9-6v-49zm2290-347c0-20 7-75 16-122l16-86-5-67c-3-37-11-76-17-87-21-39-3-21 34 35 21 30 61 81 89 112 71 77 112 139 128 190l12 43 11-11 10-10-12-80-11-81-30-62-30-62-54-61-55-60-110-77c-60-42-111-77-114-77-2 0 6 31 19 70l23 70 15 170 14 171 17 59c9 33 21 60 25 60h9v-37zm-2018-19c14-49 27-143 39-279l11-130 18-55c10-30 21-63 25-72l7-18h-10c-21 0-207 136-267 196l-62 60-31 65-32 64-11 73-11 73 7 17 7 17 27-61 28-61 80-89c44-49 92-107 107-129l28-40-7 20c-3 11-9 49-12 85l-5 65 16 86c9 47 16 100 16 118v33l12-4c7-3 16-18 20-34zm1120-20 11-24-11-25-12-25h-68l-11 14-12 15 3 28 3 28 23 11 24 12 20-6 20-5 10-23zm792-259c-7-33-20-103-28-154l-15-95-30-58-29-58 31 24c18 12 83 51 145 86l113 64 43 45c23 26 47 55 53 66 22 38 24 7 3-47-28-77-71-138-142-203l-60-56-56-28-57-28-100-22c-55-12-111-25-124-28l-24-6 42 59 42 60 44 133 44 133 32 56c33 60 79 125 84 120 2-2-3-30-11-63zm-1748-98c14-26 44-104 68-172l43-124 37-51c21-29 36-53 34-55-2-1-57 8-123 22l-120 24-63 31-63 31-53 52c-62 59-117 141-139 205-17 52-12 66 11 30 9-14 37-45 63-70l46-45 111-59c61-32 130-75 153-94l42-36-36 50c-44 61-61 112-81 241-9 57-20 114-26 127-28 74 45-7 96-107zm1574-142c0-2-22-50-48-107l-49-103-41-37c-23-21-47-38-54-38-6 0-9-2-6-5 5-5 226 18 298 31 48 9 110 39 143 70 40 37 44 23 8-30-40-58-91-99-171-139l-65-32h-190l-115 29c-63 16-121 32-129 36l-14 7 39 13c21 7 59 23 84 36l45 23 124 125c110 111 141 138 141 121zM908 776l139-133 59-22c32-12 66-24 74-27l15-6-90-24c-49-14-126-31-170-40l-80-15-57 5c-76 7-148 36-211 84l-52 39-29 42c-16 23-26 44-23 47s23-8 45-26l39-31 54-15c30-8 104-19 164-24 61-5 126-12 145-15l35-6-40 25c-22 13-50 37-62 53-20 28-113 206-113 218 0 19 36-11 158-129zm570-197 22-9 28 12 27 11h90l90 1 70-26c39-14 108-43 155-64l85-38h75l75 1 49 21c27 12 52 19 55 16 10-10-69-73-128-101l-56-28-65-3-65-4-56 16c-56 16-105 44-220 124l-61 42h-83l60-36c61-37 176-126 210-164l18-20-23-25c-13-14-28-25-34-25s-33 26-60 56c-59 67-187 171-221 180l-25 6-47-28-48-28-93-93c-52-51-97-93-101-93s-17 10-29 23l-22 24 57 56c60 58 106 93 183 141l45 28-47-5-48-5-85-61c-46-34-111-74-142-89l-58-27H885l-65 32-65 32-29 30c-36 38-30 47 15 24l34-18 86-3 86-4 64 27c188 80 230 95 280 104l54 9 55-5c30-3 65-9 78-14zm-438 1342-35-18-23-33c-12-18-29-56-37-83l-15-51v-152l13-51c15-58 46-108 85-137l26-20 53-4 53-4 30 12c17 7 43 28 60 46l29 34 17 57 16 57-4 103-5 103-29 57-29 58-45 23-44 22h-81l-35-19z"/></g></g></svg>