<?xml version="1.0"?><svg version="1.2" baseProfile="tiny-ps" viewBox="0 0 293 293" xmlns="http://www.w3.org/2000/svg" xmlns:xlink="http://www.w3.org/1999/xlink"><title>QSCO Project</title><g><g fill="#772a85" transform="matrix(.1 0 0 -.1 0 293)"><path d="M1457 2730c-3-8-17-109-31-225l-25-210-27-90-27-89 12-41c34-108 52-184 61-254 5-42 13-86 16-98l6-23h-10c-21 0-213 216-293 330l-44 63-250 168c-248 167-335 227-490 338-98 70-155 105-160 99-3-2 30-47 73-99 80-97 235-297 334-429 31-41 78-100 105-131 26-31 82-96 123-145 172-203 401-455 522-575l57-56 11-28 11-28-11-281c-12-313-29-459-47-411-2 6-56 87-121 182-133 196-251 348-368 478-120 133-398 415-409 415-5 0 16-26 46-58 30-31 68-75 85-97 16-22 65-78 110-125 157-163 253-287 444-575l133-200 54-113 53-113 19-72c11-40 22-84 25-99 8-38 23-35 31 5 37 170 131 357 337 666 101 151 316 419 466 581 33 36 58 67 55 70-8 9-342-343-437-460-133-164-326-449-326-479 0-5-7-11-15-14l-14-6-6 10c-11 16-44 477-45 603v118l73 77c297 310 628 693 908 1051 207 263 251 322 246 327-6 5-95-53-322-211-99-69-264-182-366-251l-186-126-83-111c-46-61-125-154-176-207l-92-96-7 7-7 7 31 148 30 148 22 52 22 52-26 88c-33 108-52 212-76 408l-18 150-6-15z"/></g><g fill="#712a7d" transform="matrix(.1 0 0 -.1 0 293)"><path d="m1443 2585 6-60-14-25c-8-14-14-37-15-52v-27l10-6 10-6v19c0 10 3 22 8 26 4 4 7 12 7 17s4 9 10 8c12-1 23 29 24 64l1 27h-29l5 15 6 14-17 23-17 23 5-60zm31-60 5-15h-28l5 15c4 8 7 15 9 15s5-7 9-15zm1176 105c0-5-14-13-32-18l-31-8-2-15-3-15 29 4 29 4-6 9-5 9h15c9 0 16 2 16 4s3 11 6 20l6 16h-11c-6 0-11-4-11-10zm-2270-70c0-5 5-10 10-10 6 0 10 5 10 10 0 6-4 10-10 10-5 0-10-4-10-10zm2155 0-6-10h10c5 0 13 5 16 10l6 10h-10c-5 0-13-4-16-10zm-2140-20-6-10h33l-5-14-6-14 22 5 22 5-15-12-15-12 18 6c10 3 23 6 28 6s9 5 9 10v10h-19c-11 0-26 7-35 15-17 18-23 19-31 5zm-59-9-6-10 9-5 10-6 5 9 6 10-9 5-10 6-5-9zm2135-13c-7-13-10-20-6-16l8 8 12-10 13-10v25c0 31-9 32-27 3zm72-8c-34-14-28-21 7-9 17 6 30 13 30 15 0 6-12 4-37-6zm-123-20c0-6-7-18-15-26l-15-15-9 5-9 6-6-17-7-16 13-9c7-4 19-6 26-3 8 3 18 5 22 5 5 0 14 10 21 21l11 21-12-7-12-8 6 21 7 20-11 7-10 6v-11zm-1940-14c0-8 7-22 16-31l17-17 19 5 20 6-7-17-6-17 12 12 11 11 16-5 15-6-5 14c-3 8-11 13-17 12-6-2-11 2-11 7 0 6-6 10-14 10s-16 4-18 9c-1 4-13 12-25 15l-23 7v-15zm-53-10-6-15 15 6c7 3 14 9 14 14 0 14-17 10-23-5zm1047-22c2-16 4-37 5-47l1-18 12 7 11 7-6-17-7-17 11 7 11 6-6 30c-3 16-12 39-20 50l-15 21 3-29zm1029 19c4-3 7-9 7-15v-10l-14 5-15 6 5-13 5-13-16-17-16-16 6-10 6-10h-36l15-10 15-9 8 8c4 4 10 18 12 32l5 24 25 23c15 12 22 22 16 22-5 0-15 2-23 3-7 2-10 2-5 0zm-2077-28-20-15h11c6 0 16 7 23 15 16 19 11 19-14 0zm1877-30c-17-19-16-25 2-25 8 0 15 2 15 4s3 11 6 20l6 16h-8c-5-1-15-7-21-15zm-1686-9c-9-24-9-24 11-22l17 1-1-17-2-16 14 5 14 5 15-12 15-13-5-21-6-21 10 15 11 15 8-10c10-15 80-45 100-44l17 1-15 5c-8 4-21 12-28 20-7 7-22 13-32 13h-19l5 15 6 15-23-2-23-3-1 10c0 6-4 16-9 23l-8 13-14-5-13-5-19 26-19 26-6-17zm-137-8v-10l-16 6-15 6 20-26c11-15 19-30 16-34-2-3 1-7 8-7h13l-4 36-3 36 11-15 12-15-4 14c-2 8-12 15-21 17l-17 2v-10zm57-7c-2-10-1-24 3-31l8-13 16 6 16 6v30l-19 10-19 11-5-19zm874-16v-40l10 23 9 24-10 16-9 17v-40zm821-13-32-37 11-4 12-4 12 16 12 17 8-8 8-7-7 13-7 12h22l-7 12-7 11 18-7 18-6-13 15c-7 8-13 15-14 15 0-1-16-17-34-38zm-729-8-13-13 10-6c6-4 8-10 5-15s-1-20 5-35l10-26-9 5-9 6 5-22c3-13 10-28 15-35l10-12-7-11-6-10h21v-59l16-15c21-22 24-20 24 10v25l-10-6-10-6v72l-10-6-10-6-1 33c0 18-6 58-12 89l-12 57-12-14zm-63 6c-1-3-3-16-6-30l-4-25 11 18c6 10 8 23 5 30-2 7-5 10-6 7zm945-30-17-19 26 12c14 7 26 15 26 20 0 13-17 7-35-13zm-1859-15c4-8 11-15 16-15h10l-12 15c-7 8-14 15-16 15s-1-7 2-15zm1779 5-6-10h15c9 0 16 5 16 10 0 6-4 10-9 10-6 0-13-4-16-10zm-135-10v-10h-51l6-10 6-10h-22c-12 0-20-3-16-6 7-8-17-34-32-34-6 0-11-4-11-10v-10h37l11 25 12 25h12c7 0 27 11 43 25l30 24-12 1c-7 0-13-4-13-10zm-1610-26c0-7 3-19 6-28l6-16 9 6c5 3 9 15 9 28v23h-30v-13zm837 10c-4-4-7-14-7-23v-15l11 11c6 6 10 16 7 23l-3 11-8-7zm978-4-6-10h10c6 0 11 5 11 10 0 6-2 10-4 10-3 0-8-4-11-10zm-1655-20c8-5 20-10 25-10h10l-15 10c-8 5-19 10-25 10h-10l15-10zm131-26c9-10 19-27 22-37l7-18 22 6 23 6-14-9-13-9 10-7 10-6 6 15 6 16-25 9c-14 5-25 13-25 17 0 5-10 14-22 22l-23 14 16-19zm-257-11c-8-29-1-37 34-40l34-4-4 13-5 13-29 5-29 5 12 8 11 7 16-6 16-6v22h-52l-4-17zm182 10c-3-3-6-15-6-25v-18h30v19c0 21-13 34-24 24zm1473 2c-1-3-3-9-4-15-1-5-3-24-4-41l-1-31-13 5-13 5-1-20-2-20 25 23 25 23 9-14 10-15v17c0 9-4 19-9 22l-9 6 4 30 5 30h-10c-6 0-12-2-12-5zm81-2c5-2 10-9 10-14v-9l-26 11c-15 5-29 8-31 5-3-2 5-7 16-11l21-6-6-11-6-10 18 4 19 3v38l-13 3-12 3 10-6zm-953-19c-3-3 0-25 8-49l13-44-19-17c-11-9-19-24-18-33v-16l9 23c5 12 14 22 20 22h11l-7-12-7-13 8 8c5 4 9 23 10 42l1 35h-18l6 24 6 25-9 5c-4 3-11 3-14 0zm-567-26c0-5 6-8 14-8s16-6 19-12l5-13 13 13 13 12h-13c-7 0-10 3-8 8l5 7h-24c-13 0-24-3-24-7zm630-8v-20h22l-5-20-5-20h8c7 0 20 47 20 71 0 5-9 9-20 9h-20v-20zm620 10v-10h40v20h-40v-10zm-36-9 6-9-12-5-13-5 22-1 22-1-5 15c-4 8-10 15-16 15h-9l5-9zm86-11c0-5 5-10 10-10 6 0 10 5 10 10 0 6-4 10-10 10-5 0-10-4-10-10zm-753-19-5-19 9-13 9-14v33c0 36-5 42-13 13zm721 12c7-3 16-2 19 1 4 3-2 6-13 5l-19-1 13-5zm-1378-23v-20h52l-4-25-5-25h8c19 0 8-16-11-17l-20-2 7 12 7 12-18-14-17-15 23-12c13-8 28-13 33-14h10l2 50 2 50h-9c-5 0-12 9-15 20l-6 20h-39v-20zm1243 14 7-7-26-14c-15-7-35-13-45-13h-18l6-17 6-16-14 8-14 8 8-8c4-5 18-10 30-12l22-3-15 10-15 10h32c17 0 38 3 47 6l16 6v36l-17 6-17 7 7-7zm-936-22-8-12 13-13 13-14 13 5 12 4-1 16-1 17-5-12c-7-19-21-16-25 5l-3 17-8-13zm-364-16c2-6 11-12 19-14l15-3 5 13 5 13-24 1-24 2 4-12zm287-17v-21l15 12c8 7 15 16 15 21s-7 9-15 9h-15v-21zm1005-9-20-9h15c8 0 22 4 30 9l15 10-10-1c-5 0-19-4-30-9zm-886-9 14-9-6-16-6-16 19-10c10-5 22-20 25-31l7-22 8 14c5 7 6 17 4 21l-5 8h15c19 0 21 11 5 27l-11 11-16-6-15-5 6 16 6 17-7 1c-4 0-18 2-32 5l-25 4 14-9zm481-12-15-9h26l-6-10c-4-6-10-8-14-6l-7 5-2-24-2-23 14-11 14-11 5 20 5 20h-9c-5 0-9-5-9-12v-11l-6 6-7 7 13 15 12 15 9-6 9-5v20c0 25-12 32-30 20zm-137-17 5-23-15 13-16 13 5-15c2-8 12-16 21-18l17-3-3 20c-2 11-7 24-12 28l-8 8 6-23zm407-12-22-30 5-13 5-12 1 18 1 18 12-7 11-7-6 9-6 10 10 14 9 15 1-20v-20l9 20c20 46 1 49-30 5zm400 21c0-6-3-10-8-8-4 1-20-8-35-20l-28-21 11-7 11-7 17 15c9 7 25 17 35 20 19 7 22 22 7 32l-10 6v-10zm-358-57c-1-19-7-45-13-56-12-22-6-34 10-23 6 3 11 17 11 30s4 26 9 29l8 6-5 25c-6 36-17 31-20-11zm-404-10c-8-8 3-44 13-44h9v25c0 24-10 32-22 19zm632-4c0-6 7-13 15-16 8-4 15-12 15-19v-13l22 6 22 5-22 10-22 10v27h-15c-8 0-15-5-15-10zm-1275-9c3-5 2-11-2-14-5-2-3-3 3-1 6 1 17-3 23-9l12-12-6 17c-4 9-13 19-21 22l-15 6 6-9zm365-17v-15l10 6c6 3 10 10 10 16 0 5-4 9-10 9-5 0-10-7-10-16zm230 6c0-5 5-10 10-10 6 0 10 5 10 10 0 6-4 10-10 10-5 0-10-4-10-10zm350-9c0-5-2-16-5-23l-5-14h38l-5 13-5 13 18-6c24-9 16 0-13 15l-23 12v-10zm-618-41-2-30h9c6 0 15 8 20 18l10 19-11 11c-18 18-24 15-26-18zm383 20 6-10h-10c-6 0-11-5-11-11v-10l10 6 10 6 1-13v-13l9 20c13 29 12 35-6 35h-15l6-10zm-642-16-6-15-13 5-14 5 12-19c7-11 19-22 28-25l15-6-12 12c-7 7-13 17-13 22v8l12-7 11-7-8 13-8 13 18-7 18-6-13 15c-16 19-19 19-27-1zm541-7c3-10 6-28 6-40v-21l15 20c8 10 14 26 14 34l-1 15-5-13-5-13-15 18-15 18 6-18zm661-6 5-9-17-5-18-5 27 1 27 1-11 13c-12 15-22 18-13 4zm-1165-16-13-15 17 6c9 3 16 10 16 15 0 13-6 11-20-6zm315 5c-9-15 3-30 25-30h18l-2-12c-1-7-5-18-9-25l-7-12 10-6c6-4 8-10 5-15s-1-11 4-14l9-6-2 25-3 24 8-5c5-3 14-2 20 1l11 7-23 24c-12 13-29 24-37 24h-14l6 15 5 15h-9c-5 0-12-4-15-10zm270-32v-31l13-5 13-4-3 33c-2 18-8 34-14 36l-9 3v-32zm224 5 11-21-13-5-12-5 12-1c20-2 23 15 7 35l-15 19 10-22zm306 7-6-10h10c6 0 11 5 11 10 0 6-2 10-4 10-3 0-8-4-11-10zm-1110-10c-8-14 3-30 21-30h14v40h-14c-8 0-18-4-21-10zm288-4 7-18-13 5-14 5v-28h33l1 20 2 20-11 6-11 7 6-17zm236-7c0-8-2-32-4-54s-1-32 2-22c2 9 9 17 14 17h10l-5 31c-5 33-16 51-17 28zm437 2-6-9 25-16 24-16 6 10 6 10h-31v15c0 16-16 20-24 6zm137-14c-8-10-9-21-4-43 2-9 31 23 31 35 0 5-4 12-9 15l-9 6-9-13zm-1066-27c-20-29-22-41-4-34l13 5 29-41c17-22 33-40 38-40 13 0 7 13-18 36l-25 23-8 38-8 37-17-24zm83 10c0-5 5-10 11-10h10l-6 10c-3 6-8 10-11 10-2 0-4-4-4-10zm266-19c-4-5-3-16 0-25l6-16 24 2c29 3 31 14 4 23l-20 6 5 10 6 9h-10c-5 0-12-4-15-9zm29-29c-3-3-11 0-18 7l-12 12 18-7c10-3 15-9 12-12zm320 17c-11-16-1-19 13-3l13 14h-10c-5 0-13-5-16-11zm293-17-4-29h26v13c0 7 3 19 6 28l6 16h-30l-4-28zm-233 8c3-5 8-10 11-10 2 0 4 5 4 10 0 6-5 10-11 10h-10l6-10zm-213-40v-25l5 13c2 6 2 18 0 25l-5 12v-25zm90-13-21-23 23-2 24-2 6 17 7 16-9 9-8 8-22-23zm317 18c-6-22-2-32 16-43l20-13-20 6-19 6 7-7 7-7-26-17-25-17 16-7 16-6-6 10-6 10h12c10 0 59 45 59 54 0 6-50 37-51 31zm-624-15c-9-15-1-23 21-18l17 3-16 13-15 13-7-11zm182 3c-4-3-7-16-6-27l1-21 5 12c2 7 4 15 3 19s4 11 12 15l13 9h-11c-6 0-14-3-17-7zm-62-13 8-13-18 7-18 6 13-15c7-8 16-15 21-15 13 0 11 28-3 36l-11 7 8-13zm134-12c-11-38 1-57 22-32l12 15-14-3-14-3 3 13c2 10-6 19-9 10zm-185-19 2-12 22-2 21-2-5 9-6 9-13-5-14-5-5 10-4 10 2-12zm-264-29v-9l-15 5-15 6v-23l9 5 9 6 4-12 5-13 12 23 12 22h-11c-5 0-10-4-10-10zm55 0-6-10h15c9 0 16 5 16 10 0 6-4 10-9 10-6 0-13-4-16-10zm639-4c-9-23 2-32 21-16l15 12 15-5 14-6 5 8c3 4 0 8-7 9-7 0-22 4-34 7l-23 7-6-16zm81-26 6-10h-8c-5 0-14-10-22-22l-14-23 26 24 26 24-5 8c-3 5-7 9-10 9s-2-4 1-10zm-683-20v-25l5 13c2 6 2 18 0 25l-5 12v-25zm20-40c0-23-2-44-6-47-3-4-6 1-6 10 0 10-4 17-10 17-5 0-10 7-10 16v15l-9-5-9-6-4 12-4 12-7-17-6-17 12 3 12 2-2-12-3-13 13 3 12 2-3-14-3-14 75-74c42-41 76-77 76-79 0-3 27-32 61-65l60-59-6 23c-4 12-11 26-16 32-5 5-9 14-9 20v10l10-15 10-15v11c0 6-3 14-7 17l-6 7-14-11-13-11v23l-9-6-10-5-5 9-6 9 15 6 15 5v31h-14c-8 0-22-7-30-16-9-8-16-12-16-7s6 15 13 22l12 12-10-1c-5-2-16-2-23-1l-13 1 7 12 7 11-11-7-12-7v32l-10-6-10-6v41h-12c-7 1-26 12-43 26-16 15-25 24-20 21l10-5 18 13 18 13-16 6-15 5v71h-19l1-40zm576-22-28-10-1-16c-1-9-1-20 0-24 1-8-1-9-36-13l-23-2v19l15-5 14-6 7 11 7 11-11-7-12-7v21h-19c-11 0-23-4-26-10l-6-10h22l-6-10-6-10 13-1c7-1 16-1 20-1 3 1 9-5 12-14l6-15-10 6-10 6v-10c0-20 18-11 46 22 83 97 82 94 32 75zm-1236-24c10-10 20-16 22-13 3 3-5 11-17 18l-22 13 17-18zm38-30c0-5 13-25 30-44l29-35 1 12c0 6-13 27-30 45-16 18-30 28-30 22zm1038-21c-23-6-23-12 3-39l22-23v-25c0-31 3-32 17-5l11 20-13 16c-7 9-12 18-10 20 1 1 2 12 2 23 0 20-2 21-32 13zm-223-13c-4-6-10-8-14-6l-8 5 3-22c1-12 3-23 3-24 2-6 51 41 51 49 0 12-28 10-35-2zm871-91c-42-45-75-83-73-85 4-4 73 60 132 124l39 42h-11c-6 0-45-37-87-81zm-1616 44c0-12 38-48 45-41 3 2-6 15-20 28l-25 23v-10zm966-28-5-15h9c6 0 10 7 10 15s-2 15-4 15-6-7-10-15zm-33-30c-6-7-9-16-6-19 4-3-2-6-11-6h-18l5-13 5-13-17-20c-9-11-24-23-33-27-19-7-25-27-9-27 5 0 32 21 61 47l53 47-12 4c-6 2-11 8-11 13v8l15-5 15-6v10c0 5-6 12-13 15l-12 4-12-12zm-876-12c6-17 63-77 63-67 0 3 11-6 25-20s25-30 25-36c0-5 5-10 10-10 23 0 8 25-50 83-6 7-19 20-28 30s-25 23-34 28l-18 9 7-17zm751-57-5-23 16 1c9 0 20 7 24 14l8 12-6 10c-3 6-12 10-19 10h-14l-4-24zm3-52 1-19 5 13c3 7 2 16-1 19-3 4-6-2-5-13zm665-20-6-16 12 4c6 2 14 10 16 16l4 12h-10c-5 0-13-7-16-16zm-645-3-14-9 19-5 19-5-17-1-18-1v-35l10 15 10 15v-147l-15 12-15 12v-14c0-8 4-18 9-23 10-10 19-65 20-124 1-19 4-32 7-28 3 3 8 82 10 176l5 171h-8c-4 0-14-4-22-9zm609-36c-7-9-11-17-8-20 2-2 12 4 21 15s13 20 8 20-14-7-21-15zm-1220 1c0-2 7-9 15-16l15-12v10c0 5-7 12-15 16-8 3-15 4-15 2zm28-43c6-2 12-9 12-13 0-5 11-20 25-34s25-21 25-17c0 14-53 71-65 70l-10-1 13-5zm567-3-6-10h10c6 0 11 5 11 10 0 6-2 10-4 10-3 0-8-4-11-10zm570-20-6-10 15 6c18 7 21 14 7 14-6 0-13-4-16-10zm-563-20v-25l5 13c2 6 2 18 0 25l-5 12v-25zm-505-44-6-16 7 1c4 1 13 1 20 0l13-1-6-10-6-10 15-6 16-6v-39l10 6 10 6-17 30c-10 17-25 37-34 45l-17 15-5-15zm975-38c-14-14-16-38-3-38 12 0 41 29 41 41 0 13-24 11-38-3zm-500-88c0-47 3-96 7-110l7-25 7 71 7 71-14 39-15 39 1-85zm-402 32c0-4 9-14 20-22l20-14v-35l21-12 21-11-5-20c-3-11-3-17 0-14 4 3 15-1 25-11 21-19 22-17 7 25l-11 32-9-6-9-5v11c0 6-11 23-25 38s-25 32-25 39v13h-15c-8 0-15-4-15-8zm839-30c-15-17-32-52-25-52 5 0 66 60 66 65 0 12-27 3-41-13zm-390-77c-3-6-6-28-8-50l-2-40 10 15 11 15 1-30c0-16 5-41 9-55l8-25v40c0 22 3 53 7 69l8 29-11-7-10-6-9 27-9 27-5-9zm331-5c0-5 5-10 10-10 6 0 10 5 10 10 0 6-4 10-10 10-5 0-10-4-10-10zm-20-14c0-9 5-16 10-16 6 0 10 4 10 9 0 6-4 13-10 16l-10 6v-15zm-622-48c-5-15 17-61 37-78 8-7 15-18 15-25s6-15 14-18l14-6 6 15 6 15-10-6-10-6v32l-10-6-10-6v20c0 21-31 81-42 81-3 0-8-5-10-12zm595 0c-6-7-14-23-17-35l-7-23h9c10 0 35 60 28 67-2 2-8-2-13-9zm-322-34 1-19 5 13c3 7 2 16-1 19-3 4-6-2-5-13zm25-12-7-22-10 6-10 6 3-43 3-42 13-5 13-4-7 27-6 26 16 12 17 12-9 25-9 25-7-23zm254-31v-12l-10 6-10 6v-39l-12-5-13-4 6-7c3-3 13-4 22-1l15 6 7 26c3 14 4 28 0 31-3 3-5 0-5-7zm-297-66v-50l4 28c2 15 2 37 0 50l-4 22v-50zm73 2c3-10 9-15 12-12s0 11-7 18l-12 12 7-18zm-229-9c-3-9-3-26 0-39l6-23 8 20 8 19 1-25 1-25 10 18 10 17-10 18-10 17-1-10c-1-5-5-1-9 9l-8 20-6-16zm181-14c-5-4-8-21-8-38l1-31 10 18c6 10 9 27 7 38l-3 21-7-8zm205-1c-7-3-13-10-13-17v-13l20 2c11 1 22 4 25 7 9 8-19 26-32 21zm-343-43c0-5 5-10 11-10h10l-6 10c-3 6-8 10-11 10-2 0-4-4-4-10zm202-18c1-15-1-33-5-39l-7-11 14-11 14-12 6 26 6 25-6 25c-3 14-10 25-15 25h-9l2-28zm88-7c0-8-5-15-10-15h-11l3-27 3-28-20 3-20 4 20-16 20-17-22-15-23-16v-78h-33l6-7 7-6-12-14-12-15 15-8 14-9 9 9c4 4 11 29 14 55l5 47 9-14 10-13-5 22-5 22 15 5 15 6-4 25-5 25h8c5 0 9-6 9-12 1-7 9 10 18 37l17 50-10 7c-16 12-25 9-25-7zm-289-13-1-23 10 6 10 6v-26l10 15 10 15v-12c0-6-4-15-10-18-5-3-10-13-10-21v-15l26 28 25 27-15 12-16 11 8 8c4 4-3 3-15-4l-21-11-5 13-5 12-1-23zm109 1v-20h30l-12 16c-7 9-14 18-15 20-2 2-3-5-3-16zm-73-72c-2-10-1-24 3-31l7-12 5 31 5 31h-8c-3 0-9-9-12-19zm59-11 6-35-11 15-10 15 1-36c1-20-3-42-7-50l-9-14 17 14 17 13-6-30-6-30 11-6 10-7v157l-10 14-9 15 6-35zm44-70v-20h30v40h-30v-20zm-34-105c4-8 8-15 10-15s4 7 4 15-4 15-10 15h-9l5-15zm75-9-14-16-12 10-12 10-11-25-12-25h20v-73l18 16 19 17 8-7 8-8-7 27-6 27 15 9 16 8-9 23-8 23-13-16z"/></g></g></svg>