<?xml version="1.0"?><svg version="1.2" baseProfile="tiny-ps" viewBox="0 0 300 300" xmlns="http://www.w3.org/2000/svg" xmlns:xlink="http://www.w3.org/1999/xlink"><title>qsco-project2</title><g><g fill="#fdfdfd" transform="matrix(.1 0 0 -.1 0 300)"><path d="M0 1500V0h3000v3000H0V1500z"/></g><g fill="#dcdcdc" transform="matrix(.1 0 0 -.1 0 300)"><path d="M1290 2812c0-4 6-14 13-21l12-12-18 7-17 6 6-17 7-17-23 7-22 7 4-13c2-7 15-16 29-20l24-7-17-1c-10-1-18-4-18-8 0-5-14-16-30-25-17-9-30-22-30-29v-11l16 6c9 3 28 9 42 12l27 5-18-11c-9-6-15-15-13-19 3-4-8-21-24-36-17-16-30-32-30-36v-8l35 15c19 7 40 14 47 14h12l-32-23c-31-24-34-41-5-30l15 6-16-31c-9-17-16-40-16-50v-20l37 34c41 38 54 37 29-1l-16-25h9c6 0 14 7 19 16l9 17-5-52-5-51h23v45l24 30 24 30 11-28c14-37 14-37-9-37h-20v-20c0-11 8-29 17-40l17-20 8 13 8 12v-16c0-9 6-22 14-28l14-12 6 10 7 10 14-6 15-5v-88h20v78l16 13 16 13 9-15 9-14 16 20c8 11 19 20 24 20s17 10 26 23l16 23-6 14-5 15h-41v10c0 6 5 10 10 10h10v40h9c5 0 21-24 36-52l27-53-4 56-4 57 18-22 19-21-16 33c-20 41-10 41 32 0l33-32 6 7 7 6-25 50-24 49 23-15c36-24 27-4-14 33l-38 33 50-24 50-24 4 12 4 11-34 28-33 28h14l15 1-19 14-20 15h11c7 0 23-4 37-10l26-10v10c0 14-30 40-46 40-8 0-14 4-14 9s-8 12-17 14l-18 5 21 1 22 1 13 17 14 16-27-6-27-7 6 17 6 16-18-7-19-7 20 22 19 22-17-6c-10-4-25-10-33-13l-15-6v21l-36-21-36-21-35 17-36 17-30-7-29-6-5-18-5-19-14 6-14 5v-22l27-11c14-5 32-8 40-5l13 5v-7c0-4-9-13-20-20l-20-12v-32l-16 6c-9 3-19 6-24 6-4 0-8 6-7 13 0 6-1 28-1 48l-2 37-27 8c-16 4-35 8-43 9-9 1-25 7-37 14-26 13-33 14-33 3zm300-48v-15l-10 6-10 6 5 10c9 14 15 11 15-7zm3-45-11-11 4-13 5-12-15-6-16-6v9c0 6 5 10 11 10h11l-11 14-12 14 18 10c21 12 31 6 16-9zm-11-221 20-20-8-6-7-7-4 13c-3 6-10 12-17 12s-17 5-24 12l-11 11 12 21 11 21 4-18c2-11 13-28 24-39zm-92 19c0-7-14-20-30-29-36-20-38-15-7 22 22 27 37 30 37 7zm-343-325c-22-25-21-48 3-72 25-25 45-25 71 1l20 20-3-18-3-18h40l-3 23-3 22h24l-6-35-6-34 19-6 19-6 21 11c11 6 20 14 20 18v7l183-1c100-1 185 0 188 2 3 1 3 19 1 39l-4 36-14-5-13-5-11 17-11 17-5-12-6-13h-138v-32l17 6 17 7-20-22-19-21-3 29-3 29-140 1-140 1-18 16c-10 9-27 16-38 16h-20l-16-18zm58-37v-30h-40l-3 18c-2 10-1 25 2 33l6 15 17-3 18-3v-30zm452-17-5-13v50l5-12c2-7 2-19 0-25zm-298-4c-6-8-15-14-20-14h-9l12 19 12 20 8-6 9-5-12-14zm58 4-5-13-1 19c-1 11 2 17 5 13 3-3 4-12 1-19zm40-10-5-13v50l5-12c2-7 2-19 0-25zm40 0-5-13v50l5-12c2-7 2-19 0-25zm98 5c-11-7-23-13-28-13h-10l18 20 18 20 10-7 10-6-18-14zm115 6v-20l-10 6c-5 3-10 13-10 21s5 14 10 14h10v-21zm-210 61c0-5 5-10 10-10 6 0 10 5 10 10 0 6-4 10-10 10-5 0-10-4-10-10zm210 0c0-5 5-10 10-10 6 0 10 5 10 10 0 6-4 10-10 10-5 0-10-4-10-10zm35-28c-3-3-5-15-5-27v-23l16-13 16-13 16 11c9 5 20 21 24 34l8 24-5-32-4-33h33c42 0 45 4 37 43l-7 32-61 1c-34 1-65-1-68-4zm38-26c6-16-2-28-14-20-12 7-11 34 0 34 5 0 11-6 14-14zm64-18-5-13v50l5-12c2-7 2-19 0-25zm141 30c5-7 37-49 70-93 33-45 77-96 98-115l39-34 3 16c2 8-6 40-18 70l-20 55-37 38-36 37-44 19c-25 10-49 19-55 19h-10l10-12zm-1048-30-54-33-23-34c-23-34-59-138-51-147 10-9 92 72 130 130 22 33 52 73 66 89l26 27h-20c-11 0-44-15-74-32zm1220-55c0-3 8-15 17-25l16-18 22-84 22-85-55 47c-30 26-68 59-83 75-15 15-30 27-33 27s3-23 14-52l20-52 95-91 95-91v211l-19 40c-20 44-77 105-98 105-7 0-13-3-13-7zm-1375-46-43-42-11-42-11-42 2-95 3-96h8c4 0 7 4 7 9s36 44 81 87l81 79 19 37 19 37-1 28v28l-11-22c-10-20-148-140-148-129 0 3 7 35 16 73l16 68 20 33 20 32h-13c-6 0-31-19-54-43zm1510-82c14-39 17-105 10-191l-7-88-10 20c-6 10-39 49-74 86l-64 66v-21c0-30 44-121 85-177 20-27 46-72 58-101l24-52 28 89 29 89v140l-17 50-17 50-26 30-26 30 7-20zm-1622-62-28-58-4-77-3-77 27-83c15-46 29-90 32-98l5-15 23 52c13 29 38 73 55 98 17 24 42 68 55 97l25 53v54l-49-52c-27-29-60-69-74-89l-24-37-7 117-7 117 10 28 11 27h-10c-4 0-21-26-37-57zm-382-67-12-29 21-14c11-8 20-18 20-23v-8l-52 14c-29 7-59 14-65 14h-13v-23c0-13 3-27 7-30l6-7 11 9 11 8 83-19 82-20v-9c0-20 19-7 28 20 11 32 5 46-12 31l-12-9-13 8-14 9 21 6c11 4 26 5 32 4l13-3 8 29c5 17 7 31 5 33-1 1-20-6-41-17-22-11-47-20-56-20h-17l-15 38-15 37-11-29zm2394-10c-16-7-38-22-48-33l-18-20-12-63-13-62 4-29c2-16 8-29 13-29h9v61l15 5 15 6 13-10c6-5 24-12 38-15l25-6 36 10 37 10 25 30 26 31v54l-16 23-17 23-33 14c-41 17-60 17-99 0zm120-46 17-19-6-24-6-25-34-16c-19-9-47-19-63-22l-29-6-23 19-24 20 6 25 7 26 42 21c24 11 55 21 69 21h26l18-20zm-1654-12-43-21-28-39-28-38-12-51-12-51 6-44c3-24 15-62 26-83l19-39 38-31c21-17 41-31 46-31s27-15 50-34c23-18 66-46 95-60l54-27 50-6 51-6-7 11c-4 7-14 12-23 12-24 0-76 35-100 69l-22 29 42 26 43 25 27 38 26 38 11 52 12 53-12 52-11 53-26 38-27 38-41 25-42 24h-118l-44-22zm160-31 34-22 18-50 17-50-3-75-3-75-18-38-19-38-28-14-28-15h-72l-23 15-24 16-21 49-21 49v138l11 34c21 61 65 97 120 98l26 1 34-23zm427 37-28-15-15-29c-8-16-15-42-15-57v-28l20-32 19-32 82-48 81-47 16-24 15-24-9-26-9-27-28-13-28-13-30 6c-16 4-43 18-59 31l-29 25-7 35-6 34h-28v-160h14c8 0 16 6 19 13l4 12 46-12c26-7 62-13 80-13h32l34 18 34 19 19 34 19 34-5 34c-3 18-12 43-20 55l-14 23-93 54-92 54-10 22-10 22 17 25 16 26 26 6 26 7 34-17 34-16 14-32c8-18 17-41 20-51l6-18 10 6 10 6v149h-14c-8 0-16-6-18-12l-5-13-27 13-27 12h-47l-47-1-27-15zm652-86c0-35-16-90-59-208l-20-55-1 23c0 27-91 221-104 221l-9 1 7-54c3-30 20-107 36-171l30-116v-82l59 83 60 83 17 63 17 63-5 81-5 81-11 11-12 12v-36zm-1788-48-11-59 11-68 10-68 19-37c11-21 41-67 67-103l47-66 6 58c3 32 14 83 23 113 20 64 46 231 39 243l-5 8-39-76c-22-43-46-100-54-129-7-28-14-43-14-33-1 9-17 58-36 107l-35 90v80h-18l-10-60zm-460-87 3-18h30l3 18 3 17h-42l3-17zm74 9c-2-4 0-18 5-31l9-23 13 10 13 11 76-6 76-6-1-23-2-23 9-3c5-2 14 5 20 15l11 17-11 18c-6 9-22 22-35 28l-24 12-77 5-78 5-4-6zm2580-47-5-15h-89l-23-18-22-19 8-19c4-10 7-25 6-31-1-7 3-22 9-32l10-20 28 15 27 14h85v24c0 14-4 27-9 30l-9 6-4-10-3-10-50-2-49-3-4 16-3 16 61 7 60 7v24c0 13-4 26-9 29l-9 6-6-15zm-595-100c-6-22-16-91-21-153-11-125-15-150-36-204-8-21-12-38-9-38 2 0 45 30 94 66l90 65 35 48c41 55 54 86 67 159l10 52-7 11-6 10-23-48c-12-26-42-70-66-98-25-27-54-62-65-77l-21-27-1 72c-1 40-8 101-15 137l-13 65-13-40zm-1412-45c-7-41-13-103-13-136l1-62-26 32c-14 17-47 55-73 84l-47 52-12 35c-7 19-17 35-22 35h-9l7-52 7-53 22-50c13-28 38-68 56-89 35-39 199-161 207-153 2 3-2 18-10 34-18 35-24 69-36 203-6 58-17 125-24 150l-14 45-14-75zm739 15-11-24 13-16 12-15h47l9 18 10 17-9 23-8 22h-51l-12-25zm-1201 2-6-17-33-1c-70-2-97-19-79-48l9-15 14 11c7 6 29 13 49 16l37 5 11-11c19-19 13-26-26-32-21-3-48-8-60-11l-23-4v-50h10c6 0 10 4 10 9v10l55 6 54 7 11 13 11 13-4 35c-2 19-10 46-18 58l-15 23-7-17zm1789-184-36-57-26-80c-29-88-68-171-84-181-5-3-10-11-10-17v-10l18 7c9 3 48 13 86 21l69 14 49 27 50 27 43 48c24 27 53 68 65 93l22 45-4 17-3 18-23-36-22-36-37-25c-21-13-73-45-115-70l-78-46 21 40 21 41 13 81c7 45 16 93 20 109 11 41 0 33-39-30zm533 35c-1-24-2-35-13-84l-6-29h145l13 9 14 8-5 24-4 24 7 5c4 2 5 15 3 28l-5 23-58-4-57-4-7 11c-4 6-11 11-17 11h-9l-1-22zm114-45c4-2 7-11 7-19v-14h-32c-18 0-43 3-55 6l-23 6v39l48-7c26-3 50-8 55-11zm-1899 32c4-16 13-68 21-114l15-84 21-40 21-41-18 15c-9 8-58 37-108 65l-91 51-32 42-33 43v-19c1-32 36-96 80-146l42-47 45-27 45-26 90-19c50-10 93-16 96-13s-4 15-16 28c-23 25-47 76-69 152-18 61-52 128-88 175l-27 35 6-30zm-477-98-5-13-61-19c-34-10-61-21-61-25s9-15 20-25l20-18 13 15c6 9 28 21 48 27l36 12 16-7 17-6-11 31c-13 36-25 46-32 28zm-192-77c-8-13 3-30 20-30 14 0 27 24 18 34-10 9-31 7-38-4zm1722-98-103-100-42-13c-23-6-42-15-42-19 0-3 42-16 93-28l92-22h127l60 32 59 31 29 38c17 20 30 42 30 48v12l-32-24c-40-30-85-44-163-52-33-3-75-8-94-11l-34-6 33 28 33 28 34 75c19 40 31 76 29 79-3 2-52-40-109-96zm-927 83c0-3 16-37 36-76l35-71 27-25 27-25-85 7c-108 9-148 19-194 50l-36 24v-10c0-5 19-30 42-55l42-46 41-20 40-21 65-4 65-4 99 25c54 14 100 27 103 29 2 3-19 13-48 22l-53 18-97 93c-88 86-109 103-109 89zm1574-50c-8-19 2-45 16-45h10v32l18-7c9-4 29-12 45-17l27-10v-14c0-16 16-19 24-5l6 9 20-5 20-5v8c0 5-9 20-20 34l-19 25-6-7-7-6-40 14c-22 8-51 14-65 14h-24l-5-15zM403 908l-22-10-11-28-12-28 11-21c14-26 42-41 76-41h27l29 29 29 29v17c0 9-11 27-25 40l-24 25-28-1c-15 0-38-5-50-11zm87-36v-19l-24-22-24-23-23 4-22 3-4 12-5 13 28 25 27 25h47v-18zm1971-68-23-29 30-6c16-3 46-16 66-28l37-23 14 6 15 5v43l-15-6-16-6-38 25c-22 13-41 29-43 36l-4 12-23-29zm-1146-19c-22-7-71-27-108-44l-69-31h-119l-34 14-35 15v-9c0-24 104-83 163-94l38-7 52 15 53 15 57 41c70 49 111 70 133 70h17l-59-39c-32-21-77-57-98-79l-40-41 19-21 18-20 61 63c34 35 80 76 103 91l41 27 32-16c17-9 65-48 106-87l74-71 20 18 20 19-32 33c-18 19-58 50-88 71-30 20-59 40-65 44l-9 8h41l81-53 80-54 46-13 46-13 43 5c49 6 99 27 142 62 39 32 30 39-25 20l-45-16-50 5-50 6-85 38-85 38-175 2-175 1-40-13zm-599-68 5-14-16-13-15-13-18 17-19 16h-65l-29-30-30-30 3-21 3-22 19-11c11-6 28-19 38-28 10-10 25-18 33-18h15v31l53 49 52 49 20 1 20 1-30 24c-34 28-47 32-39 12zm-59-43 6-15-23-25-23-24h-17c-9 0-20 3-23 6l-6 7 11 21c23 42 64 59 75 30zm1968 36c-8-14 3-30 21-30h14v40h-14c-8 0-18-4-21-10zm-328-78c-42-43-62-72-38-58l8 6 46-36 46-36 18 4 18 3 10 23c5 12 15 22 22 22s17 9 23 20l11 20-8 1c-4 1-13 2-19 3-16 2-74 53-74 65 0 20-16 11-63-37zm69-27 33-25-5-15c-4-8-12-15-19-15-19 0-75 49-75 66v14h17c9 0 31-11 49-25zM813 540c-13-5-23-14-23-19v-9l33 2 32 1 3-26 3-26-17-17-16-17-17 3-16 3v40l-16 3-16 3-6-15-6-15 17-21 17-21 34-1 34-1 29 32c34 38 35 55 3 86-26 27-37 29-72 15zm1288-33c-13-6-29-20-35-29l-11-18 11-17 11-18 52-3 51-3v-8c0-14-26-20-41-10-30 19-38 6-15-24l14-18 31 16c17 8 31 17 31 19 0 3 3 11 6 19l5 14-16 17-16 16h-91l5 13 4 12 32-1c33-2 38 5 19 24-15 15-17 15-47-1zm-1058-82c-13-9-23-21-23-27v-10l18 7c39 17 71 1 72-34v-13l-27 6c-16 3-38 8-50 12l-23 6v-49l18-16 19-17h49l22 20c12 11 25 32 28 46l7 26-20 26-20 27-24 3-24 3-22-16zm50-95 12-1-18-10-17-10-10 6c-6 3-10 11-10 17v10l16-6c9-3 21-6 27-6zm741 72c-6-4-16-17-23-30l-12-23 7-22c3-12 13-30 22-39l15-18h74l18 20 18 20-1 32-1 33-22 17-21 18h-32c-17 0-36-4-42-8zm65-38c12-15 21-35 21-46v-19l-17-6-16-6-24 27c-23 27-30 56-16 69 13 14 32 6 52-19zm-604-18-17-25 7-20 6-20 49-30 50-31v-30h-60l-12 25c-6 14-15 25-20 25h-8v-68l46-7 45-6 25 16 24 15v48l-29 24c-17 12-41 31-55 41l-25 17 5 15 6 15h58l19-31 18-30 7 16c3 9 6 27 6 39v22l-65 2-64 3-16-25z"/></g><g fill="#afafaf" transform="matrix(.1 0 0 -.1 0 300)"><path d="M1290 2810c0-6 7-13 15-16l14-6-14-15-15-14-20 6-20 6v-9c0-12 23-22 53-23l22-1-52-24c-29-13-53-27-53-32v-8l43 3 42 3-13-6c-6-3-10-9-7-14l5-8-35-26c-19-15-35-31-35-36v-9l33 11c17 6 43 18 57 27l25 15-24-27c-14-15-21-27-18-27 4 0-4-22-18-50-14-27-25-55-25-61v-11l40 36c22 20 42 36 45 36s-2-15-11-32l-17-33 16 13 16 14-6-54-5-53 33 63 33 62 8-8c4-4 9-25 11-46l2-39-14-5-14-5 7 12 7 11h-21v-17c0-10 7-26 15-37l14-18 10 7 11 6v-15c0-8 4-18 10-21l10-6 20 11 20 10 6-27c3-16 10-41 14-58l8-30 1 48 1 47h21l-7 11-6 11 20-11c11-6 25-11 31-11h11v42l17-6 16-7 9 13c4 7 7 24 7 38l-1 25-4-12-5-12-15 6-14 5v38h10c6 0 10 6 9 13-1 6-1 21 0 32l2 20 12-25c6-14 15-28 20-31s15-24 23-45l15-39-4 57-4 57 14-17 13-17-10 28-10 27h8c4 0 22-14 40-31l32-30v18c0 10-12 38-26 63l-25 44 19-17c10-9 25-17 33-17h14l-32 23c-18 12-35 28-37 34l-5 13 17-10c9-5 32-15 50-24l32-14v8c0 4-17 23-37 42-21 19-39 40-41 46l-2 12h56l13-12 13-13-4 15c-2 8-18 22-36 31l-31 16 7 8 7 8-12-6-11-7-19 7-18 8 34 5 34 5 4 12 4 11-19-4-18-5-13 14-12 15 11 7c5 3 10 11 10 16v10l-31-16c-17-9-33-14-36-12-2 3-19-1-36-8l-30-13-3-16-2-16h14c8 0 14-4 14-10 0-5-7-10-16-10h-16l5-20 5-20-11-1c-7 0-20-2-29-4l-17-3 6 14c3 8 8 12 12 10l7-5-2 30-2 29h9c14 0 6 23-14 41l-18 17-22-5c-20-5-67-45-67-58 0-3 16-5 36-5h36l-6-16c-3-9-6-18-6-20 0-3-4-2-10 1l-10 6-1-13c-1-7-1-16 0-20 1-11-31-10-48 1l-14 9 8 12 7 11-21 6c-24 6-28 23-6 23h15v36l-37 14c-21 8-44 13-50 12-7-2-22 2-33 8l-20 11v-11zm73-235c-3-9-8-14-10-11-3 3-2 9 2 15 9 16 15 13 8-4zm122-45c7-23-1-40-20-40-7 0-15-7-19-15-3-8-10-15-16-15h-10l22 45c24 50 33 55 43 25zm85-5c0 6 7-5 16-24l15-35-16-15-15-15-15 17c-8 9-10 12-3 7 16-13 28-13 28 2 0 7-12 22-27 34l-27 22 14 17 14 17 7-19c4-10 8-13 9-8zm-90-70c-7-8-18-15-24-15l-11 1 19 14c25 19 32 19 16 0zm11-38-12-12 7 18c3 10 9 15 12 12s0-11-7-18zm50 6 14-18-17 14c-10 7-18 15-18 17 0 8 8 3 21-13zm30-76-12-12 7 18c3 10 9 15 12 12s0-11-7-18zm-307 218-19-14 11-1c6 0 17 7 24 15 16 19 9 19-16 0zm-114-375c-23-23-24-33-10-61l11-19h58l15 16 16 15v-31h30v50h9c14 0 19-23 10-46-10-27-3-34 32-34h27l6 15 5 15h298l-6 33-7 32h-39v-36l-15-9c-25-16-32-11-16 12 22 31 20 38-8 38h-25l-7-11-7-11 23 7 22 7-17-26c-10-14-21-26-26-26h-9v62l-12-5-13-4 2-29 2-29-10 33-10 33-27-4-27-4 3-26 3-27h-20l-3 28-3 27h-170l-17 17c-23 23-43 23-68-2zm58-39-3-26h-40l-3 23-4 23 13 15 12 14 14-12 14-11-3-26zm122-1c0-5-4-10-10-10-5 0-10 5-10 10 0 6 5 10 10 10 6 0 10-4 10-10zm33-18-5-19-26 5-26 5 22 8c12 5 22 13 22 19v11l9-5 9-6-5-18zm94-4-5-13v50l5-12c2-7 2-19 0-25zm-124-35c-7-2-19-2-25 0l-13 5h50l-12-5zm167 107c0-5 5-10 10-10 6 0 10 5 10 10 0 6-4 10-10 10-5 0-10-4-10-10zm210 0c0-5 5-10 10-10 6 0 10 5 10 10 0 6-4 10-10 10-5 0-10-4-10-10zm-46-23c-3-9-4-26-2-39l3-23 36-3 35-3-4 36-4 36-12-4-11-4 3-26 3-27h-23l4 32 3 31-12 4-13 5-6-15zm86-12-12-14 4-18 3-18 27-3 26-3 7 21 7 21-12 14c-16 19-34 19-50 0zm38-29 4-18-14 4c-7 3-15 13-16 22l-4 18 14-4c7-3 15-13 16-22zm31 39s-1-15-2-33l-2-32h65v23c0 12-4 27-8 34l-8 12-22-2c-12-1-22-1-23-2zm41-41c0-8-4-14-10-14h-10v41l10-6c6-3 10-13 10-21zm141 10c14-16 40-49 57-74 16-25 55-70 86-100l56-54v11c0 7-9 38-21 68l-21 57-31 34c-30 35-78 64-127 79l-25 7 26-28zm-1042-9-45-24-36-39-36-40-16-55c-9-30-16-58-16-62 0-17 89 74 135 138 28 38 56 78 64 88l13 19h-8c-5-1-30-12-55-25zm1220-83 20-28 20-81c12-45 21-83 21-85 0-5-74 60-131 113l-39 37v-17c0-9 11-35 23-58l22-42 88-81 87-82v185l-12 40-12 41-42 43c-22 24-46 43-53 43h-12l20-28zm-1377-8c-38-30-62-73-73-129l-8-40 6-83 6-83 18 28c10 16 47 54 83 86l64 57 21 43c12 24 21 50 21 59v16l-38-37c-21-20-60-55-86-79l-48-43 6 18c3 10 12 49 21 87l15 68 21 29c25 36 14 37-29 3zm1504-134c4-25 7-49 7-55 0-5-1-57-1-115l-2-105-20 40-20 40-60 60-60 59v-12c0-30 41-114 92-189l56-81 7-34 8-33 29 90 29 90 1 76 1 75-21 47c-12 26-28 57-37 70l-16 22 7-45zm-1632-32-27-53-5-70-4-70 32-103 33-104 17 44c9 24 36 73 60 108 43 63 80 145 80 176v15l-57-62c-32-34-65-75-74-92l-17-31-7 117c-4 65-5 131-1 147 8 43 0 37-30-22zm-377-55c-12-12-7-33 13-55 11-12 18-23 16-25s-30 3-62 11l-59 15-8-8-8-8 7-16 6-17 10 6 9 6 72-17c40-10 82-23 93-31l22-13 6 22c3 12 6 26 6 30v8l-10-6-10-6-21 6-22 7 14 9c8 5 24 9 35 9h22l6 16c3 9 6 19 6 24v8l-51-19c-28-11-53-18-55-16-2 1-9 17-17 35l-13 32-7-7zm2398-19c-21-7-44-19-52-27-18-18-34-76-40-144l-5-53h11c6 0 10 3 10 8-3 16 2 38 10 51l9 14 23-17 23-16h77l30 16 31 15 14 34 14 33-11 31-11 31-20 11c-12 6-33 15-48 19l-27 8-38-14zm107-36c8-7 18-21 22-31l6-18-24-24-24-23-41-13-42-12-27 9-27 9-3 28-3 28 13 16c18 22 67 42 104 43h30l16-12zm-1637-15c-45-23-84-63-108-108l-21-40v-132l25-49 25-49 49-32c28-18 68-47 90-64 22-18 64-43 94-57l54-25 46-4 46-4-50 24-51 24-27 32c-30 37-34 51-12 51 8 0 34 17 57 38l41 37 18 40 19 40v130l-19 40-18 40-38 33c-47 42-74 52-138 52l-52-1-30-16zm160-46 33-33 11-39 11-40v-140l-19-42-19-41-26-18-27-17h-78l-27 17-26 18-19 41-19 42v165l17 41 16 41 31 19 31 19h77l33-33zm397 29-37-34v-91l30-31c17-18 60-49 97-71 71-42 98-70 98-105v-21l-19-17-19-17-33-5-34-5-35 19-35 19-15 41c-9 22-19 44-23 48l-7 7v-167l16 16 16 16 45-15 45-15 40 5 41 6 26 18c14 11 34 36 44 56l19 37-11 33-11 34-28 25c-15 13-60 43-99 67l-73 42-10 19c-15 29-12 47 12 70l22 20h64l31-26 31-26 8-31c4-17 13-32 20-35l12-4v152h-8c-4 0-13-5-19-11l-11-11-33 11c-17 6-52 11-76 11h-43l-38-34zm665-99-5-53-26-62c-15-34-30-79-35-100l-9-37-1 31-1 31-50 99c-28 54-53 101-57 104-10 10 9-104 34-200 14-52 28-121 31-154l7-58 49 68c27 38 58 89 70 114l20 45 1 102v102l-11 11-11 11-6-54zm-1782-11-8-49 6-67 6-67 15-37c9-21 40-71 71-113l55-76v98l25 89 24 89 7 76 6 76-43-85-42-85-13-55-12-55-1 23c-1 12-15 60-33 105-17 45-37 105-43 132l-12 50-8-49zm-465-91v-16l18 3c21 4 19 22-2 26l-16 3v-16zm82-11 4-19 19 3c11 2 53 1 93-3l74-7-6-24-6-24h14c8 0 17 7 20 16l6 15-10 19c-13 25-34 31-129 37l-83 6 4-19zm2578-32v-12l-37-1c-21-1-49-4-63-8l-25-7v-40c-1-21 3-47 8-58l9-18 11 11 11 11h46c25 0 51 4 59 9l14 9-7 18-7 17-11-11-12-12h-94l-6 15-6 16 26 9c14 6 41 10 60 10h35l6 16 6 15-12 12-11 11v-12zm-599-107c-7-27-16-99-21-160l-9-110-15-50c-9-27-14-50-13-52 6-5 135 90 174 129 22 22 53 63 68 90l27 50 4 67 4 66-16-42-16-43-42-47c-24-27-58-68-77-93l-34-46 3 66 3 65-14 80-13 80-13-50zm-1411-57-13-85 5-55 4-56-25 33c-14 19-48 59-74 89s-57 71-68 93l-20 38 4-56 3-55 23-46c12-26 40-65 61-87 40-41 180-144 187-137 3 2-2 24-10 48-9 24-18 77-22 118-8 99-25 212-35 229l-7 14-13-85zm746 47c-9-9-16-20-16-25s7-16 16-25l16-16 16 3c8 2 20 11 26 21l11 17-11 18c-6 9-18 18-26 20l-16 3-16-16zm-1206-13v-10l-60-7-60-7v-50l13 10c6 5 33 13 59 17l48 7 6-17 7-17-13-8c-7-4-34-11-61-14l-49-7v-18c0-26 10-32 27-16l14 15h29c16 0 40 4 54 10l26 10v19c0 11-5 23-10 26l-11 7 6 17 5 18-15 13-15 12v-10zm2327-129c-4-3-7-16-7-28v-21l33 4 32 4 28-11 27-11v-30h-91l-20 10-19 11v-62l12 7c6 4 37 6 68 5l56-2 13 15 12 15-11 20-11 21h21v35l-62 2-61 2-7 10-6 11-7-7zm-541-55-35-53-31-97-31-97-25-37c-14-20-23-38-21-40 8-9 155 30 200 53l49 24 45 45 44 45 25 52c13 29 24 58 24 66v14l-29-40-30-41-56-33c-31-19-87-53-123-77l-66-43 16 18c9 10 23 32 31 49l16 31 16 98c8 54 18 102 21 106 3 5 3 9 0 9s-21-24-40-52zm-1251 26c3-12 12-57 19-100 17-92 28-125 59-168l22-31-33 27c-18 15-69 46-113 69l-79 41-42 47-41 46 8-25c23-75 75-144 147-193l53-36 75-16c41-8 85-17 97-20l23-5-30 46c-16 26-39 77-51 113-26 80-69 167-98 201l-22 25 6-21zm-475-100v-11l-60-18-60-18v-12c0-7 6-18 14-24l14-12 5 14 5 14 45 13 45 12 11-7 11-6v13c0 8-7 23-15 34l-14 19-1-11zm-188-78c1-10 8-17 13-17 15 1 12 24-3 29l-14 4 4-16zm1721-94-99-99-40-13c-21-7-43-15-48-18l-10-6 100-23 99-23h111l51 25 51 26 42 45c23 25 40 48 37 50-3 3-21-6-41-20l-37-25-52-10c-29-5-83-12-122-15l-70-6 28 21 28 21 40 80c22 44 38 82 36 85-3 2-49-40-104-95zm-904 27c32-71 74-126 104-140l22-9-35 5c-19 2-66 7-105 10-92 8-136 20-169 46-40 31-41 18-2-27l34-40 53-29 54-29 70-1h70l89 24 88 24-58 27-59 28-65 67c-36 36-77 75-92 86l-27 20 28-62zm1544 5-6-15 12-12 11-11v12c0 16 16 15 66-4l43-16-6-14-5-14h11c6 0 11 5 11 11v11l26-6 26-7-18 30-17 29-12-4c-6-3-30 2-54 11-24 8-52 15-63 15h-19l-6-16zM410 907c-13-7-30-23-36-36l-12-24 7-21 8-21 27-13 27-13 35 11 35 12 11 23 11 24-6 24-7 24-25 11c-33 15-44 15-75-1zm79-21 12-15-11-20c-6-12-24-28-40-36l-29-15-16 6-16 7 3 20 3 21 34 23c40 27 45 28 60 9zm1978-76c-9-13-17-28-17-33v-8l10 6 9 6 57-32 56-32 9 14c13 21 11 29-7 29-9 0-34 10-55 22l-38 21-3 16-3 16-18-25zm-1167-33c-36-13-83-33-106-45l-41-21-49-6-49-6-47 14c-27 8-48 12-48 8 0-11 53-48 95-65l37-16h95l44 15c23 9 66 33 93 54 28 21 61 43 74 50l23 12 22-3 22-3-46-27c-46-27-149-114-149-127 0-3 9-12 19-18l20-12 68 68c37 37 83 76 102 85l34 18 23-11c13-6 60-45 104-87l80-77 15 13c8 7 15 18 15 25 0 16-75 80-144 124l-50 31h60l64-45 64-45 55-21 56-21 49 6 48 5 42 25c37 22 87 66 74 66-3 0-23-7-44-16l-38-16-56 4-55 4-85 39-85 39h-80c-44 0-89-1-100-2-11-2-51 0-90 3l-70 6-65-24zm-580-57c0-7-7-21-16-31l-16-17-19 19-19 19h-20c-12 0-33-6-49-14l-27-15-12-26-12-26 10-20 11-19h39v-28l20-5 20-5v12c0 17 101 114 123 118l19 3-26 24-26 24v-13zm-56-46 6-17-17-19c-10-11-25-24-35-29l-17-9-15 6c-22 8-20 26 5 58l20 26h47l6-16zm1960 35-6-11 11-11 11-11 11 11 11 11-6 11c-4 6-11 11-16 11s-12-5-16-11zm-297-47c-10-10-17-22-17-26v-7l10 6 9 6 38-35 38-35-16-16-15-15-37 27c-20 16-36 34-37 41 0 16-10 15-32-5l-18-16 20-11c11-6 37-24 59-39l39-29 21 12 21 11v40l11-7 11-7 9 14c12 20 11 29-4 29-7 0-29 14-50 31l-37 31 5 9 6 9h-9c-5 0-16-8-25-18zM802 527l-10-12h61l10-16 11-17-17-26-17-26h-50v19c0 11-5 23-10 26l-10 6-6-16-6-16 17-19 18-20h58l24 25 25 24v57l-12 12-12 12h-64l-10-13zm1303-19c-22-11-45-37-45-49 0-4 7-15 16-23l15-16h91l-5-12-4-13-27 2c-28 2-33-6-14-25l11-11 29 20 28 20v38l-20 11-19 10-33-2-32-3-4 19-4 19 36-6 36-6-10 20c-12 22-17 23-45 7zm-1066-94-12-15 26 6 27 7 15-12 15-12v-47l-46 14-45 13-6-14c-8-22 4-43 32-54l25-10 23 9c13 5 29 16 36 24l12 16 1 30 1 30-13 16-12 15h-66l-13-16zm45-80 16-6-6-9c-3-5-13-9-24-9h-18l-6 15-5 15h13c8 0 21-3 30-6zm748 60-22-15v-69l20-20 20-20h56l22 16 22 15v66l-23 21-23 22h-25c-13 0-35-7-47-16zm58-14 18-10 10-28 10-29-8-12-7-13-24 4-24 3-17 34-17 33 6 14c6 16 27 18 53 4zm-585-26-16-17 3-25 3-26 35-24c19-12 43-30 53-38l19-15-12-15c-7-8-20-14-30-14-19 0-50 30-50 49v12l-10-6-10-6v-56l33-2c17-1 41-2 51-2h19l20 19 19 20-7 21-7 22-49 31-50 30 3 17 3 16 18 3c10 2 29 1 42-2l24-6 7-23 8-22 6 30 5 30-25 6c-14 4-39 7-57 8l-32 1-16-16z"/></g><g fill="#7c7c7c" transform="matrix(.1 0 0 -.1 0 300)"><path d="M1309 2797c7-9 20-17 29-17h15l-7-7c-9-9-13-10-58-12l-33-1 15-10c8-5 26-10 40-11l25-1-52-23c-28-13-54-28-57-33l-5-9 49 8c28 4 56 11 62 15l13 7-19-21c-11-12-21-21-23-19s-22-13-45-35c-23-21-39-40-36-43s30 8 61 23c32 16 57 26 57 23-1-10-30-46-38-46-4 0-18-8-32-18-13-9-19-17-13-17s16 7 23 15c21 26 22 10 1-26-10-19-22-45-26-59l-7-25 46 45c25 24 46 48 46 52s9 22 21 40l21 33-7-25c-4-14-16-42-26-63l-19-38 11 7 11 7-5-19c-3-11-8-35-12-54l-6-35 21 30c11 17 27 45 36 64l14 34 7-6c3-4 6-21 6-39l-1-33 19 40 19 40-4 23c-5 31 5 27 32-11l23-32-26-20c-14-12-25-24-25-29v-7l22 7 23 7-14-17-15-17-18 4-18 5v-13c0-15-27-28-41-19l-9 5v-13c0-7 6-20 13-29l12-16 12 4 11 4 7-20c3-12 11-21 17-21h10l-12 15-12 14 6 9c3 5 17 12 31 14l25 5-11-13-11-14-9 6-9 5v-23l19 5 20 5-5-13-5-13 10-7c6-3 12-18 12-33l1-27 5 20c2 11 6 30 9 43l4 22h15c7 0 16 4 19 9l5 8-24-2-24-3 6 13 5 14 21-8 22-9-1-20v-21l8 5c12 8 10 38-4 54-7 8-2 5 12-7l25-21 13 13c6 8 12 24 11 37l-1 23-4-12-5-12-15 6-14 5v40l-14-11-13-11-16 6c-8 3-18 12-21 20l-5 14 24-16 25-16v32l-25 10c-26 10-29 17-19 44l6 16h38v-17c1-10 7-29 14-42l14-25 7 35 8 34 8-24c5-13 18-35 28-50 10-14 21-35 24-46l5-20 1 25c0 14-3 40-8 58l-10 32h18l-20 46c-12 25-19 48-16 50 2 3 10-10 17-28l13-33 41-37 41-38 3 10c2 6-6 26-17 46-26 44-26 47 2 33l22-11-11 11c-6 7-19 14-29 15l-17 2-20 32-20 32h9c6 0 18-9 28-20s20-18 23-15c2 2 18-3 34-11 17-9 32-14 34-11 5 5-84 87-95 87-5 0-15 8-22 17l-14 17 13-8c6-4 35-11 62-15l50-8v9c0 5-10 12-22 17-13 5-36 14-53 21l-30 13 33 7c64 14 45 24-45 23h-22l5 8c3 5 13 9 23 9s24 7 31 15c16 19 9 19-36 0-38-16-36-15-64-15h-20v-38l13-5 12-5-19-14-19-15 6-11 7-10-31-11-31-11 8 18c4 9 7 29 8 45v27h18l-12 15-12 15h8c19 0-22 20-42 20h-22l-11-14-12-14 22-7 22-7-14-9-14-9h35v-10c0-6-9-18-19-27l-19-16 5-13c6-17 1-17-32-2l-25 11v37h-15c-8 0-15 5-15 10 0 6 7 10 16 10h15l-3 18-3 17-45 11c-25 7-54 15-65 20l-20 8 14-17zm267-234c-10-10-19 5-10 18l8 13 4-13c2-7 1-15-2-18zm-72-127c-3-8-21-27-40-41l-34-26v10c0 6 10 16 23 22 12 7 28 20 35 31 16 22 24 24 16 4zm40-13c11-13 16-23 13-23-10 0-37 31-37 42 0 6 1 9 3 7 1-2 11-14 21-26zm-39-223c3-5 8-10 11-10 2 0 4 5 4 10 0 6-5 10-11 10h-10l6-10zm205-1v-10l10 6c6 3 10 8 10 11 0 2-4 4-10 4-5 0-10-5-10-11zm-563-6c-4-3-7-18-7-33v-26l12-12c7-7 22-12 34-12h22l11 14 12 15-3 27c-2 15-7 29-13 31l-10 3v-75h-40v38c0 36-5 44-18 30zm521-8c-2-2-2-20 0-40l4-35h58v60h-20v-50h-32l4 30c4 28-3 46-14 35zm-423-45v-30h22l-5 25-4 25h32l1-12c1-7 0-26-1-41l-2-28 29 3 28 3 3 18 3 17-23 1-23 1 15 5c29 11 40 43 15 43h-14l5-15 6-15h-22v30h-65v-30zm90-40 6-10h-41v10c0 6 6 10 14 10s18-4 21-10zm25 59v-10l10 6c6 3 10 8 10 11 0 2-4 4-10 4-5 0-10-5-10-11zm29-1c-1-7-1-19 0-25l2-13h-22l6 10 6 10h-10c-6 0-11-7-11-15v-15h87l-1 21-1 22 14 5 14 5-5-27-5-26h24l-5 30-4 30h-55l5-25 4-25h-22v50h-10c-5 0-11-6-11-12zm111-18v-30h20v60h-20v-30zm52 0-23-30h26l17 30c22 39 8 39-20 0zm48 19v-10l10 6c6 3 10 8 10 11 0 2-4 4-10 4-5 0-10-5-10-11zm29-1c-1-7-1-19 0-25l2-13h-22l6 10 6 10h-8c-4 0-16-7-25-14l-17-13 43-1 43-2-5 30c-4 29-21 42-23 18zm115-3c-4-8-4-22 0-30l5-15h19c11 0 25 6 31 14l11 13-6 17c-3 9-10 16-14 16h-7l5-25 4-25h-34l4 25 5 25h-9c-5 0-11-7-14-15zm71-15v-30h25v50h22l-4-25-5-25h24l-5 30-4 30h-53v-30zm175 21c0-5 7-14 16-22 8-7 30-35 49-63s59-76 90-106l56-55-6 30c-4 17-18 54-32 83l-25 53-31 25c-18 14-51 34-74 44l-43 19v-8zm-1015-20c-52-23-102-66-121-103-21-40-44-118-35-118 13 0 90 86 145 163 30 42 54 77 53 77s-20-9-42-19zm1205-89 22-29 22-92 23-92-27 28c-37 39-150 135-150 128 0-3 7-22 15-43l15-37 89-85 89-85 6 75 6 75-9 38c-5 21-21 56-35 77l-26 39-31 16-31 16 22-29zm-1389-21c-17-16-38-45-46-65l-15-35v-209l86 86 86 85 19 41c10 23 19 46 19 52s-40-28-88-75l-88-86 22 92c12 51 29 104 38 118l16 25h-9c-5 0-23-13-40-29zm1518-122 8-36-5-122-5-122-17 38-17 38-63 63-62 64 7-24c15-50 44-106 94-182 28-44 54-91 58-105l6-25 29 89 28 89v132l-15 45c-9 24-24 55-35 69l-19 25 8-36zm-1638-43-24-50-5-63-5-62 33-101 33-100 23 50c13 28 36 69 52 93 39 57 68 115 77 155l7 34-62-67c-34-36-67-80-75-97l-13-32-6 120c-4 65-8 130-10 144l-2 25-23-49zm36-268-5-13-1 19c-1 11 2 17 5 13 3-3 4-12 1-19zm-411 213-7-11 20-27c12-14 19-28 17-31-3-2-28 1-56 7-65 14-70 14-70-2v-12l65-13c36-7 83-18 104-26l39-13 5 18 5 19h-18c-10 0-26 3-35 6l-17 7 32 13c18 8 36 11 41 8l9-5v10c0 5 3 16 6 25l6 16-43-20c-58-26-64-25-82 11l-15 31-6-11zm2377-17-31-16-11-26c-16-44-31-105-31-132l1-25 15 28c17 32 16 32 56 11l31-16 40 5 39 5 29 28 29 28v74l-31 26-31 26h-73l-32-16zm144-40 17-26-10-16c-6-9-22-25-37-35l-26-20-49-5-50-4-18 27-18 27 11 17c5 9 25 26 43 39l33 22h87l17-26zm-1652-3c-49-23-89-64-109-113l-16-37v-127l25-51 26-51 39-26c22-14 44-26 49-26s15-7 22-17c39-46 182-114 238-112l26 1-42 14-42 15-35 40c-20 21-36 43-36 48s14 14 30 21l31 13 33 38 33 39 11 39c15 49 15 113 1 162l-12 38-30 37-31 37-40 18-41 19h-90l-40-19zm140-23 25-11 20-32 19-31 9-55c5-31 7-78 5-105l-4-49-17-35-17-35-35-23-35-24-38 5-39 5-20 19c-11 10-28 34-38 53l-18 35-7 56-7 56 12 57 11 56 33 35 33 35h41c23 0 53-5 67-12zm446 29c-13-6-33-24-45-40l-20-27v-70l20-27 21-28 83-51c90-56 100-66 100-106v-27l-26-20-27-21h-29c-16 0-42 7-58 15l-30 15-15 30c-8 16-15 36-15 44s-4 18-10 21l-10 6v-83l1-83 13 17 13 17 56-16 56-15 37 7 38 7 33 33 33 33v90l-24 30-25 29-60 32c-33 18-74 43-91 57l-30 26v48l20 20 20 20h30c17 0 44-7 60-15l28-15 17-45c10-25 21-45 25-45h6l-2 68c-2 37-3 71-4 76v8l-15-12-16-13-38 12c-49 14-90 14-120-2zm646-97c-3-8-8-31-11-50-4-19-20-70-36-112-17-43-30-88-31-100l-1-23-13 56-14 55-41 75-42 74 6-60c3-33 15-94 27-135 11-41 23-103 26-138l5-63 54 73 53 73 16 45c9 25 19 74 22 110l5 65-10 35-9 35-6-15zm-1792-34-8-38 6-69 6-68 20-46c11-25 42-75 68-110l48-65 6 62c4 35 16 95 27 135 11 39 23 102 27 140l7 68-42-79-42-79-12-61-13-61-6 40c-4 22-19 69-33 105-15 36-33 88-39 115l-12 50-8-39zm-458-82c-8-8 1-24 14-24 5 0 9 7 9 15 0 15-12 20-23 9zm75-19 3-16 92-2c50-1 95-5 99-9l7-8-11-13-12-14 7-6c21-22 33 22 14 52l-10 15-58 7c-32 4-75 8-96 8l-38 1 3-15zm2538-47c-25-5-55-11-67-14l-23-4v-20c0-10 5-22 10-25l10-6-6-24-6-23 11-6 11-7v21h29c16 0 43 3 60 6l31 7v22l-60-3-60-4-6 17-7 17 14 9c8 5 35 9 61 9h47l7 11 6 11-8 7-9 8-45-9zm-558-103c-7-27-16-99-22-160-9-103-17-142-36-189l-7-19 77 54c89 61 145 121 176 184l21 44 5 58 6 58-25-50-25-50-55-61c-30-34-64-78-76-98-28-45-34-46-15-1l14 34-1 48c0 26-6 82-13 123l-12 75-12-50zm-1410-42c-7-43-12-97-12-121v-43l14-34c19-45 15-44-17 4-15 22-52 68-83 103-31 34-65 81-76 103l-19 40 4-56 5-56 25-49 25-49 49-46c45-42 173-135 173-126 0 3-6 20-14 38l-14 34-11 115c-10 105-29 220-35 220-1 0-8-35-14-77zm748 42-12-14 4-17c2-9 10-22 20-27l16-11 16 13c9 8 16 22 16 32v18l-19 11c-25 13-26 13-41-5zm-1255-27c-72-14-75-16-75-32v-15l32 10c18 5 45 9 59 9h27l11-14 11-13-13-11c-7-6-36-14-65-18l-53-7 5-14c4-8 6-17 6-19 0-3 6-2 13 3 6 4 34 13 61 18l49 10 11 17 10 17-18 20-19 21h22l-5 15c-4 8-9 14-13 14-3-1-28-6-56-11zm2371-126c-3-3-6-13-6-22v-16l35 4c19 2 47 1 61-2l25-7-3-22-3-22-40 3c-22 1-50 5-62 7l-23 5v-35h145v30c0 17 4 33 9 36l9 7-6 14-5 15-30-5-29-4-36 10c-19 6-38 7-41 4zm-544-56c-18-29-44-88-58-132-14-43-39-103-55-132l-29-52 27 6c168 38 206 57 281 138l50 55 16 47 16 46-39-43-39-44-78-44c-44-24-99-60-124-79l-45-36 22 25c11 13 30 42 42 64l20 40 15 95c8 52 14 95 13 97-2 1-18-21-35-51zm-1242 42c0-5 7-50 16-100 16-93 29-127 68-183l21-30-33 27c-18 15-70 48-115 73-90 49-110 65-146 110l-23 30 7-25c20-71 111-177 183-214 29-15 155-46 188-46h15l-26 37-25 37-30 92-31 91-34 54c-19 30-35 51-35 47zm-525-129c-27-11-56-22-64-24l-13-5 12-16 13-15 6 9c8 12 69 32 97 32h22l-5 20c-6 23-4 23-68-1zm-139-46c-11-11-6-23 9-23 8 0 15 4 15 9 0 13-16 22-24 14zm1719-103-89-89-50-22-51-22 100-24 100-24 56 5 55 4 41 20c48 25 100 67 113 93l10 18-47-24-48-24-90-11c-49-5-108-13-130-16l-40-6 45 24 45 24 38 78c21 43 37 79 35 81-2 3-44-36-93-85zm-925 74c0-5 17-40 38-79l38-70 34-23 34-22-75 6c-41 3-98 10-128 15l-54 9-35 20c-49 29-50 18-5-27l40-40 48-23 48-23 56-1h56l98 24 98 24-48 19-48 18-75 73c-41 39-85 80-97 90l-23 19v-9zm1577-31c-4-3-7-16-7-27v-21l9 14 9 14 47-13 47-13 8-21 9-21v13l1 12h40l-11 24-11 24-17-5c-9-2-36 3-60 12-49 17-55 18-64 8zM390 890l-20-20v-47l18-16 19-17h70l21 23 22 23v41l-18 16-19 17h-73l-20-20zm94 4 16-6v-36l-31-26-31-26h-18c-24 0-33 15-26 43l5 22 28 17c32 20 35 20 57 12zm1979-95-11-11 65-34c36-19 67-34 69-34s4 8 4 18v19h-13c-6 0-31 12-54 26-49 31-46 30-60 16zm-1117-10c-22-5-76-26-120-46l-81-37-55-4-56-4-39 16-39 17 23-25c13-13 46-34 74-46l51-22 57 5 56 5 34 17c19 10 58 35 88 57l53 40 42 5 41 5-50-32c-27-18-74-53-103-77l-53-45 17-19 17-19 84 80 84 80 25 6 25 6 42-28c23-15 67-53 99-85l56-58 18 20 17 19-39 35c-21 19-66 52-98 73l-60 37 32 3 33 3 64-46c36-25 82-53 102-62l37-15h115l50 28c28 15 57 34 64 43l12 15-20-9c-11-4-50-10-86-13l-67-4-98 43-99 42-75-1c-41 0-86-2-100-2-14-1-50 0-80 4l-55 5-39-10zm-639-95-18-24-26 20c-34 27-55 25-92-6l-31-26v-22c0-27 18-46 43-46h18l-6-10-6-10 13-5 14-6 71 71 70 71-16 8-16 9-18-24zm-40-20 6-15-29-30-29-30-20 3-20 3-3 18-4 19 23 24 22 24h48l6-16zm1963 26c0-5 7-10 15-10s15 5 15 10c0 6-7 10-15 10s-15-4-15-10zm-298-42-10-13 39-29 39-30v-37l-15-5-15-6-46 37-45 38-12-13-12-12 12-5c7-2 28-18 49-34l37-29h47l6 25 6 25 10-6 10-7 9 14c5 8 9 18 9 22v8l-10-6-10-6-43 41-44 40-11-12zM804 528l-7-11 17 6 17 7 20-10 19-11v-38l-23-27-24-27-16 6-17 6v41h-30v-30l25-16 25-16 25 6c14 4 34 15 45 26l20 20v49l-16 15-15 16h-58l-7-12zm1288-34-22-15v-19c0-26 17-35 70-35h45v-30h-62l4-13 5-13 22 7c11 4 27 11 34 17l13 10-3 21-3 21-52 5c-28 3-55 8-58 12l-7 7 7 10 6 11h60l-6 10c-9 14-27 12-53-6zm-1047-78-20-14 28 5 27 5 15-12 15-12v-50l-14 5c-8 3-31 9-50 13l-36 6v-15c0-9 7-23 16-31l15-16h59l20 20 20 20v59l-16 15-15 16h-23c-12 0-31-6-41-14zm53-94 4-14-28 4-27 3-5 13-4 14 28-4 27-3 5-13zm732 68-20-20v-51l25-24 24-25h51l20 20 20 20v51l-25 24-24 25h-51l-20-20zm73-17c8-10 18-30 22-45l7-26-20-11-20-11-25 20-25 20-6 25c-8 33-1 45 28 45h23l16-17zm-591-19-22-15v-49l55-35c59-38 63-46 40-65l-15-12-26 6-26 7-6 21-5 22-9-24c-5-12-7-25-5-27 3-2 27-6 55-10l50-6 16 25 16 25-6 16c-3 9-28 30-55 47l-49 30v14c0 7 7 19 16 26l15 13 27-9 27-9 12-25 13-25v62l-37 7c-53 8-56 8-81-10z"/></g><g fill="#444" transform="matrix(.1 0 0 -.1 0 300)"><path d="M1309 2797c7-10 22-17 32-17s21-4 24-10l6-10h-116l15-10c8-5 33-10 55-10h40l-15-10c-8-5-31-12-51-15-21-4-45-13-56-21l-18-14 40 4c22 3 51 8 65 12l25 7-10-10c-5-5-34-29-63-52-29-24-51-45-49-47 7-7 70 23 101 47 35 28 33 23-27-69-27-40-47-78-45-83l4-11 31 26 32 27 26 55c15 31 28 54 30 52s-4-30-14-61c-9-32-19-55-22-53-2 2-5-19-7-47-1-28 0-49 2-46 16 19 57 105 58 125 1 13 6 24 11 24h9l-4-55-5-56 7 8c4 4 12 22 18 39l10 31-6 28-5 28 12-7c6-4 11-13 11-21s7-18 16-23l17-9 2-36 3-36-19-16-18-17-16 5-15 6v-9c0-5 8-11 18-13l17-5-25-1c-14-1-33-8-43-15l-17-13 15-13 15-13 23 18c12 10 34 32 50 49l27 30v-13c0-7-17-29-37-48l-38-34 20 7c11 4 25 11 32 16l11 9 5-13 5-13 10 14 10 13 6-11c4-6 15-11 24-11l17 1-27 20-28 21v31l24-24c14-13 36-34 49-45l24-21 10 16 11 17-19 12c-10 7-29 12-41 13h-23l20 9 20 9h-20c-22 1-45 18-45 33v9l20-11 20-11v10c0 6-9 15-20 21l-20 11v19c0 10 5 22 11 25 5 4 15 19 21 33l11 27 7-51c4-28 13-60 19-70l12-19-4 77-4 77 7-4c4-3 10-25 12-49l5-44 32-54 32-53-6 38c-3 21-9 46-12 54l-6 16 14-8 14-8-16 19c-19 22-44 93-36 101 3 3 15-16 27-41l21-46 37-34c20-19 38-33 40-31 6 6-40 89-75 138l-35 47h10c5 0 16-7 23-17 16-18 98-57 106-50 2 3-26 29-64 57l-68 53 25-7c14-4 45-9 70-12l45-5-15 10c-8 6-40 19-70 28l-55 17 42 6c24 4 46 9 49 13l7 7-59 1-59 1 32 14c17 7 35 19 38 25l7 11-23-13c-13-7-40-15-59-19l-35-5-3-19-4-18 11 6 11 7v-14c0-8-7-17-15-21l-15-5 6-14 5-13-26-12c-14-7-31-12-37-12h-12l12 12 12 12v77l11-7 11-6-17 26-17 26h-17c-9 0-24-7-34-14l-18-14 20-7 20-6 7-21 6-21-14-11-15-11 4-12c2-6-1-14-7-18l-11-7-28 12-29 11 5 20 5 19h-32v29l14-5 14-6-2 19-3 18-41 7c-23 4-51 12-64 19l-23 12 14-16zm151-317c-8-5-12-11-9-14s14 1 25 9c21 16 8 20-16 5zm10-120-15-10h35v10c0 12-1 12-20 0zm36 0c-3-8-2-28 2-45l9-30 5 32 4 33-7 12-8 12-5-14zm31-1c7-7 15-10 18-7s-2 9-12 12l-18 7 12-12zm40-8-6-24 11 11c5 5 8 16 6 23l-4 13-7-23zm-425-163c-7-7-12-22-12-34v-22l15-12 15-13 7 7 6 6h-10c-6 0-13 10-16 22l-6 21 10 19c11 21 8 23-9 6zm56-29 4-39h-25l6-6 7-7 15 13 15 12v46l-13 10-12 11 3-40zm461 26c-7-7 2-75 10-75 4 0 5 18 3 40-4 41-5 44-13 35zm-419-45v-30h17l-5 25-4 25h12c7 0 19-8 26-17l13-18 1 20v21l-30 2-30 2v-30zm77 10-5-20h8c4 0 10 9 13 20l5 20h-8c-4 0-10-9-13-20zm63-5v-25h-21l7 12 7 11-11-7c-7-4-12-11-12-16v-10l25 2 25 2v56h-20v-25zm40-5c0-16 3-30 8-30 4 0 7 14 7 30 0 17-3 30-7 30-5 0-8-13-8-30zm38 0c2-16 7-30 11-30h8l-5 30c-2 17-7 30-11 30h-8l5-30zm32 0v-30h20v60h-20v-30zm57 4c-11-14-17-27-15-30 3-2 14 10 27 26 12 17 18 30 14 30s-16-12-26-26zm73 1v-25h-21l6 10 6 10h-10c-6 0-11-7-11-15v-15l25 2 25 2v56h-20v-25zm80-5v-30h17l-5 30c-2 17-6 30-8 30s-4-13-4-30zm36 13-7-17 14-13 14-14-5 31c-5 34-7 37-16 13zm39-13v-30l12 16 12 16-6 14c-9 24-18 16-18-16zm35 0v-30h17l-5 25-4 25h32v-25c0-14 4-25 8-25h9l-5 30-4 30h-48v-30zm180 15c0-10 120-162 154-194l36-35v21c0 12-15 50-33 85l-33 63-54 33c-51 30-70 38-70 27zm-1057-35-53-30-24-38c-25-39-51-110-43-118 10-10 67 49 125 131 34 47 58 85 54 85s-31-14-59-30zm375-7 22-4v-21l-25 4-25 5v-18l28 3 27 3v30l-25 1-25 1 23-4zm871-75c11-18 28-69 39-113s23-89 27-100l7-20-20 31c-11 17-42 49-68 70-27 22-60 51-75 67l-27 27 11-37 11-38 93-91 93-91v198l-14 32c-13 33-70 97-86 97h-9l18-32zm-1407-23-39-45-7-31c-3-17-6-75-6-127v-96l23 31c12 17 46 52 75 78 60 54 90 93 102 134l8 28-46-41c-72-65-116-110-129-131l-13-20 11 30c6 16 17 61 25 99 8 39 21 83 29 100 23 44 12 42-33-9zm1532-111c3-8 3-76-1-150l-6-135-13 37-13 37-57 58c-32 32-60 57-62 54-10-9 22-76 78-160 32-49 62-103 66-119l7-29 29 94 30 94-5 75-4 75-22 43c-20 40-40 59-27 26zm-1645-46-23-53v-140l28-85 29-85 14 34c8 19 37 70 65 113l50 78 14 47 14 47-31-30c-17-16-45-47-62-68l-31-39-16-48-16-47-3 111c-2 62-4 136-4 165 0 28-1 52-2 52-2 0-13-24-26-52zm-373-57-6-9 15-5 14-6-6 15c-6 16-10 17-17 5zm2378-10c-18-11-35-25-39-31-8-14-34-118-34-140l-1-15 19 24 19 24 37-17 37-18 35 7 36 6 29 29 28 28v27c0 53-47 95-107 95h-28l-31-19zm120-11 25-9 7-25 6-24-11-20c-6-11-26-27-45-36l-34-16h-75l-19 17c-23 20-23 45 0 72l17 22 40 14c49 17 57 18 89 5zm-2404-6-35-15-16 4-16 4 4-18c3-11 4-19 2-19s-29 7-59 15c-69 18-70 18-70-1v-15l8 5c5 3 51-6 103-19 52-14 95-25 97-25 1 0 2 7 2 15v15h-24c-14 0-27 4-31 10l-6 9 40 12 40 12 5 13 5 14h-7c-4-1-23-8-42-16zm790-17-35-11-40-41-40-40-13-41c-6-23-12-65-12-93v-52l16-37c18-44 58-88 97-109 16-8 50-30 75-50 60-46 135-80 192-88l45-6-38 14c-53 21-116 76-116 102 0 6 19 22 43 36l44 27 27 46 26 45 6 53 5 53-11 41c-6 22-24 59-40 81l-29 40-38 18-39 18-45 3-45 3-35-12zm138-33 24-16 21-46 21-47v-80l1-80-23-47-23-46-33-16c-19-9-46-16-61-16h-27l-29 17-29 18-20 40c-11 23-23 62-26 87l-7 46 7 56 7 55 22 33 22 33 35 18 35 18 29-6c17-3 41-12 54-21zm436 32c-17-8-39-24-48-37l-16-23v-83l20-26 20-25 80-47 80-47 10-18c6-10 10-30 10-44v-26l-21-21-21-21-51 5-51 4-28 32-28 31v20c0 10-4 22-10 25l-10 6v-143l15 12 15 12 31-11c18-6 54-11 81-11h49l29 15 30 15 15 30c19 37 19 73 0 110l-15 28-77 47c-43 26-88 56-100 68l-23 20v54l19 17 20 18h74l26-20 26-19 17-44 17-44v79l1 80-12-17-13-17-40 15c-50 18-81 18-121 1zm618-194c-18-54-41-128-51-167l-17-70v131l-45 82-44 82-4-11c-5-15 16-119 40-200l19-66v-107l55 79 55 79 14 46c8 25 17 68 20 95l5 50-7 37-7 36-33-96zm-1767 44-8-48 12-70c13-81 22-100 88-190l50-66v83l26 100c14 55 28 125 31 155l6 55-47-95-48-94v-58c0-32-1-58-2-58s-7 26-13 58c-7 31-26 90-42 131-16 40-33 90-37 110l-8 36-8-49zm-455-70c0-9 5-16 10-16 6 0 10 4 10 9 0 6-4 13-10 16l-10 6v-15zm72-6 4-13 79-4c44-2 89-5 100-8l20-4-19 14-20 15h-37c-20 0-58 3-84 7l-48 6 5-13zm195-46c-4-4-7-14-7-23v-15l11 11c6 6 10 16 7 23l-3 11-8-7zm2321-11-46-4-12-14-12-15 7-17 7-18 9 23 8 22h33c42 0 78 10 78 21 0 5-6 8-12 7-7-1-34-3-60-5zm-531-78c-9-31-16-81-27-195l-9-105-15-42-15-41 81 56 81 57 33 41c43 52 73 119 80 181l6 48-22-43c-13-24-44-67-70-95-26-29-64-77-85-107-20-30-34-46-30-35 5 11 12 40 18 65l10 45-15 95-14 95-7-20zm602 10c-3-2-31-7-63-9-61-5-71-9-63-23l6-9 65 10 66 10v13c0 14-3 16-11 8zm-2019-96-13-92 10-46c5-25 14-55 18-66s-11 7-35 40c-23 33-59 78-80 100s-51 60-65 85l-27 45 6-50 6-50 26-52 25-52 48-43c48-44 171-133 171-125 0 3-6 20-14 39l-14 34-16 140c-8 77-19 151-24 163l-8 22-14-92zm744 57c-3-9-3-23 0-32l6-15 27 3 28 3v50l-28 3-27 3-6-15zm-1224-17c-14-5-42-11-62-14l-38-6v-21l28 6c15 4 44 7 65 8l38 1 6 10c3 5 1 12-3 16l-9 8-25-8zm38-56-5-20-33-6c-18-4-43-7-56-7h-24v-27l58 10 57 9 14 13 13 13-9 17-10 17-5-19zm2312-83c0-8 20-14 98-25l42-7v11c0 15-12 18-82 24l-58 6v-9zm-545-38-25-38-35-104c-19-57-46-120-59-140l-24-36 77 16c95 21 138 41 196 92l46 41 29 51c17 28 30 55 30 60s-22-12-49-37l-48-45-54-27c-30-15-77-45-106-66l-51-38 33 49 34 50 10 52c18 92 28 158 25 158-2 0-15-17-29-38zm-1241 11c3-10 10-49 16-88 13-80 38-142 69-169 42-38 20-36-31 2-29 22-82 55-118 73-35 19-81 50-102 70s-38 34-38 32 9-21 20-43c27-52 73-105 126-141l43-29 58-14c32-8 76-17 98-21l40-7-16 19c-25 27-47 76-76 161-14 42-39 98-55 125-31 49-43 59-34 30zm1900-40-11-17-57 10-57 11-5-9c-9-14-4-15 61-22l60-6 13 8 14 9-4 17-3 17-11-18zm-2447-75-59-20 9-9 8-8 63 22c34 12 62 25 62 29 0 12-19 8-83-14zm-127-48c0-5 7-10 15-10s15 5 15 10c0 6-7 10-15 10s-15-4-15-10zm1720-95-95-95-32-11c-18-6-33-14-33-18 0-7 100-33 182-47l37-6 50 12 50 12 46 30c25 16 54 43 65 58l21 29-45-25-44-25-128-15c-70-8-131-17-137-21l-10-6 7 11c4 7 13 12 21 12 7 0 28 12 45 26l31 27 35 69c19 39 34 72 32 74s-46-39-98-91zm-893 27 27-63 31-32 32-33 34-12 34-12-42 5c-23 3-85 10-138 15l-97 10-47 21-46 20 35-37 35-36 50-24 50-24h118l88 22 87 22-50 23-51 24-89 86-88 87 27-62zm1550 21c-4-3-7-13-7-22v-15l11 11 11 11 49-16 49-16v-31l8 13 9 13 17-7 18-7-13 21c-7 11-16 19-20 16-4-2-31 5-59 16-55 22-63 23-73 13zM396 889l-26-20v-46l18-16 19-17h64l24 25c29 28 31 43 11 70l-14 20 5-27 5-26-21-21c-11-11-32-23-47-27l-26-7-15 16-15 15 12 22 12 22 41 19 42 19h-62l-27-21zm2068-90c-3-6-4-11-3-12 2-1 30-15 61-32l57-30 7 8c9 9 12 7-58 45l-57 32-7-11zm-1102-10c-23-4-85-26-137-48l-95-41h-54c-30 0-67 5-83 10l-28 10 30-25 30-25 53-17 53-17 57 12 57 12 80 54c74 51 96 60 135 57l15-1-65-44c-36-24-80-60-99-79l-34-36 12-15 13-15 67 67c37 37 86 77 108 89l40 23 44-31c24-17 70-56 101-87l57-55 16 13 16 13-33 34c-18 18-62 53-97 76l-65 42 33 3 34 3 66-45c36-25 83-52 103-61l37-15h50c56 0 91 11 138 43 45 30 41 38-9 20l-43-15-41 6c-23 3-78 21-122 41l-82 36-56 10-56 10-48-10-49-11-52 10c-28 6-52 10-53 9 0-1-20-5-44-10zm-762-90c-13-6-33-17-42-26l-18-16v-22c0-26 18-45 43-45h18l-5-9-6-9 11-4 12-4 68 65 69 65-10 10-10 10-16-23-16-22-14 5-14 5v-14c0-8-12-26-27-40l-28-26-20 3-20 3-3 28-3 27 30 18c17 9 31 20 31 25 0 8 2 8-30-4zm2030 1c0-5 5-10 10-10 6 0 10 5 10 10 0 6-4 10-10 10-5 0-10-4-10-10zm-299-43-10-10 41-31c23-17 47-35 54-41l13-9 7 7 7 7-29 22c-16 13-39 32-51 44l-21 22-11-11zm-56-57-6-10 28-24c15-14 38-31 51-37l23-13 17 10c8 6 18 17 20 25l5 14-14-12c-21-20-36-16-78 22l-39 36-7-11zM840 527l25-12 3-28 3-27-26-24-26-24 21 5c25 7 60 49 60 73 0 9-8 24-18 33l-19 17h-48l25-13zm1280-27c8-5 19-10 23-10h8l-6 10c-3 6-14 10-23 10h-17l15-10zm-48-40 3-25 50-3 49-3 13-11 13-10v9c0 5-5 14-12 21l-12 12h-85l-11 18-11 17 3-25zm-1312 2c0-5 7-17 15-28l14-19 1 28v27h-15c-8 0-15-4-15-8zm295-42-6-10h50l11-21 12-21-7-16c-3-9-6-19-6-22-1-3-5-12-11-20s1-2 16 13l26 28v46l-18 16c-21 19-57 22-67 7zm840-45 37-35-5-27-5-28 14 20c25 34 15 69-27 90-15 8-33 15-39 15h-11l36-35zm-68 7c-22-24-21-54 1-80l17-21 30-6 30-6-26 15-26 15-13 32-13 31 11 19c15 24 10 24-11 1zm308-2c3-5 8-10 11-10 2 0 4 5 4 10 0 6-5 10-11 10h-10l6-10zm-815-23-25-13-3-21-3-22 18-15c10-9 34-26 53-39l35-23v-39l-32-3-31-3-16 23-16 22v-43l36-7 36-7 24 12 25 11-3 28-3 27-47 30-48 30v43l28 10 27 10-15 1c-8 0-26-5-40-12zm-310-10c0-15 31-47 45-47h9l-12 12c-7 7-12 20-12 30v18h-30v-13zm382 2c10-5 22-17 27-27l10-17 1 25v26l-27 2-28 1 17-10z"/></g><g fill="#070707" transform="matrix(.1 0 0 -.1 0 300)"><path d="M1327 2789c7-7 15-10 18-7s-2 9-12 12l-18 7 12-12zm168-3-19-13 21-7c12-4 24-13 27-21 6-18-3-45-15-45-5 0-9-9-9-20v-20h-14c-8 0-27 5-41 10l-27 10 5 14 6 14-15 6-14 5v32l11-7 11-6-4 18-3 19-30 3-30 3 15-10 15-11-60-1-60-1 30-9 30-9 23 5 22 5v-19l-42-11c-24-6-56-17-73-25l-30-14 35 5c19 3 47 10 63 14l27 9v-9c0-5-27-30-60-55s-60-48-60-50c0-11 58 19 93 47 21 16 40 28 43 26 2-3-21-42-51-87s-55-87-55-93v-10l39 33 39 34 1 23c1 12 5 22 9 22 5 0 14 12 21 26 24 53 21 14-4-76-15-50-24-94-22-97 3-3 17 18 31 46l26 50v33c0 18 5 40 10 48l10 15 1-15c0-8 0-42-1-75l-2-60 7 7c4 4 10 33 14 65l6 58 28-48 29-48-6-15c-3-8-16-19-28-24l-23-9h16c8-1 20 4 27 11 17 17 15 1-5-33l-17-29h-47l-6-15c-8-24 4-30 22-11 9 9 21 16 26 16s18 14 28 31l19 30 28-28c16-16 41-39 57-53l27-24-3 25-4 24-28 3-28 4 14 9 14 9h-16c-23 0-44 28-45 61l-2 29 15 12c8 7 19 23 24 36 12 31 16 27 22-26 2-23 7-46 11-49l6-6v122l9 5 8 5 6-47 6-47 26-54c14-29 28-51 31-49 4 4-34 147-51 191l-7 17h8c5 0 20-21 34-47 14-27 37-61 52-78l27-29 7 6 6 7-23 38c-12 21-35 54-51 74-15 20-28 42-28 48v12l38-29c20-16 51-34 67-40l30-12-30 27c-17 16-46 40-65 55l-34 27 6 6 6 7 19-10c10-5 36-12 57-15l39-6-9 9c-5 5-33 15-63 22l-55 14-3 11-4 11 19-5c10-2 34 0 53 5l34 10-58 1-58 1 6 11 7 11-28-4-29-3-3-17-3-18 15 6 16 6v-33l-14-5c-8-3-16-14-19-24l-5-19-26-7c-35-8-42 0-28 31 7 14 12 38 12 53v28l-12 12c-15 15-20 15-43-2zm45-306c0-6 7-10 15-10s15 2 15 4-7 6-15 10l-15 5v-9zm-47-66c-12-13-18-24-13-24s12 5 16 12l7 12 8-20 8-19v20l1 20 10-15c5-8 11-12 14-10 2 3-3 15-13 26l-17 21-21-23zm9-63c2-7 7-12 11-12 12 1 9 15-3 20l-12 4 4-12zm-359-177-6-15 10-22 10-21-1 37c-1 41-4 45-13 21zm75-11 6-28 4 19 4 18-10 10-10 10 6-29zm452-18v-35h16l-4 35c-2 19-6 35-8 35s-4-16-4-35zm-418-5v-35l5 18c2 9 2 25 0 35l-5 17v-35zm79 14 1-19 5 13c3 7 2 16-1 19-3 4-6-2-5-13zm101-14v-35l5 18c2 9 2 25 0 35l-5 17v-35zm40 0v-35l5 18c2 9 2 25 0 35l-5 17v-35zm89 7-13-22 18 17c10 10 16 20 13 22-3 3-11-5-18-17zm78-9 5-33 4 24 4 23-9 9-10 10 6-33zm73 2v-35l5 18c2 9 2 25 0 35l-5 17v-35zm110 0v-35l5 18c2 9 2 25 0 35l-5 17v-35zm40 0v-35l5 18c2 9 2 25 0 35l-5 17v-35zm-465 13c-3-5-1-17 4-28l8-20v28c1 27-4 34-12 20zm395-13v-25l5 13c2 6 2 18 0 25l-5 12v-25zm252-42c48-68 135-163 142-155 3 2-4 29-16 59l-20 54-32 31c-18 17-52 40-75 52l-42 21 43-62zm-1079 35c-16-8-47-31-68-51l-37-36-20-53c-11-30-20-56-20-59 0-13 67 52 94 90 16 23 42 58 59 79 16 21 27 40 26 42-2 2-17-4-34-12zm343-20c6-2 18-2 25 0l12 5h-50l13-5zm-11-24c7-7 15-10 18-7s-2 9-12 12l-18 7 12-12zm897-51c12-20 67-215 66-236-1-4-10 10-20 30l-20 37-36 28c-20 15-52 41-70 57-19 15-34 25-34 20 0-19 52-93 82-116 18-14 52-44 76-68l42-42v183l-16 37c-15 37-61 92-76 92h-8l14-22zm-1412-23-31-35-11-40-11-41 2-82 3-82 77 75c69 67 119 131 119 153 0 15-126-97-153-137l-29-41 6 25c4 14 16 63 27 110 12 47 25 93 31 103 17 33 2 29-30-8zm1533-230-7-114 7-42 7-42-11 7c-6 4-11 16-11 27 0 34-36 92-90 144l-52 50 7-25c11-37 30-72 86-157 27-42 52-87 56-101l6-25 29 94 30 94-6 65-5 65-15 38c-9 20-18 37-20 37s-7-52-11-115zm-1643 80c-7-16-16-55-21-85l-9-55 7-40c4-22 18-72 31-112l23-71 23 49c13 27 37 70 54 94 34 50 74 134 67 141-2 3-30-23-61-56l-56-61-6-27c-3-15-9-36-14-47l-9-20-1 95c-2 52-5 124-9 160l-6 65-13-30zm2011-74c-24-11-43-22-43-25 0-2-3-13-7-23l-6-18 24 21c13 12 41 27 62 34l38 12 26-5 25-5-9 9c-5 5-22 11-38 14l-30 5-42-19zm-2312-27c-18-8-31-17-28-20s14-1 25 5c12 6 30 11 41 11h21v10c0 13-18 11-59-6zm814-9-40-14-42-44-41-44-12-44-12-44 5-53 6-52 23-42 23-43 100-68c106-72 151-95 200-103l30-5-31 14-31 15-31 38c-18 21-32 41-32 45s13 12 30 19l29 12 40 43 39 42 13 57 12 56-13 57-12 58-47 46-46 47-40 11c-51 14-71 13-120-4zm126-28 34-22 20-40 20-40v-180l-19-39-19-38-31-19-31-19h-70l-31 19-31 19-19 38-19 39v190l21 39 20 39 34 19c19 10 46 18 61 18h26l34-23zm469 36c-8-2-26-10-38-16l-24-11-14-28c-17-33-18-68-2-103l11-25 51-34c28-18 65-41 83-49 38-20 73-62 73-89v-19l-25-24-24-25h-83l-28 17-29 17-20 45-19 46-1-74-1-73 15 12 16 13 38-12c21-6 57-11 81-11h42l28 16c56 34 75 100 44 153l-17 28-91 55-91 55-13 27-14 27 16 24c9 13 26 29 37 36l22 11 37-11 36-11 21-22c12-13 26-39 31-58l10-35 1 79 1 80-12-17-13-17-49 15c-51 16-61 17-86 8zm-1580-10c0-9 199-57 206-50 3 2-35 14-83 26s-96 24-105 27l-18 5v-8zm2627-42-5-19-27-18c-15-10-48-23-73-30l-47-13h43l43-1 28 15 28 14 13 31c7 17 10 33 8 36-3 3-8-4-11-15zm-212-33c-4-15-5-32-3-38l3-10 11 17 11 18-7 20-8 20-7-27zm-239-111c-15-45-38-119-49-164-12-46-24-83-27-83s-4 29-2 64l4 65-44 86c-23 47-44 81-46 76-4-13 20-128 48-231l21-75-4-28-4-28 7 8c4 4 27 37 53 73l45 65 16 50 17 51-3 76-3 77-29-82zm-1769 35-7-43 11-67c13-77 31-115 88-191l41-55v23c0 13 13 78 29 145 16 66 32 139 35 161l6 40-26-45c-15-25-33-61-42-80l-15-35-7-75-6-75-13 60c-7 33-28 98-46 145s-35 96-37 110l-4 25-7-43zm-377-79v-8l88-2 87-1-20 8c-11 5-50 9-87 9l-68 1v-7zm2516-53-58-8-9-13c-4-7-5-16-2-19s8 0 10 7l4 12 60 7 59 7v8c0 5-1 8-2 8-2-1-29-5-62-9zm-539-85c-5-11-13-72-18-135-10-110-20-176-35-214l-7-17 66 46c36 25 88 70 116 101l51 55 20 66c11 36 20 73 20 82v16l-26-44c-14-25-42-63-63-86-20-22-56-69-80-103-45-66-65-78-35-20l18 33v60c-1 33-5 87-10 120l-9 60-8-20zm528 5c-71-8-63-13 15-10l55 2 10 9 9 9-14-2c-8-1-42-4-75-8zm-1944-89-14-90 12-48c7-26 17-54 23-61s8-15 5-18-20 16-38 43c-18 26-58 77-90 113-31 36-64 79-73 95l-16 30 6-40c3-22 17-63 29-92l24-52 44-43c24-24 73-63 107-87l63-44-7 18c-14 37-25 102-36 212-6 62-14 122-18 133l-8 21-13-90zm743 64c-4-8-4-22 0-30l5-15h49l6 16 6 17-11 13c-6 8-20 14-31 14h-19l-5-15zm-1256-27c-32-6-58-13-58-17v-7l65 10 65 9v9c0 4-3 7-7 7-5-1-34-6-65-11zm73-50-1-17-37-6c-66-11-86-16-80-21 5-6 117 13 125 20 2 3 2 13-1 23l-5 18-1-17zm2309-78c0-7 73-20 111-20h19v21l-9-6c-6-3-35-2-65 3l-56 9v-7zm-557-67c-17-32-38-85-48-118-9-33-29-84-45-112-15-29-26-53-24-53 3 0 37 7 77 16 116 26 174 64 238 152 48 68 50 84 4 43-19-17-69-49-111-72-41-23-93-57-116-75-22-19-43-32-46-30-2 3 11 23 30 45l35 41 11 37c14 47 34 174 29 179-2 3-18-22-34-53zm-1223 28c0-5 6-43 14-84 16-84 36-129 74-169l26-28h-11c-6 0-27 13-47 30-21 16-71 47-112 70-40 22-90 54-109 71-46 41-44 25 4-43 66-91 128-129 252-153l68-13-23 42c-14 22-36 76-50 119-30 94-86 196-86 158zm1895-32-8-12-58 6-59 5v-16l58-5 57-5 14 14c8 7 12 16 9 19-3 4-9 1-13-6zm-2437-71c-32-11-58-24-58-29 0-12 13-12 26 0 5 5 31 16 58 23l49 15-9 5c-5 3-35-3-66-14zm672-72c0-16 55-114 78-138l25-28 34-11c18-6 33-15 33-20v-10l-9 5c-5 3-69 13-141 21l-133 14-41 21-41 20 47-44 48-44 47-16 47-16h91l90 24 90 23-39 13-40 13-93 90c-51 49-93 87-93 83zm910-76-77-79-44-20-44-20 15-5c8-3 43-12 76-21l62-15h127l50 24 50 24 34 35 34 36-41-20-40-20-68-10c-38-5-100-14-138-19-38-6-71-8-73-6-3 2 15 13 40 24l44 19 21 31c26 35 64 122 55 122-4 0-41-36-83-80zm650 40v-9l14 5 13 5 54-20c59-23 69-25 69-13 0 8-109 42-135 42-8 0-15-4-15-10zM395 885l-25-24v-34l22 28c12 15 35 33 52 41l31 13-28 1h-28l-24-25zm92-51-18-24-32-9-32-9 22-1c12-1 33 4 47 11l26 11 6 19c9 29 1 29-19 2zm1983-39c0-9 104-64 112-59l8 5-56 30c-58 30-64 32-64 24zm-1165-25c-28-9-69-27-93-39-23-12-62-25-86-30l-44-8-46 7-45 7 6-10c3-5 26-18 51-29l46-21 51 1h52l36 16c20 8 66 36 102 61l64 46 36 6 35 6v-10c0-6-25-27-55-47-61-40-135-104-135-116 0-4 6-10 13-13l14-5 75 72 74 72 32 13 31 13 33-22c18-13 63-53 100-89l68-65 16 15 15 16-43 37c-24 21-69 54-100 73l-58 36 6 9 7 10 33-5 34-6 65-46 65-47 47-14c25-8 62-14 82-14h36l51 24c28 13 55 29 58 35l7 11-26-10c-15-6-47-10-72-10h-46l-96 42-96 42-175 2-175 2-50-18zM667 643l-67-65 5-9 6-8 35 39c20 22 51 53 70 69l34 30-8 5-8 5-67-66zm1963 57c0-5 5-10 10-10 6 0 10 5 10 10 0 6-4 10-10 10-5 0-10-4-10-10zM566 674c-30-31-32-46-10-68 19-20 31-21 14-1l-12 14 7 20c3 11 18 30 32 41l26 20h-15c-9 0-27-12-42-26zm1764-19c0-7 67-67 87-78l15-9 6 7 7 7-18 10c-10 5-33 23-51 39-32 28-46 35-46 24zm-55-54-5-9 47-36c47-37 67-44 78-26l6 10h-46l-37 34-38 35-5-8zM845 528c11-6 23-16 27-22l8-11-6-20c-4-11-14-29-23-39l-16-19 21 11c24 13 34 32 34 67v24l-19 11c-11 5-26 10-33 10l-13-1 20-11zm-75-74v-15l10 6 10 6-5 10c-9 14-15 11-15-7zm1301 11c-1-6 4-16 11-23l12-12h97l-6 10-6 10h-97l-5 13-5 12-1-10zm-977-58 29-24-7-34-6-33 9 9c5 6 13 22 16 37l7 26-21 21c-12 12-29 21-38 21h-18l29-23zm804-22 22-16 9-32 9-32 1 31 1 31-18 16c-10 10-25 17-33 17h-13l22-15zm-78-20c-5-42 17-85 43-85h10l-18 20c-9 10-21 34-25 52l-8 33-2-20zm-800-24c0-11 5-23 10-26l10-6v20c0 11-4 23-10 26l-10 6v-20zm286-3-15-21 9-17c5-10 30-30 56-45l46-27-5-24-4-24 13 11c8 6 14 20 14 30v18l-55 36-55 35v13c0 7 5 18 12 25s9 12 6 12c-4 0-14-10-22-22zm-5-144 1-19 5 13c3 7 2 16-1 19-3 4-6-2-5-13z"/></g></g></svg>